<?xml version="1.0" encoding="UTF-8"?>
<svg width="785px" height="374px" viewBox="0 0 785 374" version="1.1" xmlns="http://www.w3.org/2000/svg" xmlns:xlink="http://www.w3.org/1999/xlink">
    <!-- Generator: Sketch 51.1 (57501) - http://www.bohemiancoding.com/sketch -->
    <title>Device List view -- Introducing smart group Copy 2</title>
    <desc>Created with Sketch.</desc>
    <defs></defs>
    <g id="Device-List-view----Introducing-smart-group-Copy-2" stroke="none" stroke-width="1" fill="none" fill-rule="evenodd">
        <g id="Group-2">
            <g id="Group">
                <g id="PopUp">
                    <rect id="Rectangle-2-Copy" fill="#FFFFFF" x="0" y="0" width="785" height="374"></rect>
                    <path d="M28.966066,59.6666667 L755.932398,59.6666667" id="Line" stroke-opacity="0.5" stroke="#D7D8DA" stroke-linecap="square"></path>
                    <path d="M28.966066,290.666667 L755.932398,290.666667" id="Line" stroke-opacity="0.5" stroke="#D7D8DA" stroke-linecap="square"></path>
                    <rect id="Rectangle-4" fill="#48DAD0" x="630" y="313" width="126" height="36"></rect>
                    <rect id="Rectangle-4-Copy" stroke="#48DAD0" x="498.5" y="313.5" width="125" height="35"></rect>
                    <text id="Next" font-family="FiraSans-Medium, Fira Sans" font-size="14" font-weight="400" fill="#FFFFFF">
                        <tspan x="678" y="337">Next</tspan>
                    </text>
                    <text id="Save" font-family="FiraSans-Medium, Fira Sans" font-size="14" font-weight="400" fill="#48DAD0">
                        <tspan x="546" y="337">Save</tspan>
                    </text>
                </g>
                <g id="Titlebar-full" transform="translate(681.000000, 14.000000)" fill="#B7B9BC">
                    <g id="Group" transform="translate(15.000000, 8.000000)">
                        <g id="Minimize" transform="translate(0.000000, 10.000000)">
                            <path d="M0.5,0 L10.4528571,0 C10.7289995,-5.07265313e-17 10.9528571,0.223857625 10.9528571,0.5 L10.9528571,1.5 C10.9528571,1.77614237 10.7289995,2 10.4528571,2 L0.5,2 C0.223857625,2 3.38176876e-17,1.77614237 0,1.5 L-5.55111512e-17,0.5 C-8.93288388e-17,0.223857625 0.223857625,5.07265313e-17 0.5,0 Z" id="minimise"></path>
                        </g>
                        <g id="Maximize" transform="translate(24.545455, 0.909091)">
                            <path d="M1.57131633,1.83241667 L9.42789801,1.83241667 L9.42789801,9.16666667 L1.57131633,9.16666667 L1.57131633,1.83241667 Z M0.5,11 L10.5,11 C10.7761424,11 11,10.7761424 11,10.5 L11,0.5 C11,0.223857625 10.7761424,-5.07265313e-17 10.5,0 L0.5,0 C0.223857625,5.07265313e-17 -3.38176876e-17,0.223857625 0,0.5 L0,10.5 C3.38176876e-17,10.7761424 0.223857625,11 0.5,11 Z" id="maximise-copy"></path>
                        </g>
                        <g id="Close" transform="translate(47.272727, 0.000000)">
                            <g id="Group">
                                <rect id="Rectangle-7" transform="translate(5.946949, 5.946949) rotate(45.000000) translate(-5.946949, -5.946949) " x="-1.43766605" y="4.92130831" width="14.7692308" height="2.05128205" rx="0.5"></rect>
                                <rect id="Rectangle-7" transform="translate(5.946949, 5.946949) scale(-1, 1) rotate(45.000000) translate(-5.946949, -5.946949) " x="-1.43766605" y="4.92130831" width="14.7692308" height="2.05128205" rx="0.5"></rect>
                            </g>
                        </g>
                    </g>
                </g>
                <text id="Create-new-group" font-family="FiraSans-Light, Fira Sans" font-size="16" font-weight="300" fill="#0F1621">
                    <tspan x="28" y="35">Create new group</tspan>
                </text>
                <g id="Content-01" transform="translate(28.000000, 131.000000)">
                    <text id="A-group-that-contain" font-family="FiraSans-Book, Fira Sans" font-size="12" font-weight="300" line-spacing="15" fill="#000000">
                        <tspan x="1" y="67">A group that contains a fixed list of devices. To add devices,</tspan>
                        <tspan x="1" y="82">you drag and drop them from the device view.</tspan>
                    </text>
                    <text id="Fixed-group" font-family="FiraSans-Medium, Fira Sans" font-size="12" font-weight="400" fill="#0F1621">
                        <tspan x="25" y="14">Fixed group</tspan>
                    </text>
                    <circle id="Oval-3" fill="#E7E7E8" cx="8" cy="9" r="8"></circle>
                </g>
                <g id="Content-02" transform="translate(415.000000, 131.000000)">
                    <text id="A-group-that-is-base" font-family="FiraSans-Book, Fira Sans" font-size="12" font-weight="300" line-spacing="14" fill="#000000">
                        <tspan x="1" y="68">A group that is based on a device filter. New devices are </tspan>
                        <tspan x="1" y="82">automatically added if they match the filter criteria</tspan>
                    </text>
                    <text id="Smart-group" font-family="FiraSans-Medium, Fira Sans" font-size="12" font-weight="400" fill="#0F1621">
                        <tspan x="25" y="14">Smart group</tspan>
                    </text>
                    <circle id="Oval-3" fill="#E7E7E8" cx="8" cy="9" r="8"></circle>
                    <circle id="Oval-3" fill="#00AFAA" cx="8" cy="9" r="5"></circle>
                </g>
                <path d="M393,77.5 L393,268.827599" id="Line-3" stroke="#EBEBEC" stroke-linecap="square"></path>
            </g>
        </g>
    </g>
</svg>