<?xml version="1.0" encoding="UTF-8"?>
<svg width="31px" height="28px" viewBox="0 0 31 28" version="1.1" xmlns="http://www.w3.org/2000/svg" xmlns:xlink="http://www.w3.org/1999/xlink">
    <!-- Generator: Sketch 42 (36781) - http://www.bohemiancoding.com/sketch -->
    <title>Home_Icon Copy 3</title>
    <desc>Created with Sketch.</desc>
    <defs></defs>
    <g id="Symbols" stroke="none" stroke-width="1" fill="none" fill-rule="evenodd" stroke-linecap="round" stroke-linejoin="round">
        <g id="Home_Icon-Copy-3" stroke="#000000">
            <g id="Page-1" transform="translate(2.000000, 0.000000)">
                <path d="M5.9412913,3.23225 C5.65485652,2.57541667 5.21111739,1.67241667 4.86481304,1.67241667 L1.48276957,1.67241667 C0.988552174,1.67241667 0.587073913,2.06558333 0.587073913,2.54975 L0.587073913,19.3975833 C0.587073913,19.88175 0.988552174,20.2749167 1.48276957,20.2749167 L7.51903043,20.2749167" id="Stroke-1"></path>
                <path d="M22.8179348,9.16043333 L22.8179348,4.93943333 C22.8179348,4.44826667 22.4164565,4.0481 21.9222391,4.0481 L19.7516739,4.0481" id="Stroke-3"></path>
                <path d="M22.8179348,7.5131 L0.587543478,7.5131" id="Stroke-5"></path>
                <polygon id="Stroke-7" points="20.4137609 7.5131 3.17602174 7.5131 2.56676087 3.9116 19.089587 0.5831"></polygon>
                <path d="M26.3785304,19.1128 C26.3785304,23.6079667 22.7124,27.2514667 18.189313,27.2514667 C13.6662261,27.2514667 9.99892174,23.6079667 9.99892174,19.1128 C9.99892174,14.6176333 13.6662261,10.9741333 18.189313,10.9741333 C22.7124,10.9741333 26.3785304,14.6176333 26.3785304,19.1128 Z" id="Stroke-9"></path>
                <polyline id="Stroke-11" points="22.5203478 19.1128 18.1886087 19.1128 18.1886087 12.9901333"></polyline>
            </g>
        </g>
    </g>
</svg>