<?xml version="1.0" encoding="UTF-8"?>
<svg width="42px" height="40px" viewBox="0 0 42 40" version="1.1" xmlns="http://www.w3.org/2000/svg" xmlns:xlink="http://www.w3.org/1999/xlink">
    <!-- Generator: Sketch 42 (36781) - http://www.bohemiancoding.com/sketch -->
    <title>Page 1</title>
    <desc>Created with Sketch.</desc>
    <defs></defs>
    <g id="-" stroke="none" stroke-width="1" fill="none" fill-rule="evenodd" stroke-linecap="round" stroke-linejoin="round">
        <g id="Campaign_02" transform="translate(-90.000000, -102.000000)" stroke="#000000" stroke-width="1.5">
            <g id="Page-1" transform="translate(91.000000, 103.000000)">
                <path d="M0.413455428,20.7104293 C0.257931645,20.660116 0.147841776,20.5230556 0.13386211,20.3617059 C0.121629902,20.2003563 0.205507898,20.0476814 0.35229439,19.9748139 L39.3573098,0.170450804 C39.495359,0.0993181818 39.6648625,0.116667602 39.788932,0.212089413 C39.9112541,0.309246165 39.9654253,0.468860831 39.9287287,0.621535728 L32.6855143,30.2699598 C32.6593024,30.3775262 32.589404,30.4677432 32.4950413,30.5232613 C32.4338803,30.5562252 32.3639819,30.5753096 32.2958311,30.5753096 C32.2556395,30.5753096 32.2171954,30.5683698 32.1787514,30.5579602 L0.413455428,20.7104293 Z" id="Stroke-1"></path>
                <path d="M17.1425722,25.7639684 L17.1478145,37.1555976 C17.1478145,37.3377666 17.1006332,37.4991162 17.2806214,37.5511644 C17.317318,37.5598391 17.2718841,37.5667789 17.3103282,37.5667789 C17.4501248,37.5667789 17.5392452,37.4956463 17.6178808,37.3759353 L24.1865763,28.1356341" id="Stroke-3"></path>
                <path d="M31.4304897,9.93852132 L17.1432712,25.7646624" id="Stroke-5"></path>
            </g>
        </g>
    </g>
</svg>