<?xml version="1.0" encoding="UTF-8"?>
<svg width="30px" height="30px" viewBox="0 0 30 30" version="1.1" xmlns="http://www.w3.org/2000/svg" xmlns:xlink="http://www.w3.org/1999/xlink">
    <!-- Generator: Sketch 42 (36781) - http://www.bohemiancoding.com/sketch -->
    <title>Edit_Black Copy 2</title>
    <desc>Created with Sketch.</desc>
    <defs></defs>
    <g id="Symbols" stroke="none" stroke-width="1" fill="none" fill-rule="evenodd" stroke-linecap="round" stroke-linejoin="round">
        <g id="Edit_Black-Copy-2" stroke-width="0.8" stroke="#202020">
            <g id="Page-1">
                <path d="M29.1726,5.4062 C29.1726,5.1922 29.0846,4.9862 28.9356,4.8342 L24.8376,0.7372 C24.6796,0.5792 24.4716,0.5002 24.2646,0.5002 C24.0566,0.5002 23.8496,0.5792 23.6926,0.7372 L8.4266,16.0032 C8.2376,16.1922 5.5756,22.8972 5.4756,23.1442 C5.3526,23.4452 5.4236,23.7892 5.6536,24.0182 C5.8816,24.2472 6.2256,24.3192 6.5286,24.1972 C6.7646,24.1012 13.4896,21.4272 13.6676,21.2442 C13.7786,21.1332 28.8246,6.0882 28.9356,5.9782 C29.0856,5.8272 29.1726,5.6222 29.1726,5.4062 Z" id="Stroke-1"></path>
                <path d="M25.4307,5.7095 L11.7717,19.3525" id="Stroke-3"></path>
                <path d="M8.4264,16.0035 L13.6674,21.2445" id="Stroke-5"></path>
                <path d="M5.9604,21.9434 L7.7344,23.7174" id="Stroke-7"></path>
                <path d="M22.4442,16.2435 L22.4442,27.2155 C22.4442,28.2925 22.1162,29.0445 21.0382,29.0445 L2.3292,29.0445 C1.2512,29.0445 0.5002,28.2925 0.5002,27.2155 L0.5002,8.6325 C0.5002,7.4905 1.3132,7.1005 2.4552,7.1005 L13.3012,7.1005" id="Stroke-9"></path>
            </g>
        </g>
    </g>
</svg>