<?xml version="1.0" encoding="UTF-8"?>
<svg width="31px" height="30px" viewBox="0 0 31 30" version="1.1" xmlns="http://www.w3.org/2000/svg" xmlns:xlink="http://www.w3.org/1999/xlink">
    <!-- Generator: Sketch 42 (36781) - http://www.bohemiancoding.com/sketch -->
    <title>Home_Icon</title>
    <desc>Created with Sketch.</desc>
    <defs></defs>
    <g id="Symbols" stroke="none" stroke-width="1" fill="none" fill-rule="evenodd" stroke-linecap="round" stroke-linejoin="round">
        <g id="Home_Icon" stroke="#000000">
            <path d="M29.4397537,12.9214162 C30.106734,13.5166204 30.1904235,14.570982 29.6248851,15.2747619 C29.0606148,15.9785418 27.5364507,15.285227 27.5364507,15.285227 L27.5364507,28.5602421 C27.5364507,29.1358242 27.0939106,29.6028305 26.5473926,29.6028305 L18.7782138,29.6028305 L18.7782138,18.1435152 L12.2212653,18.1435152 L12.2212653,29.6028305 L4.45335454,29.6028305 C3.9068365,29.6028305 3.46429636,29.1358242 3.46429636,28.5602421 L3.46429636,15.285227 C3.46429636,15.285227 1.93886433,15.9785418 1.37459396,15.2747619 C0.810323592,14.570982 0.892745107,13.5166204 1.55972536,12.9214162 L14.4567904,1.39538562 C15.0476892,0.868204792 15.9124811,0.868204792 16.50338,1.39538562 L29.4397537,12.9214162 Z" id="Page-1"></path>
        </g>
    </g>
</svg>