<svg id="Layer_3" data-name="Layer 3" xmlns="http://www.w3.org/2000/svg" viewBox="0 0 65 65"><defs><style>.cls-1,.cls-2,.cls-4{fill:none;fill-rule:evenodd;}.cls-1,.cls-5{stroke:#272d37;}.cls-1,.cls-2,.cls-4,.cls-5{stroke-miterlimit:10;stroke-width:1.5px;}.cls-2,.cls-4{stroke:#48dad0;}.cls-2{stroke-linecap:square;}.cls-3,.cls-5{fill:#48dad0;}</style></defs><title>Artboard 1 copy 5</title><polyline class="cls-1" points="60.03 28.8 60.03 50.47 42.63 56.33"/><polyline class="cls-1" points="35 6 43 4 60.03 8 60.03 29.34 42.63 35.2"/><path class="cls-1" d="M25.64,40.87,8.17,35a.11.11,0,0,0-.14.1V56l17.61,6L42,56.47V13L60,8"/><polyline class="cls-1" points="25.64 60.87 25.64 40.87 42.63 35.2"/><polygon class="cls-2" points="5 9.65 18.98 5 33.86 9.65 33.86 27.32 18.93 32.87 5.03 28.25 5 9.65"/><rect class="cls-3" x="18.25" y="14.88" width="1.5" height="4.13"/><polyline class="cls-4" points="13 12.87 19 14.87 25 12.87"/><rect class="cls-3" x="18.25" y="21" width="1.5" height="3"/><rect class="cls-3" x="18.25" y="26" width="1.5" height="3"/><line class="cls-5" x1="42" y1="35" x2="35" y2="33"/><line class="cls-5" x1="42.03" y1="13" x2="37" y2="12"/><line class="cls-5" x1="8.03" y1="35" x2="12" y2="34"/></svg>