<?xml version="1.0" encoding="UTF-8"?>
<svg width="18px" height="20px" viewBox="0 0 18 20" version="1.1" xmlns="http://www.w3.org/2000/svg" xmlns:xlink="http://www.w3.org/1999/xlink">
    <!-- Generator: Sketch 46.2 (44496) - http://www.bohemiancoding.com/sketch -->
    <title>Safe Copy 4</title>
    <desc>Created with Sketch.</desc>
    <defs></defs>
    <g id="Templates" stroke="none" stroke-width="1" fill="none" fill-rule="evenodd">
        <g id="Package-list-view" transform="translate(-549.000000, -168.000000)" stroke="#9FA2A6">
            <g id="List" transform="translate(30.000000, 88.000000)">
                <g id="Runining-campaigns" transform="translate(0.000000, 60.000000)">
                    <g id="Lock-Icon-default" transform="translate(515.000000, 18.000000)">
                        <g id="Page-1" transform="translate(5.000000, 3.000000)">
                            <path d="M14.5273081,18.1621622 L1.47303784,18.1621622 L0.0425513514,8.88475676 C-0.168043243,8.09772973 0.429145946,7.35135135 1.27844324,7.35135135 L14.7214703,7.35135135 C15.5707676,7.35135135 16.1683892,8.09772973 15.9573622,8.88475676 L14.5273081,18.1621622 Z" id="Stroke-1" stroke-width="1.5"></path>
                            <path d="M12.1079784,6.92441081 L12.1079784,4.18365405 C12.1079784,1.87273514 10.2688432,-0.00012972973 7.99987027,-0.00012972973 C5.73132973,-0.00012972973 3.89176216,1.87273514 3.89176216,4.18365405 L3.89176216,6.92441081" id="Stroke-3" stroke-width="1.5"></path>
                            <path d="M9.08095135,14.7027027 L9.08095135,11.660973 C9.08095135,10.9526486 8.59705946,10.3783784 7.99987027,10.3783784 C7.40268108,10.3783784 6.91878919,10.9526486 6.91878919,11.660973 L6.91878919,14.7027027 L9.08095135,14.7027027 Z" id="Stroke-5" stroke-width="1.5"></path>
                        </g>
                    </g>
                </g>
            </g>
        </g>
    </g>
</svg>