<?xml version="1.0" encoding="UTF-8"?>
<svg width="31px" height="28px" viewBox="0 0 31 28" version="1.1" xmlns="http://www.w3.org/2000/svg" xmlns:xlink="http://www.w3.org/1999/xlink">
    <!-- Generator: Sketch 42 (36781) - http://www.bohemiancoding.com/sketch -->
    <title>Home_Icon Copy</title>
    <desc>Created with Sketch.</desc>
    <defs></defs>
    <g id="Symbols" stroke="none" stroke-width="1" fill="none" fill-rule="evenodd" stroke-linecap="round" stroke-linejoin="round">
        <g id="Home_Icon-Copy" stroke="#000000">
            <g id="Page-1">
                <path d="M4.18047917,18.0255091 C4.18047917,18.0255091 1.8038125,16.2500545 1.8038125,13.2502364 C1.8038125,11.0827818 3.64314583,9.44223636 5.68010417,9.44223636 L7.35797917,9.44223636 C9.25285417,9.44223636 10.7886458,7.93278182 10.7886458,6.07205455 C10.7886458,4.21132727 9.25285417,2.70187273 7.35797917,2.70187273 L5.92164583,2.70187273" id="Stroke-1"></path>
                <path d="M1.22617917,3.8528 L2.99059583,3.8528" id="Stroke-3"></path>
                <path d="M1.22630833,1.5666 L2.990725,1.5666" id="Stroke-5"></path>
                <path d="M3.84865,4.76750909 C4.99306667,4.76750909 5.921775,3.84223636 5.921775,2.70187273 C5.921775,1.56150909 4.99306667,0.636236364 3.84865,0.636236364 L2.99098333,0.636236364 L2.99098333,4.76750909 L3.84865,4.76750909 Z" id="Stroke-7"></path>
                <path d="M12.123325,24.7607818 L18.5196583,24.7607818" id="Stroke-9"></path>
                <path d="M9.4189625,24.7607818 C9.4189625,26.1302364 8.29262917,27.2400545 6.90279583,27.2400545 C5.5129625,27.2400545 4.38662917,26.1302364 4.38662917,24.7607818 C4.38662917,23.3913273 5.5129625,22.2815091 6.90279583,22.2815091 C8.29262917,22.2815091 9.4189625,23.3913273 9.4189625,24.7607818 Z" id="Stroke-11"></path>
                <path d="M26.1951292,24.7607818 C26.1951292,26.1302364 25.0687958,27.2400545 23.6789625,27.2400545 C22.2891292,27.2400545 21.1627958,26.1302364 21.1627958,24.7607818 C21.1627958,23.3913273 22.2891292,22.2815091 23.6789625,22.2815091 C25.0687958,22.2815091 26.1951292,23.3913273 26.1951292,24.7607818 Z" id="Stroke-13"></path>
                <path d="M28.8002917,24.7607818 L29.9201667,24.7607818 C29.8090833,18.3971455 24.656625,18.1947818 22.9425833,18.3042364 C22.6351667,18.3246 22.3561667,18.1247818 22.2799583,17.8320545 C21.8769583,16.2933273 20.2016667,12.0487818 14.1825,12.0793273 C14.0287917,12.0793273 12.648,12.0793273 12.4981667,12.0831455 C5.30616667,12.2918727 4.33741667,16.4702364 4.21341667,17.9020545 C4.19016667,18.1820545 3.971875,18.3818727 3.69675,18.4582364 C0.516666667,19.3376909 0.647125,24.7607818 0.647125,24.7607818 L1.55,24.7607818" id="Stroke-15"></path>
            </g>
        </g>
    </g>
</svg>