<?xml version="1.0" encoding="UTF-8"?>
<svg width="24px" height="24px" viewBox="0 0 24 24" version="1.1" xmlns="http://www.w3.org/2000/svg" xmlns:xlink="http://www.w3.org/1999/xlink">
    <!-- Generator: Sketch 57.1 (83088) - https://sketch.com -->
    <title>appswitcher-solid-inactive-24</title>
    <desc>Created with Sketch.</desc>
    <g id="appswitcher-solid-inactive-24" stroke="none" stroke-width="1" fill="none" fill-rule="evenodd" fill-opacity="0.9" opacity="0.6">
        <g id="lui-icon-pd-appswitcher-solid-24" transform="translate(3.000000, 3.000000)" fill="#FFFFFF">
            <path d="M4,14 L4,18 L0,18 L0,14 L4,14 Z M18,14 L18,18 L14,18 L14,14 L18,14 Z M11,14 L11,18 L7,18 L7,14 L11,14 Z M18,7 L18,11 L14,11 L14,7 L18,7 Z M11,7 L11,11 L7,11 L7,7 L11,7 Z M4,7 L4,11 L0,11 L0,7 L4,7 Z M4,0 L4,4 L0,4 L0,0 L4,0 Z M18,0 L18,4 L14,4 L14,0 L18,0 Z M11,0 L11,4 L7,4 L7,0 L11,0 Z" id="Combined-Shape"></path>
        </g>
    </g>
</svg>