<?xml version="1.0" encoding="UTF-8"?>
<svg width="24px" height="24px" viewBox="0 0 24 24" version="1.1" xmlns="http://www.w3.org/2000/svg" xmlns:xlink="http://www.w3.org/1999/xlink">
    <!-- Generator: Sketch 57.1 (83088) - https://sketch.com -->
    <title>campaigns-active-solid-24</title>
    <desc>Created with Sketch.</desc>
    <g id="campaigns-active-solid-24" stroke="none" stroke-width="1" fill="none" fill-rule="evenodd">
        <g id="LUI-icon-pd-distribute-solid-24">
            <rect id="Rectangle" transform="translate(12.000000, 12.000000) rotate(-90.000000) translate(-12.000000, -12.000000) " x="0" y="0" width="24" height="24"></rect>
            <path d="M16,6 L12,10 L8,6 L9.24,4.76 L11,6.5 L11,2 L13,2 L13,6.5 L14.76,4.76 L16,6 Z M6,18 L2,18 L2,22 L6,22 L6,18 Z M14,18 L10,18 L10,22 L14,22 L14,18 Z M22,18 L18,18 L18,22 L22,22 L22,18 Z M20,12 L4,12 C2.8954305,12 2,12.8954305 2,14 L2,16 L4,16 L4,14 L11,14 L11,16 L13,16 L13,14 L20,14 L20,16 L22,16 L22,14 C22,12.8954305 21.1045695,12 20,12 Z" id="Shape" fill-opacity="0.8" fill="#fff" fill-rule="nonzero"></path>
        </g>
    </g>
</svg>