<?xml version="1.0" encoding="UTF-8"?>
<svg width="20px" height="20px" viewBox="0 0 20 20" version="1.1" xmlns="http://www.w3.org/2000/svg" xmlns:xlink="http://www.w3.org/1999/xlink">
    <!-- Generator: Sketch 62 (91390) - https://sketch.com -->
    <title>Icons 24 / Core UI / checkbox / checkbox-blank-outline</title>
    <desc>Created with Sketch.</desc>
    <g id="Environment" stroke="none" stroke-width="1" fill="none" fill-rule="evenodd">
        <g id="Environment-manager" transform="translate(-1199.000000, -346.000000)" fill="#2DD5C9">
            <g id="Group-7" transform="translate(361.000000, 256.000000)">
                <g id="Icons-24-/-Core-UI-/-checkbox-/-checkbox-multiple-marked" transform="translate(836.000000, 88.000000)">
                    <path d="M22,16 C22,17.1045695 21.1045695,18 20,18 L8,18 C6.89,18 6,17.1 6,16 L6,4 C6,2.89 6.89,2 8,2 L20,2 C21.1045695,2 22,2.8954305 22,4 L22,16 L22,16 Z M16,20 L16,22 L4,22 C2.8954305,22 2,21.1045695 2,20 L2,7 L4,7 L4,20 L16,20 L16,20 Z M13,14 L20,7 L18.59,5.59 L13,11.17 L9.91,8.09 L8.5,9.5 L13,14 Z" id="Shape"></path>
                </g>
            </g>
        </g>
    </g>
</svg>