<?xml version="1.0" encoding="UTF-8"?>
<svg width="32px" height="32px" viewBox="0 0 32 32" version="1.1" xmlns="http://www.w3.org/2000/svg" xmlns:xlink="http://www.w3.org/1999/xlink">
    <!-- Generator: sketchtool 62 (101010) - https://sketch.com -->
    <title>5E230C14-BB19-4885-B566-1E47BAC78EC5mdpi/</title>
    <desc>Created with sketchtool.</desc>
    <g id="Overview" stroke="none" stroke-width="1" fill="none" fill-rule="evenodd" fill-opacity="0.4">
        <g id="Device-details-empty" transform="translate(-754.000000, -415.000000)" fill="#0F1621">
            <g id="Icons/custom_device_fields" transform="translate(754.000000, 415.000000)">
                <path d="M30,8.8817842e-16 C31.1045695,6.85272294e-16 32,0.8954305 32,2 L32,3.00813907 L-1.04227738e-12,3 L0.00233459473,6.00782325 L3,8.6734314 L3,29 L12.9888198,29 L12.9888198,32 L16.0040271,32 L18.6630115,29 L29,29 L29,8.6734314 L32,6.011 L32,30 C32,31.1045695 31.1045695,32 30,32 L2,32 C0.8954305,32 -1.21267236e-12,31.1045695 -1.21280763e-12,30 L-1.21280763e-12,2 C-1.2129429e-12,0.8954305 0.8954305,1.09108455e-15 2,8.8817842e-16 L30,8.8817842e-16 Z M22.8933333,8 L16,14.8933333 L9.10666667,8 L22.8933333,8 L22.8933333,8 Z M29.3333333,5.33333333 L2.66666667,5.33333333 L14.6666667,17.3333333 L14.6666667,29.3333333 L17.3333333,26.6666667 L17.3333333,17.3333333 L29.3333333,5.33333333 Z" id="---↳-🌈-Color"></path>
            </g>
        </g>
    </g>
</svg>