<?xml version="1.0" encoding="UTF-8"?>
<svg width="24px" height="24px" viewBox="0 0 24 24" version="1.1" xmlns="http://www.w3.org/2000/svg" xmlns:xlink="http://www.w3.org/1999/xlink">
    <!-- Generator: Sketch 57.1 (83088) - https://sketch.com -->
    <title>devices-active-outline-24</title>
    <desc>Created with Sketch.</desc>
    <g id="devices-active-outline-24" stroke="none" stroke-width="1" fill="none" fill-rule="evenodd">
        <g id="LUI-icon-pd-device_connected-outline-24">
            <rect id="Rectangle" x="0" y="0" width="24" height="24"></rect>
            <path d="M20,14 L20,20 L4,20 L4,14 L20,14 L20,14 Z M22,12 L2,12 L2,20 C2,21.1045695 2.8954305,22 4,22 L20,22 C21.1045695,22 22,21.1045695 22,20 L22,12 Z M18,18 L10,18 L10,16 L18,16 L18,18 Z M7,18 C6.44771525,18 6,17.5522847 6,17 C6,16.4477153 6.44771525,16 7,16 C7.55228475,16 8,16.4477153 8,17 C8,17.5522847 7.55228475,18 7,18 Z M16.71,8.29 L15.28,9.72 C14.5318351,8.64813704 13.3071499,8.00945408 12,8.00945408 C10.6928501,8.00945408 9.46816495,8.64813704 8.72,9.72 L7.29,8.29 C8.42781459,6.84820733 10.1633214,6.00697458 12,6.00697458 C13.8366786,6.00697458 15.5721854,6.84820733 16.71,8.29 Z M19.55,5.45 L18.13,6.87 C16.6099769,5.05732993 14.3656379,4.01034046 12,4.01034046 C9.63436206,4.01034046 7.39002305,5.05732993 5.87,6.87 L4.45,5.45 C6.34930424,3.26314551 9.10350398,2.0072479 12,2.0072479 C14.896496,2.0072479 17.6506958,3.26314551 19.55,5.45 L19.55,5.45 Z" id="Shape" fill-opacity="0.8" fill="#2DD5C9" fill-rule="nonzero"></path>
        </g>
    </g>
</svg>
