<?xml version="1.0" encoding="UTF-8"?>
<svg width="24px" height="24px" viewBox="0 0 24 24" version="1.1" xmlns="http://www.w3.org/2000/svg" xmlns:xlink="http://www.w3.org/1999/xlink">
    <!-- Generator: Sketch 57.1 (83088) - https://sketch.com -->
    <title>help-solid-inactive-24</title>
    <desc>Created with Sketch.</desc>
    <g id="help-solid-inactive-24" stroke="none" stroke-width="1" fill="none" fill-rule="evenodd">
        <g id="LUI-icon-pd-help-solid-24">
            <rect id="Rectangle" x="0" y="0" width="24" height="24"></rect>
            <path d="M12,2 C6.4771525,2 2,6.4771525 2,12 C2,17.5228475 6.4771525,22 12,22 C17.5228475,22 22,17.5228475 22,12 C22,9.3478351 20.9464316,6.80429597 19.0710678,4.92893219 C17.195704,3.0535684 14.6521649,2 12,2 Z M13,18 L11,18 L11,16 L13,16 L13,18 Z M15.66,10.24 C15.5720492,10.4771971 15.4544492,10.702317 15.31,10.91 C15.1659179,11.1097425 15.0053565,11.2970641 14.83,11.47 C14.65,11.63 14.48,11.77 14.31,11.9 C14.1381047,12.0041893 13.9743073,12.1211874 13.82,12.25 C13.6652847,12.3781828 13.5245075,12.5223119 13.4,12.68 C13.2764913,12.8566669 13.1756999,13.0481706 13.1,13.25 C13.0272203,13.4931399 12.9934676,13.7462851 13,14 L11,14 C10.9939468,13.6638962 11.0275115,13.3282496 11.1,13 C11.1650831,12.7246991 11.2659408,12.4591074 11.4,12.21 C11.5330437,11.9720777 11.6978942,11.7533986 11.89,11.56 C12.1055705,11.3414821 12.3325546,11.1345261 12.57,10.94 C12.81,10.75 13.04,10.53 13.28,10.3 C13.5013018,10.0886709 13.6265015,9.7959975 13.6265015,9.49 C13.6265015,9.1840025 13.5013018,8.89132913 13.28,8.68 C13.0069456,8.43321931 12.6476953,8.30388919 12.28,8.32 C11.8228905,8.31812912 11.3713981,8.42074103 10.96,8.62 C10.5432774,8.81656757 10.1615591,9.0800545 9.83,9.4 L8.83,8.11 C9.00275625,7.9095982 9.19355806,7.72549119 9.4,7.56 C9.93187621,7.14836514 10.5455813,6.85515051 11.2,6.7 C11.5916337,6.59729371 11.995135,6.54685605 12.4,6.55 C12.9450422,6.53371043 13.4881602,6.6219671 14,6.81 C14.3983531,6.96205797 14.7597162,7.19728491 15.06,7.5 C15.3179282,7.76674663 15.5127131,8.08797091 15.63,8.44 C15.7413646,8.76169316 15.798805,9.099578 15.8,9.44 C15.8029236,9.71300676 15.7554629,9.98421087 15.66,10.24 Z" id="---↳-🌈-Color" fill-opacity="0.6" fill="#FFFFFF"></path>
        </g>
    </g>
</svg>