<?xml version="1.0" encoding="UTF-8"?>
<svg width="14px" height="14px" viewBox="0 0 14 14" version="1.1" xmlns="http://www.w3.org/2000/svg" xmlns:xlink="http://www.w3.org/1999/xlink">
    <!-- Generator: Sketch 62 (91390) - https://sketch.com -->
    <title>Icons 24 / Core UI / information / outline</title>
    <desc>Created with Sketch.</desc>
    <g id="Overview" stroke="none" stroke-width="1" fill="none" fill-rule="evenodd">
        <g id="Search-panel-default" transform="translate(-1232.000000, -323.000000)">
            <g id="Group-5" transform="translate(352.000000, 81.000000)">
                <g id="Group-11" transform="translate(27.000000, 67.000000)">
                    <g id="Group-9" transform="translate(1.000000, 0.000000)">
                        <g id="Group-6" transform="translate(0.000000, 170.000000)">
                            <g id="Icons-24-/-Core-UI-/-help-/-outline" transform="translate(851.000000, 4.000000)">
                                <g id="LUI-icon-pd-help-outline-24">
                                    <rect id="Rectangle" x="0" y="0" width="16" height="16"></rect>
                                    <path d="M7.33333333,12 L8.66666667,12 L8.66666667,10.6666667 L7.33333333,10.6666667 L7.33333333,12 Z M10.0333333,5 C9.83508411,4.79897685 9.59651961,4.64220589 9.33333333,4.54 C8.98628427,4.40982574 8.61715321,4.34868133 8.24666667,4.36 C7.97675669,4.35790403 7.70775579,4.39152914 7.44666667,4.46 C7.01038751,4.56343367 6.60125081,4.75891009 6.24666667,5.03333333 C6.10903871,5.14366079 5.9818375,5.2663988 5.86666667,5.4 L6.53333333,6.26 C6.75437274,6.046703 7.00885158,5.87104505 7.28666667,5.74 C7.56093209,5.60716069 7.86192702,5.53875275 8.16666667,5.54 C8.41179688,5.52925946 8.65129708,5.61547954 8.83333333,5.78 C8.98086784,5.92088609 9.0643343,6.11600166 9.0643343,6.32 C9.0643343,6.52399834 8.98086784,6.71911391 8.83333333,6.86 C8.67333333,7.01333333 8.52,7.16 8.36,7.28666667 C8.20170307,7.4163507 8.05038034,7.55432143 7.90666667,7.7 C7.77859612,7.82893237 7.66869582,7.97471848 7.58,8.13333333 C7.49062717,8.29940494 7.42338876,8.47646609 7.38,8.66 C7.33167434,8.87883307 7.30929789,9.10259749 7.31333333,9.32666667 L8.64666667,9.32666667 C8.64517283,9.15939988 8.66991785,8.99293342 8.72,8.83333333 C8.7704666,8.69878041 8.8376609,8.57111126 8.92,8.45333333 C9.00300497,8.34820795 9.0968565,8.25212186 9.2,8.16666667 C9.30287154,8.08079162 9.41206977,8.00279289 9.52666667,7.93333333 C9.64,7.84666667 9.75333333,7.75333333 9.87333333,7.64666667 C9.99023766,7.53137609 10.0972786,7.406495 10.1933333,7.27333333 C10.2896328,7.13487801 10.3680328,6.98479805 10.4266667,6.82666667 C10.4856597,6.66202049 10.5150024,6.48822115 10.5133333,6.31333333 C10.5125367,6.08638533 10.4742431,5.86112878 10.4,5.64666667 C10.3284506,5.40607228 10.2030592,5.18492731 10.0333333,5 L10.0333333,5 Z M8,1.33333333 C4.31810167,1.33333333 1.33333333,4.31810167 1.33333333,8 C1.33333333,11.6818983 4.31810167,14.6666667 8,14.6666667 C11.6818983,14.6666667 14.6666667,11.6818983 14.6666667,8 C14.6666667,6.23189007 13.9642877,4.53619732 12.7140452,3.28595479 C11.4638027,2.03571227 9.76810993,1.33333333 8,1.33333333 Z M8,13.3333333 C5.05448133,13.3333333 2.66666667,10.9455187 2.66666667,8 C2.66666667,5.05448133 5.05448133,2.66666667 8,2.66666667 C10.9455187,2.66666667 13.3333333,5.05448133 13.3333333,8 C13.3333333,9.41448795 12.7714302,10.7710421 11.7712362,11.7712362 C10.7710421,12.7714302 9.41448795,13.3333333 8,13.3333333 Z" id="---↳-🌈-Color" fill="#9FA2A6"></path>
                                </g>
                            </g>
                        </g>
                    </g>
                </g>
            </g>
        </g>
    </g>
</svg>