<svg xmlns="http://www.w3.org/2000/svg" width="40" height="40" viewBox="0 0 40 40">
  <g fill="none" fill-rule="evenodd" transform="translate(-4 -4)">
    <rect width="48" height="48"/>
    <path fill="#0F1621" fill-opacity=".9" d="M39.9999999,7.99999993 L39.9999999,39.9999999 L7.99999993,39.9999999 L7.99999993,7.99999993 L39.9999999,7.99999993 M23.9999999,37.9999999 C31.7319865,37.9999999 37.9999999,31.7319865 37.9999999,23.9999999 C37.9999999,16.2680135 31.7319865,9.99999994 23.9999999,9.99999994 C16.2680135,9.99999994 9.99999994,16.2680135 9.99999994,23.9999999 C9.99999994,31.7319865 16.2680135,37.9999999 23.9999999,37.9999999 M39.9999999,3.99999992 L7.99999992,3.99999992 C5.79086092,3.99999992 3.99999992,5.79086092 3.99999992,7.99999992 L3.99999992,39.9999999 C3.99999992,42.2091391 5.79086092,43.9999999 7.99999992,43.9999999 L39.9999999,43.9999999 C42.2091391,43.9999999 43.9999999,42.2091391 43.9999999,39.9999999 L43.9999999,7.99999992 C43.9999999,5.79086092 42.2091391,3.99999992 39.9999999,3.99999992 Z M24,34 C18.4771525,34 14,29.5228475 14,24 C14,18.4771525 18.4771525,14 24,14 C29.5228475,14 34,18.4771525 34,24 C34,29.5228475 29.5228475,34 24,34 L24,34 Z"/>
  </g>
</svg>
