<?xml version="1.0" encoding="UTF-8"?>
<svg width="24px" height="24px" viewBox="0 0 24 24" version="1.1" xmlns="http://www.w3.org/2000/svg" xmlns:xlink="http://www.w3.org/1999/xlink">
    <!-- Generator: sketchtool 55.2 (78181) - https://sketchapp.com -->
    <title>752C9B96-EA53-4D5C-8970-C70B285862B8</title>
    <desc>Created with sketchtool.</desc>
    <g id="Asset-Artboard-Page" stroke="none" stroke-width="1" fill="none" fill-rule="evenodd">
        <g id="Icon">
            <rect id="LUI-icon-pd-confirm-outline-24" x="-7.46069873e-14" y="-5.00000858e-08" width="24.0000001" height="24.0000001"></rect>
            <path d="M11.52,15.78 C11.131,16.172 10.498,16.175 10.106,15.786 L10.1,15.78 L7,12.68 L8.41,11.27 L10.81,13.66 L16.47,8 L17.88,9.42 L11.52,15.78 Z M12,2 C6.477,2 2,6.477 2,12 C2,17.522 6.477,22 12,22 C17.522,22 22,17.522 22,12 C22,6.477 17.522,2 12,2 L12,2 Z M12,4 C16.418,4 20,7.581 20,12 C20,16.418 16.418,20 12,20 C7.582,20 4,16.418 4,12 C4,7.581 7.582,4 12,4 L12,4 Z" id="---↳-🌈-Color" fill-opacity="0.8" fill="#000A19"></path>
        </g>
    </g>
</svg>