<?xml version="1.0" encoding="UTF-8"?>
<svg width="24px" height="24px" viewBox="0 0 24 24" version="1.1" xmlns="http://www.w3.org/2000/svg" xmlns:xlink="http://www.w3.org/1999/xlink">
    <!-- Generator: sketchtool 61 (101010) - https://sketch.com -->
    <title>E3B0FAD8-FD90-4D50-96CB-A7916D2261B9</title>
    <desc>Created with sketchtool.</desc>
    <g id="Asset-Artboard-Page" stroke="none" stroke-width="1" fill="none" fill-rule="evenodd">
        <g id="Icons/LUI-icon-pd-substract-outline-24">
            <g id="LUI-icon-pd-substract-outline-24" transform="translate(-0.000000, -0.000000)">
                <rect id="Rectangle" x="-1.77635684e-14" y="-7.46069873e-14" width="24.0000001" height="24.0000001"></rect>
                <path d="M12.0000001,20 C7.58200005,20 4.00000005,16.418 4.00000005,12 C4.00000005,7.58200005 7.58200005,4.00000005 12.0000001,4.00000005 C16.4180001,4.00000005 20.0000001,7.58200005 20.0000001,12 C20.0000001,16.418 16.4180001,20 12.0000001,20 L12.0000001,20 Z M12.0000001,2.00000005 C6.47700005,2.00000005 2.00000005,6.47700005 2.00000005,12 C2.00000005,17.522 6.47700005,22 12.0000001,22 C17.5220001,22 22.0000001,17.522 22.0000001,12 C22.0000001,6.47700005 17.5220001,2.00000005 12.0000001,2.00000005 L12.0000001,2.00000005 Z M7.00000005,13 L17.0000001,13 L17.0000001,11 L7.00000005,11 L7.00000005,13 Z" id="Shape" fill="#6F737A"></path>
            </g>
        </g>
    </g>
</svg>