<svg xmlns="http://www.w3.org/2000/svg" width="24" height="24" viewBox="0 0 24 24">
  <g fill="none" fill-rule="evenodd" opacity="0.3">
    <rect width="24" height="24"/>
    <path fill="#0F1621" fill-opacity=".8" fill-rule="nonzero" d="M6,16 L6,20 C6,21.1045695 6.8954305,22 8,22 L16,22 C17.1045695,22 18,21.1045695 18,20 L18,16 L6,16 Z M16,20 L8,20 L8,18 L16,18 L16,20 Z M11.22,6.05 C9.66792593,6.25533717 8.25758413,7.0591961 7.29,8.29 L8.72,9.72 C9.46606913,8.64455106 10.6911055,8.00215396 12,8 C12.3377349,7.99698528 12.6742616,8.04073375 13,8.13 L13,7.83 L11.22,6.05 Z M17.82,12.05 L15.82,14.05 L20,14.05 L20,17.05 C21.1045695,17.05 22,16.1545695 22,15.05 L22,12 L17.82,12.05 Z M8.59,3.41 L8,2.83 C6.63635945,3.42813398 5.42350858,4.32325209 4.45,5.45 L5.87,6.87 C6.83965479,5.70761152 8.11919687,4.84418069 9.56,4.38 L8.59,3.41 Z M2,12 L2,15 C2,16.1045695 2.8954305,17 4,17 L4,14 L11,14 L11,12 L2,12 Z M15,7 L10,2 L22,2 L17,7 L17,10 L15,12 L15,7 Z"/>
  </g>
</svg>
