<?xml version="1.0" encoding="utf-8"?>
<svg viewBox="0 0 24 24" xmlns="http://www.w3.org/2000/svg">
  <title>LUI-icon-pd-layers-outline-24</title>
  <g id="Layer_2" data-name="Layer 2" transform="matrix(-1, 0, 0, 1, 24, 0)">
    <g id="LUI-icon-pd-layers-outline-24">
      <g id="LUI-icon-pd-layers-outline-24-2" data-name="LUI-icon-pd-layers-outline-24">
        <rect width="24" height="24" fill="none"/>
        <path d="M18,17V3a1,1,0,0,0-1-1H3A1,1,0,0,0,2,3V17a1,1,0,0,0,1,1H17A1,1,0,0,0,18,17Zm-2-1H4V4H16Zm4-8V20H8v2H20a2,2,0,0,0,2-2V8Z" style="fill-opacity: 0.6;"/>
      </g>
    </g>
  </g>
</svg>