<?xml version="1.0" encoding="UTF-8"?>
<svg width="24px" height="24px" viewBox="0 0 24 24" version="1.1" xmlns="http://www.w3.org/2000/svg" xmlns:xlink="http://www.w3.org/1999/xlink">
    <!-- Generator: Sketch 57.1 (83088) - https://sketch.com -->
    <title>Icons 24 / Others / people / outline</title>
    <desc>Created with Sketch.</desc>
    <g id="Icons-24-/-Others-/-people-/-outline" stroke="none" stroke-width="1" fill="none" fill-rule="evenodd">
        <g id="LUI-icon-pd-people-outline-24">
            <rect id="Rectangle" x="0" y="0" width="24" height="24"></rect>
            <path d="M17,14.5 L17,22 L15,22 L15,14.5 C15,13.947 14.553,13.5 14,13.5 L10,13.5 C9.448,13.5 9,13.947 9,14.5 L9,22 L7,22 L7,14.5 C7,12.843 8.343,11.5 10,11.5 L14,11.5 C15.657,11.5 17,12.843 17,14.5 L17,14.5 Z M22,11 C22,9.343 20.657,8 19,8 L17,8 L17,10 L19,10 C19.553,10 20,10.448 20,11 L20,18 L22,18 L22,11 Z M4,11 C4,10.448 4.448,10 5,10 L7,10 L7,8 L5,8 C3.343,8 2,9.343 2,11 L2,18 L4,18 L4,11 Z M8,4 C8,2.896 7.104,2 6,2 C4.896,2 4,2.896 4,4 L4,5 C4,6.104 4.896,7 6,7 C7.104,7 8,6.104 8,5 L8,4 Z M20,4 C20,2.896 19.104,2 18,2 C16.896,2 16,2.896 16,4 L16,5 C16,6.104 16.896,7 18,7 C19.104,7 20,6.104 20,5 L20,4 Z M14,8 C14,9.104 13.104,10 12,10 C10.896,10 10,9.104 10,8 L10,7 C10,5.896 10.896,5 12,5 C13.104,5 14,5.896 14,7 L14,8 Z" id="---↳-🌈-Color" fill-opacity="0.9" fill="#0F1621"></path>
        </g>
    </g>
</svg>