<?xml version="1.0" encoding="UTF-8"?>
<svg width="24px" height="24px" viewBox="0 0 24 24" version="1.1" xmlns="http://www.w3.org/2000/svg" xmlns:xlink="http://www.w3.org/1999/xlink">
    <!-- Generator: Sketch 57.1 (83088) - https://sketch.com -->
    <title>software-updates-inactive-outline-24</title>
    <desc>Created with Sketch.</desc>
    <g id="software-updates-inactive-outline-24" stroke="none" stroke-width="1" fill="none" fill-rule="evenodd" opacity="0.3">
        <g id="LUI-icon-pd-tuner-outline-24">
            <rect id="Rectangle" x="0" y="0" width="24" height="24"></rect>
            <path d="M2,4 L6,4 L6,2 L8,2 L8,8 L6,8 L6,6 L2,6 L2,4 Z M22,4 L10,4 L10,6 L22,6 L22,4 Z M22,18 L10,18 L10,20 L22,20 L22,18 Z M6,18 L2,18 L2,20 L6,20 L6,22 L8,22 L8,16 L6,16 L6,18 Z M22,11 L18,11 L18,9 L16,9 L16,15 L18,15 L18,13 L22,13 L22,11 Z M2,13 L14,13 L14,11 L2,11 L2,13 Z" id="Shape" fill-opacity="0.8" fill="#0F1621" fill-rule="nonzero"></path>
        </g>
    </g>
</svg>