<?xml version="1.0" encoding="UTF-8"?>
<svg width="24px" height="24px" viewBox="0 0 24 24" version="1.1" xmlns="http://www.w3.org/2000/svg" xmlns:xlink="http://www.w3.org/1999/xlink">
    <!-- Generator: sketchtool 55.2 (78181) - https://sketchapp.com -->
    <title>3DB4A6D9-4AE4-4558-9576-0D8FBA6CFD35</title>
    <desc>Created with sketchtool.</desc>
    <g id="Asset-Artboard-Page" stroke="none" stroke-width="1" fill="none" fill-rule="evenodd">
        <g id="Icons/icon-open-in-new-white-24x24">
            <rect id="Rectangle" transform="translate(12.000000, 12.000000) rotate(90.000000) translate(-12.000000, -12.000000) " x="4.9999926e-08" y="-1.13686838e-13" width="24" height="24"></rect>
            <path d="M2.00000005,15 L4.00000005,15 L4.00000005,20 L20,20 L20,15 L22,15 L22,20 C21.9637498,21.0892009 21.089201,21.9637498 20,22 L4.00000005,22 C2.91079915,21.9637498 2.03625026,21.0892009 2.00000005,20 L2.00000005,15 Z M8.24000005,8.24 L11,5.5 L11,15 L13,15 L13,5.5 L15.76,8.24 L17,7 L12,2 L7.00000005,7 L8.24000005,8.24 Z" id="---↳-🌈-Color" fill="#00B6B2"></path>
        </g>
    </g>
</svg>