<?xml version="1.0" encoding="UTF-8"?>
<svg width="24px" height="24px" viewBox="0 0 24 24" version="1.1" xmlns="http://www.w3.org/2000/svg" xmlns:xlink="http://www.w3.org/1999/xlink">
    <!-- Generator: Sketch 62 (91390) - https://sketch.com -->
    <title>Icons 24 / Outline / Core UI / attention_</title>
    <desc>Created with Sketch.</desc>
    <g id="Icons-24-/-Outline-/-Core-UI-/-attention_" stroke="none" stroke-width="1" fill="none" fill-rule="evenodd">
        <rect id="Rectangle" x="4.9999926e-08" y="-5.68434189e-14" width="24" height="24"></rect>
        <path d="M11,7 L13,7 L13,14 L11,14 L11,7 Z M11,16 L13,16 L13,18 L11,18 L11,16 Z M12,20 C16.418278,20 20,16.418278 20,12 C20,7.581722 16.418278,4 12,4 C7.58172205,4 4.00000005,7.581722 4.00000005,12 C4.00000005,16.418278 7.58172205,20 12,20 Z M12,2 C17.5228475,2 22,6.4771525 22,12 C22,17.5228475 17.5228475,22 12,22 C6.47715255,22 2.00000005,17.5228475 2.00000005,12 C2.00000005,6.4771525 6.47715255,2 12,2 Z" id="---↳-🌈-Color" fill-opacity="1.0" fill="#FFFFFF"></path>
    </g>
</svg>
