<?xml version="1.0" encoding="UTF-8"?>
<svg width="50px" height="50px" viewBox="0 0 50 50" version="1.1" xmlns="http://www.w3.org/2000/svg" xmlns:xlink="http://www.w3.org/1999/xlink">
    <!-- Generator: Sketch 46.2 (44496) - http://www.bohemiancoding.com/sketch -->
    <title>Car_Icon</title>
    <desc>Created with Sketch.</desc>
    <defs></defs>
    <g id="Symbols" stroke="none" stroke-width="1" fill="none" fill-rule="evenodd">
        <g id="Car_Icon">
            <g id="Icon">
                <path d="M4,0 L46,0 L46,0 C48.209139,-4.05812251e-16 50,1.790861 50,4 L50,46 L50,46 C50,48.209139 48.209139,50 46,50 L4,50 L4,50 C1.790861,50 2.705415e-16,48.209139 0,46 L0,4 L0,4 C-2.705415e-16,1.790861 1.790861,4.05812251e-16 4,0 Z" id="Combined-Shape" fill-opacity="0.3" fill="#0F1621"></path>
                <polygon id="Fill-1" fill="#48DAD0" points="24.9968043 26.1405217 17.0631087 24.8185652 17.2783261 23.5318261 24.9968043 24.8185652 32.7152826 23.5318261 32.9305 24.8185652"></polygon>
                <path d="M12.9545435,32.3043478 C12.3995435,32.3043478 11.9501957,31.8543478 11.9501957,31.3 L11.9501957,24.6021739 C11.9501957,24.4521739 11.9567174,24.373913 11.962587,24.3413043 C11.9762826,24.3282609 11.9893261,24.3021739 12.0212826,24.2695652 L17.9371522,17.5130435 L17.9567174,17.4869565 L17.9691087,17.4673913 C18.060413,17.3565217 18.1582391,17.3043478 18.2828043,17.3043478 L31.7045435,17.3043478 C31.8219348,17.3043478 31.9262826,17.3565217 31.9980217,17.4413043 L32.0169348,17.4673913 L32.0306304,17.4869565 L37.9849783,24.2891304 C37.9973696,24.3086957 38.0110652,24.3217391 38.0234565,24.3413043 C38.0306304,24.373913 38.0371522,24.4521739 38.0371522,24.6021739 L38.0371522,31.3 C38.0371522,31.8543478 37.5871522,32.3043478 37.0328043,32.3043478 L34.762587,32.3043478 L34.762587,30.3478261 L15.8697609,30.3478261 L15.8697609,32.3043478 L12.9545435,32.3043478 Z M31.7045435,16 L18.2828043,16 C17.767587,16 17.2908478,16.2282609 16.9523696,16.6521739 L13.365413,20.7543478 L13.365413,20.7347826 C13.1241087,21.0152174 12.7719348,21.1978261 12.3741087,21.1978261 L10.0001957,21.1978261 L10.0001957,22.5152174 L11.8197609,22.5152174 L11.0241087,23.4282609 C10.7567174,23.7543478 10.6458478,23.9565217 10.6458478,24.6021739 L10.6458478,31.3 C10.6458478,32.5717391 11.6828043,33.6086957 12.9545435,33.6086957 L17.1741087,33.6086957 L17.1741087,31.6521739 L33.4582391,31.6521739 L33.4582391,33.6086957 L37.0328043,33.6086957 C38.3045435,33.6086957 39.3415,32.5717391 39.3415,31.3 L39.3415,24.6021739 C39.3415,23.9565217 39.2306304,23.7543478 38.9821522,23.4478261 L38.1806304,22.5282609 L39.9936739,22.5282609 L39.9936739,21.2173913 L37.6132391,21.2173913 C37.2343261,21.2173913 36.8958478,21.0543478 36.6610652,20.7934783 L36.6219348,20.7543478 L33.015413,16.626087 C32.6958478,16.2282609 32.2197609,16 31.7045435,16 L31.7045435,16 Z" id="Fill-2" fill="#FFFFFF"></path>
            </g>
        </g>
    </g>
</svg>