<?xml version="1.0" encoding="UTF-8"?>
<svg width="14px" height="14px" viewBox="0 0 14 14" version="1.1" xmlns="http://www.w3.org/2000/svg" xmlns:xlink="http://www.w3.org/1999/xlink">
    <!-- Generator: Sketch 50.2 (55047) - http://www.bohemiancoding.com/sketch -->
    <title>Key Copy</title>
    <desc>Created with Sketch.</desc>
    <defs></defs>
    <g id="Key-Copy" stroke="none" stroke-width="1" fill="none" fill-rule="evenodd">
        <g id="Key-Icon" transform="translate(0.000000, 1.000000)">
            <path d="M6.79986285,7.71225856 L8.3768927,6.15977117 C9.5829582,6.69595117 11.0501366,6.48023356 12.0411003,5.50412551 C13.3196332,4.24548967 13.3196332,2.20381588 12.0411003,0.944613853 C10.7614171,-0.315154362 8.68804265,-0.314588174 7.40893456,0.944613853 C6.47836041,1.86013979 6.22817515,3.18898293 6.65147711,4.33041787 L0,10.8783816 L0.482541227,12 L2.3718713,11.9320574 L2.80149978,10.3427678 L4.64769447,9.98833417 L4.97839912,7.66922828 L6.79986285,7.71225856 Z" id="Page-1" stroke="#9B9DA2" fill="#9B9DA2" stroke-linecap="round" stroke-linejoin="round"></path>
            <path d="M11.7075217,2.70752167 C11.3168049,3.09749278 10.6837543,3.09749278 10.2930376,2.70752167 C9.90232081,2.31680492 9.90232081,1.68375431 10.2930376,1.29303756 C10.6837543,0.902320813 11.3168049,0.902320813 11.7075217,1.29303756 C12.0974928,1.68375431 12.0974928,2.31680492 11.7075217,2.70752167 Z" id="Path" fill="#FFFFFF"></path>
        </g>
    </g>
</svg>