<?xml version="1.0" encoding="UTF-8"?>
<svg width="14px" height="14px" viewBox="0 0 14 14" version="1.1" xmlns="http://www.w3.org/2000/svg" xmlns:xlink="http://www.w3.org/1999/xlink">
    <!-- Generator: Sketch 50.2 (55047) - http://www.bohemiancoding.com/sketch -->
    <title>Reset Icon</title>
    <desc>Created with Sketch.</desc>
    <defs></defs>
    <g id="Reset-Icon" stroke="none" stroke-width="1" fill="none" fill-rule="evenodd">
        <path d="M13.0142256,3.16403218 C12.8947071,3.11734525 12.7588481,3.17710451 12.7121612,3.2970899 L12.1724604,4.68695955 C11.284942,2.56737332 9.17282569,1.13268423 6.8268079,1.13268423 C4.28050321,1.13268423 2.00404893,2.84049181 1.29113964,5.28548588 C1.25519071,5.40967309 1.32568796,5.53899586 1.4494083,5.57541166 C1.57452925,5.61089372 1.70291829,5.5399296 1.73933409,5.41667613 C2.39435159,3.16916774 4.48639253,1.59955344 6.8268079,1.59955344 C9.01549077,1.59955344 10.9842782,2.95580851 11.7784228,4.95074065 L10.3493361,4.39563316 C10.2293507,4.34941311 10.0939587,4.40823863 10.0468049,4.52869089 C10.0001179,4.64914314 10.0598772,4.78406834 10.1798626,4.83075527 L12.0804872,5.56887549 C12.1080324,5.57961348 12.1365115,5.58474905 12.1649905,5.58474905 C12.1864665,5.58474905 12.2084093,5.58148096 12.2303522,5.57541166 C12.2485601,5.56980923 12.263033,5.55860437 12.2789066,5.54973385 C12.2859096,5.54553203 12.2933795,5.54366455 12.3003826,5.53852899 C12.3339971,5.51425179 12.3592081,5.48203782 12.3755485,5.44422141 C12.3769491,5.44095333 12.3811509,5.43955272 12.3825515,5.43581777 L13.1472833,3.46609656 C13.1939702,3.34611117 13.134211,3.2107191 13.0142256,3.16403218" id="Fill-1" stroke="#48DAD0" stroke-width="0.6"></path>
        <path d="M12.7135618,8.48812907 C12.5875071,8.45171327 12.4600518,8.52314426 12.4241029,8.6468646 C11.7686185,10.8939061 9.67657758,12.4635204 7.33662908,12.4635204 C5.14747934,12.4635204 3.17869187,11.1072654 2.38454734,9.11280007 L3.81410087,9.66790757 C3.93315252,9.71366075 4.06901146,9.6553021 4.11616525,9.53484984 C4.16285217,9.41439759 4.10355978,9.27900551 3.98310752,9.23231859 L2.08294983,8.49466524 C2.07407931,8.49093028 2.0652088,8.49233089 2.05680515,8.48999654 C2.0409316,8.48579472 2.02505804,8.48252664 2.00825075,8.4815929 C1.9923772,8.48112603 1.97697052,8.48299351 1.96156383,8.48579472 C1.95175958,8.48719533 1.94242219,8.48532785 1.93308481,8.48812907 C1.92794925,8.48952967 1.92468116,8.49326463 1.9195456,8.4951321 C1.90413892,8.50073454 1.89106658,8.50867131 1.8770605,8.51754183 C1.8649219,8.52501173 1.8527833,8.53201477 1.84204531,8.54135216 C1.83130732,8.55115641 1.82290367,8.56329501 1.81403316,8.57543361 C1.80469578,8.58803908 1.79582526,8.60017768 1.78928909,8.61465062 C1.78695475,8.61931932 1.78275292,8.6225874 1.78088545,8.62772296 L1.01568681,10.5969773 C0.969466753,10.7169627 1.02875914,10.8523548 1.14874453,10.8995086 C1.17675668,10.9097797 1.20523571,10.9149152 1.23371473,10.9149152 C1.32708857,10.9149152 1.41532685,10.8584241 1.45127578,10.765984 L1.99097659,9.37658118 C2.8780281,11.4957005 4.99014442,12.9303896 7.33662908,12.9303896 C9.88293377,12.9303896 12.159388,11.222582 12.8722973,8.77758798 C12.9082463,8.65386764 12.8372821,8.524078 12.7135618,8.48812907" id="Fill-4" stroke="#48DAD0" stroke-width="0.6"></path>
    </g>
</svg>