<?xml version="1.0" encoding="UTF-8"?>
<svg width="14px" height="14px" viewBox="0 0 14 14" version="1.1" xmlns="http://www.w3.org/2000/svg" xmlns:xlink="http://www.w3.org/1999/xlink">
    <!-- Generator: Sketch 50.2 (55047) - http://www.bohemiancoding.com/sketch -->
    <title>Log out</title>
    <desc>Created with Sketch.</desc>
    <defs></defs>
    <g id="Log-out" stroke="none" stroke-width="1" fill="none" fill-rule="evenodd">
        <g id="Log-out-Icon" transform="translate(1.000000, 2.000000)" fill="#48DAD0" fill-rule="nonzero" stroke="#48DAD0" stroke-width="0.2">
            <path d="M11.4407897,4.98454625 L1.84061307,4.98454625 L5.68068373,0.993607222 C5.89939251,0.766305825 5.89939251,0.397777445 5.68068373,0.170476048 C5.46197494,-0.0568253493 5.10737794,-0.0568253493 4.88866915,0.170476048 L0.165382246,5.09928574 C0.0595563354,5.20799752 0,5.35620774 0,5.51085133 C0,5.66549492 0.0595563354,5.81370514 0.165382246,5.92241692 L4.88866915,10.8312719 C5.03014893,10.977419 5.23590275,11.0340205 5.42842514,10.9797552 C5.62094754,10.9254899 5.77098977,10.768602 5.82203239,10.5681896 C5.873075,10.3677773 5.81736341,10.1542878 5.67588364,10.0081407 L1.97981563,6.16686193 L11.4407897,6.16686193 C11.749633,6.16686193 12,5.90665856 12,5.58568144 C12,5.26470431 11.749633,5.00450094 11.4407897,5.00450094 L11.4407897,4.98454625 Z" id="Shape"></path>
        </g>
    </g>
</svg>