<?xml version="1.0" encoding="UTF-8"?>
<svg width="14px" height="14px" viewBox="0 0 14 14" version="1.1" xmlns="http://www.w3.org/2000/svg" xmlns:xlink="http://www.w3.org/1999/xlink">
    <!-- Generator: Sketch 50.2 (55047) - http://www.bohemiancoding.com/sketch -->
    <title>Usage Icon</title>
    <desc>Created with Sketch.</desc>
    <defs></defs>
    <g id="Usage-Icon" stroke="none" stroke-width="1" fill="none" fill-rule="evenodd">
        <g fill="#9B9DA2">
            <path d="M3.52617391,3.71414163 L0.733478261,3.71414163 C0.499130435,3.71414163 0.304347826,3.91735395 0.304347826,4.15220411 L0.304347826,13.0381799 C0.304347826,13.2724216 0.499130435,13.4488635 0.733478261,13.4488635 L3.52617391,13.4488635 C3.75991304,13.4488635 3.95652174,13.2724216 3.95652174,13.0381799 L3.95652174,4.15220411 C3.95652174,3.91735395 3.75991304,3.71414163 3.52617391,3.71414163 Z" id="Stroke-1"></path>
            <path d="M8.39634783,6.75654641 L5.60365217,6.75654641 C5.36930435,6.75654641 5.17452174,6.95975873 5.17452174,7.19460889 L5.17452174,13.0378757 C5.17452174,13.2727258 5.36930435,13.4491677 5.60365217,13.4491677 L8.39634783,13.4491677 C8.63008696,13.4491677 8.82669565,13.2727258 8.82669565,13.0378757 L8.82669565,7.19460889 C8.82669565,6.95975873 8.63008696,6.75654641 8.39634783,6.75654641 Z" id="Stroke-3"></path>
            <path d="M13.2665217,0.671736851 L10.4738261,0.671736851 C10.2388696,0.671736851 10.0446957,0.874949169 10.0446957,1.10979933 L10.0446957,13.0378757 C10.0446957,13.2727258 10.2388696,13.4485592 10.4738261,13.4485592 L13.2665217,13.4485592 C13.5002609,13.4485592 13.6968696,13.2727258 13.6968696,13.0378757 L13.6968696,1.10979933 C13.6968696,0.874949169 13.5002609,0.671736851 13.2665217,0.671736851 Z" id="Stroke-5"></path>
        </g>
    </g>
</svg>