<?xml version="1.0" encoding="UTF-8"?>
<svg width="32px" height="32px" viewBox="0 0 32 32" version="1.1" xmlns="http://www.w3.org/2000/svg" xmlns:xlink="http://www.w3.org/1999/xlink">
    <!-- Generator: Sketch 46.2 (44496) - http://www.bohemiancoding.com/sketch -->
    <title>Questionmark (grey)</title>
    <desc>Created with Sketch.</desc>
    <defs></defs>
    <g id="Symbols" stroke="none" stroke-width="1" fill="none" fill-rule="evenodd">
        <g id="Questionmark-(grey)">
            <g id="Group-13">
                <g id="Group-11">
                    <path d="M0,15.9994463 C0,24.8219538 7.17718715,32 16,32 C24.8228128,32 32,24.8219538 32,15.9994463 C32,7.17693878 24.8228128,0 16,0 C7.17718715,0 0,7.17693878 0,15.9994463 Z" id="Stroke-1" fill="#B7B9BC"></path>
                    <path d="M16,25.7737379 L16,25.2749793" id="Stroke-3" stroke="#FFFFFF" stroke-width="1.5" stroke-linecap="round" stroke-linejoin="round"></path>
                    <path d="M15.8275862,21.6909793 L15.8275862,18.6631172 C15.8275862,18.1941517 16.129931,17.7781517 16.5790345,17.6181517 C19.3133793,16.6482207 21.5897931,15.1696 21.5897931,12.6559448 C21.5897931,9.91497931 19.0606897,7.69263448 15.9412414,7.69263448 C13.8402759,7.69263448 12.0085517,8.70008276 11.0353103,10.1952552" id="Stroke-5" stroke="#FFFFFF" stroke-width="1.5" stroke-linecap="round" stroke-linejoin="round"></path>
                </g>
            </g>
        </g>
    </g>
</svg>