<?xml version="1.0" encoding="UTF-8"?>
<svg width="32px" height="32px" viewBox="0 0 32 32" version="1.1" xmlns="http://www.w3.org/2000/svg" xmlns:xlink="http://www.w3.org/1999/xlink">
    <!-- Generator: Sketch 46.2 (44496) - http://www.bohemiancoding.com/sketch -->
    <title>Questionmark (grey)</title>
    <desc>Created with Sketch.</desc>
    <defs></defs>
    <g id="Symbols" stroke="none" stroke-width="1" fill="none" fill-rule="evenodd">
        <g id="Questionmark-(grey)">
            <g id="Group-13">
                <g id="Group-11">
                    <path d="M0,15.9994463 C0,24.8219538 7.17718715,32 16,32 C24.8228128,32 32,24.8219538 32,15.9994463 C32,7.17693878 24.8228128,0 16,0 C7.17718715,0 0,7.17693878 0,15.9994463 Z" id="Stroke-1" fill="#B7B9BC"></path>
                    <g id="Group-8" transform="translate(11.000000, 7.000000)" stroke-linecap="round" stroke="#FFFFFF" stroke-linejoin="round">
                        <g id="Group">
                            <path d="M4.82758621,18.7737379 L4.82758621,18.2749793" id="Stroke-3"></path>
                            <path d="M4.82758621,14.6909793 L4.82758621,11.6631172 C4.82758621,11.1941517 5.12993103,10.7781517 5.57903448,10.6181517 C8.31337931,9.64822069 10.5897931,8.1696 10.5897931,5.65594483 C10.5897931,2.91497931 8.06068966,0.692634483 4.94124138,0.692634483 C2.84027586,0.692634483 1.00855172,1.70008276 0.0353103448,3.19525517" id="Stroke-5"></path>
                        </g>
                    </g>
                </g>
            </g>
        </g>
    </g>
</svg>