<?xml version="1.0" encoding="UTF-8"?>
<svg width="50px" height="50px" viewBox="0 0 50 50" version="1.1" xmlns="http://www.w3.org/2000/svg" xmlns:xlink="http://www.w3.org/1999/xlink">
    <!-- Generator: Sketch 46.2 (44496) - http://www.bohemiancoding.com/sketch -->
    <title>Keys_active_Icon Copy</title>
    <desc>Created with Sketch.</desc>
    <defs></defs>
    <g id="Symbols" stroke="none" stroke-width="1" fill="none" fill-rule="evenodd">
        <g id="Keys_active_Icon-Copy">
            <path d="M4,0 L46,0 L46,0 C48.209139,-4.05812251e-16 50,1.790861 50,4 L50,46 L50,46 C50,48.209139 48.209139,50 46,50 L4,50 L4,50 C1.790861,50 2.705415e-16,48.209139 0,46 L0,4 L0,4 C-2.705415e-16,1.790861 1.790861,4.05812251e-16 4,0 Z" id="Combined-Shape" fill="#F3F3F4"></path>
            <path d="M33.6869366,19.3218623 C33.1305564,19.8764909 32.2290932,19.8764909 31.672713,19.3218623 C31.1163328,18.7661733 31.1163328,17.8658298 31.672713,17.3101408 C32.2290932,16.7544518 33.1305564,16.7544518 33.6869366,17.3101408 C34.242255,17.8658298 34.242255,18.7661733 33.6869366,19.3218623 Z M25.553593,28.4451306 L28.4650327,25.5373075 C30.6916151,26.5415776 33.4002522,26.1375365 35.2297236,24.3092772 C37.5900921,21.9518408 37.5900921,18.1277672 35.2297236,15.7692704 C32.8672315,13.409713 29.0394634,13.4107735 26.678033,15.7692704 C24.96005,17.4840588 24.4981695,19.9729941 25.2796501,22.1109121 L13,34.3753079 L13.8908453,36.4761093 L17.3788393,36.3488523 L18.1719996,33.3720984 L21.580359,32.7082409 L22.1908907,28.3645344 L25.553593,28.4451306 Z" id="Page-1" stroke="#9FA2A6" stroke-width="1.5" stroke-linecap="round" stroke-linejoin="round"></path>
        </g>
    </g>
</svg>