<?xml version="1.0" encoding="UTF-8"?>
<svg width="20px" height="20px" viewBox="0 0 20 20" version="1.1" xmlns="http://www.w3.org/2000/svg" xmlns:xlink="http://www.w3.org/1999/xlink">
    <!-- Generator: Sketch 42 (36781) - http://www.bohemiancoding.com/sketch -->
    <title>Key_Icon Copy 2</title>
    <desc>Created with Sketch.</desc>
    <defs>
        <path d="M10,20 C15.5228475,20 20,15.5228475 20,10 C20,4.4771525 15.5228475,-1.77635684e-15 10,-1.77635684e-15 C4.4771525,-1.77635684e-15 0,4.4771525 0,10 C0,15.5228475 4.4771525,20 10,20 Z" id="path-1"></path>
        <mask id="mask-2" maskContentUnits="userSpaceOnUse" maskUnits="objectBoundingBox" x="0" y="0" width="20" height="20" fill="white">
            <use xlink:href="#path-1"></use>
        </mask>
    </defs>
    <g id="Symbols" stroke="none" stroke-width="1" fill="none" fill-rule="evenodd">
        <g id="Key_Icon-Copy-2" stroke="#707070">
            <g id="Group-2">
                <use id="Oval-3" mask="url(#mask-2)" stroke-width="2" xlink:href="#path-1"></use>
                <path d="M14.2027922,6.88623986 C13.9377405,7.15078574 13.508296,7.15078574 13.2432443,6.88623986 C12.9781926,6.62118817 12.9781926,6.19174372 13.2432443,5.92669202 C13.508296,5.66164032 13.9377405,5.66164032 14.2027922,5.92669202 C14.467338,6.19174372 14.467338,6.62118817 14.2027922,6.88623986 Z M10.3281815,11.2378425 L11.7151505,9.85087345 C12.7758631,10.3298886 14.0662197,10.1371698 14.9377542,9.26512944 C16.0622006,8.14068301 16.0622006,6.31668221 14.9377542,5.19172996 C13.8122962,4.0662719 11.9888012,4.06677772 10.8638489,5.19172996 C10.0454259,6.00964713 9.82539257,7.19681571 10.1976789,8.21655659 L4.34782609,14.0664094 L4.7722123,15.0684465 L6.43384365,15.0077476 L6.81169406,13.5879001 L8.43538863,13.2712543 L8.72623734,11.1993998 L10.3281815,11.2378425 Z" id="Page-1" stroke-linecap="round" stroke-linejoin="round"></path>
            </g>
        </g>
    </g>
</svg>