<?xml version="1.0" encoding="UTF-8"?>
<svg width="15px" height="15px" viewBox="0 0 15 15" version="1.1" xmlns="http://www.w3.org/2000/svg" xmlns:xlink="http://www.w3.org/1999/xlink">
    <!-- Generator: Sketch 51.1 (57501) - http://www.bohemiancoding.com/sketch -->
    <title>Link_Icon</title>
    <desc>Created with Sketch.</desc>
    <defs>
        <polygon id="path-1" points="0 0.0688217741 9.28999404 0.0688217741 9.28999404 10.0819637 0 10.0819637"></polygon>
    </defs>
    <g id="Templates" stroke="none" stroke-width="1" fill="none" fill-rule="evenodd">
        <g id="Add-new-campaign-wizard-03.3-OLP" transform="translate(-813.000000, -320.000000)">
            <g id="Link_Icon" transform="translate(813.000000, 320.000000)">
                <g id="Group-3" transform="translate(0.000000, 4.674787)">
                    <mask id="mask-2" fill="white">
                        <use xlink:href="#path-1"></use>
                    </mask>
                    <g id="Clip-2"></g>
                    <path d="M3.44040984,10.0819426 C1.53909836,10.0807131 -0.0012295082,8.53841803 5.29395592e-22,6.63710656 C0.000491803279,5.72604098 0.362213115,4.85210656 1.00598361,4.20735246 L4.13385246,1.07702459 C4.77860656,0.430057377 5.6547541,0.0671065574 6.56827869,0.0688278689 C7.22631148,0.0688278689 7.87081967,0.257434426 8.42483607,0.612270492 C8.63409836,0.745303279 8.82786885,0.901204918 9.00270492,1.07702459 C9.20213115,1.27694262 9.30614754,1.55259836 9.28795082,1.83440164 C9.27098361,2.06997541 9.16967213,2.29177869 9.00270492,2.4589918 C8.61442623,2.82440164 8.00901639,2.82440164 7.6207377,2.4589918 C7.04459016,1.88358197 6.11139344,1.88358197 5.5354918,2.4589918 L2.39532787,5.59669672 C1.81893443,6.17309016 1.81893443,7.1077623 2.39532787,7.68440164 C2.97172131,8.26104098 3.90663934,8.26104098 4.48303279,7.68440164 L6.33959016,5.82538525 C6.40967213,5.75456557 6.51565574,5.73341803 6.60762295,5.77128689 C7.10729508,5.97464754 7.64188525,6.07817213 8.18139344,6.07620492 L8.2797541,6.07620492 C8.4154918,6.07546721 8.52639344,6.18489344 8.52713115,6.32063115 C8.52737705,6.38677869 8.50131148,6.44997541 8.45434426,6.49669672 L5.87237705,9.07866393 C5.22786885,9.72390984 4.35245902,10.0851393 3.44040984,10.0819426" id="Fill-1" fill="#48DAD0" mask="url(#mask-2)"></path>
                </g>
                <path d="M8.19612295,10.0132869 L8.18136885,10.0132869 L8.0092377,10.0132869 C7.88653279,10.0083689 7.76431967,9.99705738 7.64284426,9.97886066 C7.54202459,9.96164754 7.44366393,9.94197541 7.34530328,9.91738525 L7.20022131,9.87804098 C7.14858197,9.86328689 7.09448361,9.84607377 7.04284426,9.82640164 C6.99120492,9.80672951 6.93710656,9.78951639 6.88546721,9.76738525 C6.83382787,9.7452541 6.78218852,9.72558197 6.73054918,9.7009918 C6.36464754,9.53131967 6.03169672,9.29820492 5.74694262,9.01246721 C5.54751639,8.81254918 5.4437459,8.53689344 5.46169672,8.25509016 C5.47743443,8.01754918 5.5787459,7.79402459 5.74694262,7.62558197 C6.13522131,7.26017213 6.74087705,7.26017213 7.12890984,7.62558197 C7.70505738,8.2009918 8.6382541,8.2009918 9.21440164,7.62558197 L10.0207131,6.82394262 L10.0403852,6.80181148 L12.3469426,4.49771311 C12.923582,3.92131967 12.923582,2.98640164 12.3469426,2.4100082 C11.7705492,1.83336885 10.8356311,1.83336885 10.2594836,2.4100082 L8.40759836,4.25918852 C8.33751639,4.3297623 8.23177869,4.35115574 8.13981148,4.31328689 C7.64087705,4.10943443 7.10702459,4.00492623 6.5682541,4.00590984 L6.47727049,4.00590984 C6.37694262,4.00787705 6.28522131,3.94836885 6.24612295,3.85590984 C6.20653279,3.76369672 6.22694262,3.65648361 6.2977623,3.58541803 L8.87751639,1.00836885 C10.2216148,-0.33597541 12.4017787,-0.33597541 13.746123,1.00836885 C15.0907131,2.35295902 15.0907131,4.53263115 13.746123,5.87722131 L10.6157951,9.00754918 C10.1756311,9.44795902 9.62407377,9.7607459 9.02013934,9.91246721 L8.99284426,9.91246721 L8.85022131,9.94197541 L8.77153279,9.95697541 L8.60186066,9.98131967 L8.5185,9.98131967 C8.45431967,9.98131967 8.3977623,9.99361475 8.34390984,9.99607377 L8.19612295,10.0132869 Z" id="Fill-4" fill="#48DAD0"></path>
            </g>
        </g>
    </g>
</svg>