<?xml version="1.0" encoding="UTF-8"?>
<svg width="30px" height="20px" viewBox="0 0 30 20" version="1.1" xmlns="http://www.w3.org/2000/svg" xmlns:xlink="http://www.w3.org/1999/xlink">
    <!-- Generator: Sketch 46.2 (44496) - http://www.bohemiancoding.com/sketch -->
    <title>Queue ICON</title>
    <desc>Created with Sketch.</desc>
    <defs></defs>
    <g id="Symbols" stroke="none" stroke-width="1" fill="none" fill-rule="evenodd">
        <g id="Queue-ICON">
            <path d="M8,1 L29,1" id="Stroke-1" stroke="#48DAD0" stroke-width="2" stroke-linecap="round" stroke-linejoin="round"></path>
            <path d="M8,10 L29,10" id="Stroke-3" stroke="#48DAD0" stroke-width="2" stroke-linecap="round" stroke-linejoin="round"></path>
            <path d="M8,19 L29,19" id="Stroke-5" stroke="#48DAD0" stroke-width="2" stroke-linecap="round" stroke-linejoin="round"></path>
            <path d="M2,1 C2,1.55188679 1.55188679,2 1,2 C0.448113208,2 0,1.55188679 0,1 C0,0.448113208 0.448113208,0 1,0 C1.55188679,0 2,0.448113208 2,1 Z" id="Stroke-7" fill="#48DAD0"></path>
            <path d="M2,10 C2,10.5518868 1.55188679,11 1,11 C0.448113208,11 0,10.5518868 0,10 C0,9.44811321 0.448113208,9 1,9 C1.55188679,9 2,9.44811321 2,10 Z" id="Stroke-9" fill="#48DAD0"></path>
            <path d="M2,19 C2,19.5518868 1.55188679,20 1,20 C0.448113208,20 0,19.5518868 0,19 C0,18.4481132 0.448113208,18 1,18 C1.55188679,18 2,18.4481132 2,19 Z" id="Stroke-11" fill="#48DAD0"></path>
        </g>
    </g>
</svg>