<?xml version="1.0" encoding="UTF-8"?>
<svg width="30px" height="19px" viewBox="0 0 30 19" version="1.1" xmlns="http://www.w3.org/2000/svg" xmlns:xlink="http://www.w3.org/1999/xlink">
    <!-- Generator: Sketch 46.2 (44496) - http://www.bohemiancoding.com/sketch -->
    <title>Queue ICON</title>
    <desc>Created with Sketch.</desc>
    <defs></defs>
    <g id="Symbols" stroke="none" stroke-width="1" fill="none" fill-rule="evenodd">
        <g id="Queue-ICON">
            <path d="M8,1.5 L29.0059515,1.5" id="Stroke-1" stroke="#48DAD0" stroke-width="2" stroke-linecap="round" stroke-linejoin="round"></path>
            <path d="M8,9.5 L29.0059515,9.5" id="Stroke-3" stroke="#48DAD0" stroke-width="2" stroke-linecap="round" stroke-linejoin="round"></path>
            <path d="M8,17.5 L29.0059515,17.5" id="Stroke-5" stroke="#48DAD0" stroke-width="2" stroke-linecap="round" stroke-linejoin="round"></path>
            <path d="M3,1.5 C3,2.32783019 2.32783019,3 1.5,3 C0.672169811,3 0,2.32783019 0,1.5 C0,0.672169811 0.672169811,0 1.5,0 C2.32783019,0 3,0.672169811 3,1.5 Z" id="Stroke-7" fill="#48DAD0"></path>
            <path d="M3,9.5 C3,10.3278302 2.32783019,11 1.5,11 C0.672169811,11 0,10.3278302 0,9.5 C0,8.67216981 0.672169811,8 1.5,8 C2.32783019,8 3,8.67216981 3,9.5 Z" id="Stroke-9" fill="#48DAD0"></path>
            <path d="M3,17.5 C3,18.3278302 2.32783019,19 1.5,19 C0.672169811,19 0,18.3278302 0,17.5 C0,16.6721698 0.672169811,16 1.5,16 C2.32783019,16 3,16.6721698 3,17.5 Z" id="Stroke-11" fill="#48DAD0"></path>
        </g>
    </g>
</svg>