<?xml version="1.0" encoding="UTF-8"?>
<svg width="16px" height="14px" viewBox="0 0 16 14" version="1.1" xmlns="http://www.w3.org/2000/svg" xmlns:xlink="http://www.w3.org/1999/xlink">
    <!-- Generator: Sketch 46.2 (44496) - http://www.bohemiancoding.com/sketch -->
    <title>Reopen_white</title>
    <desc>Created with Sketch.</desc>
    <defs></defs>
    <g id="Symbols" stroke="none" stroke-width="1" fill="none" fill-rule="evenodd">
        <g id="Reopen_white" fill="#FFFFFF">
            <g id="Dots" transform="translate(7.625000, 6.875000) scale(-1, -1) rotate(90.000000) translate(-7.625000, -6.875000) translate(3.625000, 0.375000)">
                <path d="M4.01103507,10.3125 L2.11413051,8.50421684 L-2.07343475,4.48448251 C-2.19062407,4.3724914 -2.25,4.25303421 -2.25,4.12611095 C-2.25,4.00068091 -2.19062407,3.88122372 -2.07343475,3.76923261 L-0.951542266,2.67470614 C-0.846853134,2.56122181 -0.718726138,2.50447964 -0.565598751,2.50447964 C-0.412471365,2.50447964 -0.284344369,2.56122181 -0.181217762,2.67321292 L4.00947254,6.64964402 L8.1907877,2.66873328 C8.29391431,2.55524895 8.41266616,2.5 8.55173083,2.5 C8.69079549,2.5 8.81267239,2.55524895 8.91736152,2.66873328 L10.0845672,3.76176653 C10.3048831,3.99918769 10.3048831,4.24108849 10.0861297,4.47701644 L5.90325205,8.50123041 L4.01103507,10.3125 Z" id="Fill-3" transform="translate(4.000000, 6.406250) rotate(-90.000000) translate(-4.000000, -6.406250) "></path>
            </g>
        </g>
    </g>
</svg>