<?xml version="1.0" encoding="UTF-8"?>
<svg width="24px" height="24px" viewBox="0 0 24 24" version="1.1" xmlns="http://www.w3.org/2000/svg" xmlns:xlink="http://www.w3.org/1999/xlink">
    <!-- Generator: Sketch 51.1 (57501) - http://www.bohemiancoding.com/sketch -->
    <title>Rerty_Icon</title>
    <desc>Created with Sketch.</desc>
    <defs></defs>
    <g id="Rerty_Icon" stroke="none" stroke-width="1" fill="none" fill-rule="evenodd">
        <g id="Group-9" fill="#48DAD0">
            <path d="M0,11.9970773 C0,18.6256567 5.37016805,23.9974949 11.9979124,23.9974949 C18.6256567,23.9974949 24,18.6256567 24,11.9970773 C24,5.37016805 18.6256567,0 11.9979124,0 C5.37016805,0 0,5.37016805 0,11.9970773 Z" id="Stroke-5"></path>
        </g>
        <g id="Group-3" transform="translate(12.500000, 12.000000) rotate(-15.000000) translate(-12.500000, -12.000000) translate(5.000000, 5.000000)" fill="#FFFFFF">
            <path d="M14.8908552,9.29725499 L13.6060843,7.16677944 C13.6029583,7.1614758 13.5972274,7.15882397 13.5941014,7.15352032 C13.546691,7.07926925 13.4878187,7.01350401 13.4180055,6.95993716 C13.4101906,6.95410314 13.4018547,6.94932986 13.3935188,6.94402621 C13.3231846,6.89417192 13.2450355,6.85651601 13.1590715,6.83371033 C13.1549036,6.83317996 13.1522986,6.82999777 13.1481307,6.82893704 C13.1418788,6.82734595 13.1351058,6.82946741 13.1288539,6.82840668 C13.0991573,6.8220423 13.0699816,6.81355646 13.039243,6.811435 C12.9803707,6.80613136 12.9241033,6.81037427 12.868357,6.81832975 C12.8610631,6.81939048 12.8548111,6.8220423 12.8475172,6.82310303 C12.7589483,6.83954434 12.6750682,6.8703055 12.6000451,6.91591688 C12.5969192,6.91750797 12.5932722,6.91750797 12.5901462,6.91962943 L10.5343045,8.20470343 C10.1868015,8.42215301 10.0779138,8.88516151 10.2910003,9.23891486 C10.5046078,9.59213784 10.9594354,9.70298409 11.3069384,9.48606487 L11.8404361,9.15246539 C11.5153359,9.94376973 11.0120558,10.6502157 10.3498726,11.216115 C9.25370153,12.1532696 7.855354,12.6008976 6.41845292,12.4762618 C4.98155184,12.3516261 3.67854618,11.6648036 2.74857213,10.5425516 C1.81911907,9.41976927 1.3747113,7.99627005 1.49714486,6.53352383 C1.61905743,5.07077761 2.29374448,3.74433515 3.3966885,2.79816428 C4.49911152,1.85146305 5.89589607,1.39906185 7.33436013,1.52369758 C8.74312755,1.64621186 10.0284194,2.31181973 10.9547465,3.39853728 C11.2220164,3.7119829 11.6888269,3.74592625 11.9962132,3.47384909 C12.3046416,3.20177193 12.3374642,2.7270954 12.0701944,2.41364978 C10.8911853,1.02939755 9.25370153,0.18134418 7.45939866,0.0259472829 C5.63071019,-0.133162168 3.84839018,0.443344409 2.44431171,1.64886368 C1.04023324,2.85385259 0.181114358,4.5430646 0.0253371927,6.40623627 C-0.130439973,8.26887757 0.435880359,10.0816646 1.61957842,11.5115282 C2.80327648,12.9408614 4.46316294,13.815433 6.29341439,13.9740121 C6.49399703,13.9915142 6.69405867,14 6.89255733,14 C8.50868031,14 10.0549901,13.4309185 11.2996444,12.367537 C12.2056528,11.5932044 12.8798188,10.6125598 13.287757,9.51364385 L13.632134,10.083786 C13.7717603,10.3150251 14.0140225,10.4423127 14.2620156,10.4423127 C14.393827,10.4423127 14.5272014,10.4062479 14.648072,10.3314664 C14.9955749,10.1140168 15.1039416,9.65100834 14.8908552,9.29725499" id="Fill-1"></path>
        </g>
    </g>
</svg>