<?xml version="1.0" encoding="UTF-8"?>
<svg width="90px" height="90px" viewBox="0 0 90 90" version="1.1" xmlns="http://www.w3.org/2000/svg" xmlns:xlink="http://www.w3.org/1999/xlink">
    <!-- Generator: Sketch 42 (36781) - http://www.bohemiancoding.com/sketch -->
    <title>Settings Icon</title>
    <desc>Created with Sketch.</desc>
    <defs>
        <path d="M45.0744838,90.1489675 C69.9684337,90.1489675 90.1489675,69.9684337 90.1489675,45.0744838 C90.1489675,20.1805338 69.9684337,-7.10542736e-15 45.0744838,-7.10542736e-15 C20.1805338,-7.10542736e-15 0,20.1805338 0,45.0744838 C0,69.9684337 20.1805338,90.1489675 45.0744838,90.1489675 Z" id="path-1"></path>
        <mask id="mask-2" maskContentUnits="userSpaceOnUse" maskUnits="objectBoundingBox" x="0" y="0" width="90.1489675" height="90.1489675" fill="white">
            <use xlink:href="#path-1"></use>
        </mask>
    </defs>
    <g id="-" stroke="none" stroke-width="1" fill="none" fill-rule="evenodd">
        <g id="Settings-Icon" stroke="#4A4A4A">
            <g id="Group-15">
                <g id="Group-2">
                    <use id="Oval-3" mask="url(#mask-2)" stroke-width="2" xlink:href="#path-1"></use>
                    <g id="Page-1" transform="translate(15.864806, 18.833273)" stroke-linecap="round" stroke-linejoin="round">
                        <path d="M25.4197353,38.9685439 C25.4197353,42.7294623 22.3714909,45.7777067 18.6105725,45.7777067 C14.8496541,45.7777067 11.7989091,42.7294623 11.7989091,38.9685439 C11.7989091,35.2076255 14.8496541,32.1593811 18.6105725,32.1593811 C22.3714909,32.1593811 25.4197353,35.2076255 25.4197353,38.9685439 Z" id="Stroke-1"></path>
                        <path d="M31.8380526,42.1605734 L36.8192691,41.507914 C37.0518258,39.8200018 37.0618283,38.1846025 36.8192691,36.4291738 L31.8380526,35.7765144 C31.5029708,34.3786731 30.9528365,33.0708537 30.2226582,31.8780624 L33.2859062,27.892089 C32.2606558,26.5342574 31.0503603,25.3264625 29.6950293,24.2987115 L25.7090559,27.3619596 C24.5162647,26.6292807 23.2059447,26.0791463 21.8081033,25.7415639 L21.1554439,20.7603475 C19.4250214,20.5202888 17.7946232,20.5227894 16.0767037,20.7603475 L15.4265449,25.7390633 C14.026203,26.0741451 12.7133824,26.6242794 11.5180905,27.3569584 L7.53211712,24.2937103 C6.23179958,25.2789509 4.98899609,26.4992489 3.94124023,27.8845872 L7.00448828,31.86806 C6.26930874,33.0633519 5.7191744,34.3761724 5.38159196,35.779015 L0.40037555,36.4291738 C0.177821202,38.0445683 0.162817538,39.7699896 0.40037555,41.507914 L5.38159196,42.1580728 C5.7191744,43.5609154 6.26930874,44.873736 7.00448828,46.0690278 L3.94124023,50.0525006 C4.93648327,51.3678218 6.15928188,52.6056241 7.53211712,53.6433775 L11.5180905,50.5801295 C12.7133824,51.3103078 14.026203,51.8629427 15.4265449,52.1980245 L16.0767037,57.1767404 C17.7946232,57.4142984 19.4250214,57.4142984 21.1554439,57.1767404 L21.8081033,52.1955239 C23.2059447,51.8579415 24.5162647,51.3078072 25.7090559,50.5751282 L29.6950293,53.6383763 C31.0503603,52.6106253 32.2606558,51.4003298 33.2859062,50.0449988 L30.2226582,46.0590254 C30.9528365,44.8662341 31.5029708,43.5584148 31.8380526,42.1605734 Z" id="Stroke-3"></path>
                        <path d="M48.3848434,14.7596321 C47.4596174,17.0201841 44.8764866,18.1029485 42.6159346,17.1777226 C40.352882,16.2524966 39.2701176,13.6693658 40.1978441,11.4088138 C41.12307,9.14576117 43.7062008,8.06299676 45.9667529,8.99072331 C48.2273049,9.91594926 49.3100693,12.4990801 48.3848434,14.7596321 Z" id="Stroke-5"></path>
                        <path d="M52.2540382,18.8331268 L55.7598944,19.7583528 C56.3775452,18.6955932 56.8301557,17.605327 57.1477333,16.3650241 L53.9994645,14.5695857 C54.1570029,13.5443353 54.1470005,12.5190849 53.9869614,11.5213413 L57.1227272,9.69839613 C56.8076502,8.51060607 56.3300336,7.37282822 55.7048809,6.31506992 L52.2065266,7.2728038 C51.6113813,6.45760473 50.8862042,5.72992703 50.0434984,5.12227864 L50.971225,1.61892312 C49.8809587,0.983768014 48.7906925,0.538659319 47.5778963,0.228583598 L45.7824579,3.3743518 C44.7547069,3.21681332 43.7269559,3.22681577 42.7292123,3.38685485 L40.9037665,0.251089094 C39.7734905,0.551162372 38.6107065,1.0262784 37.5229409,1.66893533 L38.4806748,5.16728963 C37.6629751,5.76493558 36.9352974,6.49011266 36.327649,7.33531906 L32.8217929,6.40759251 C32.2316488,7.42784166 31.7490309,8.57562195 31.433954,9.80092117 L34.5822228,11.5963596 C34.4246843,12.6266112 34.4346867,13.6543622 34.5972264,14.6521058 L31.4614607,16.4775516 C31.7640346,17.6153294 32.2391506,18.7781134 32.8793069,19.8558766 L36.3776612,18.9006433 C36.9753072,19.7158424 37.7029849,20.4435201 38.5456906,21.0511685 L37.6204647,24.554524 C38.7007285,25.1821773 39.7909947,25.6297866 41.0137934,25.9423629 L42.8092318,22.7940941 C43.8369828,22.949132 44.8622331,22.9416301 45.8599768,22.7790904 L47.682922,25.9123556 C48.870712,25.5997793 50.0084899,25.1221626 51.0637476,24.4945093 L50.1085143,20.996155 C50.9212128,20.3985091 51.6463898,19.673332 52.2540382,18.8331268 Z" id="Stroke-7"></path>
                    </g>
                </g>
            </g>
        </g>
    </g>
</svg>