<?xml version="1.0" encoding="UTF-8"?>
<svg width="135px" height="135px" viewBox="0 0 135 135" version="1.1" xmlns="http://www.w3.org/2000/svg" xmlns:xlink="http://www.w3.org/1999/xlink">
    <!-- Generator: Sketch 42 (36781) - http://www.bohemiancoding.com/sketch -->
    <title>Download Copy 2</title>
    <desc>Created with Sketch.</desc>
    <defs>
        <path d="M67.1053944,134.210789 C104.16668,134.210789 134.210789,104.16668 134.210789,67.1053944 C134.210789,30.0441085 104.16668,-1.42108547e-14 67.1053944,-1.42108547e-14 C30.0441085,-1.42108547e-14 0,30.0441085 0,67.1053944 C0,104.16668 30.0441085,134.210789 67.1053944,134.210789 Z" id="path-1"></path>
        <mask id="mask-2" maskContentUnits="userSpaceOnUse" maskUnits="objectBoundingBox" x="0" y="0" width="134.210789" height="134.210789" fill="white">
            <use xlink:href="#path-1"></use>
        </mask>
    </defs>
    <g id="-" stroke="none" stroke-width="1" fill="none" fill-rule="evenodd">
        <g id="Download-Copy-2" stroke="#FFFFFF">
            <use id="Oval-3" mask="url(#mask-2)" stroke-width="6" xlink:href="#path-1"></use>
            <g id="Group-2" transform="translate(23.000000, 27.000000)" stroke-width="3" stroke-linecap="round" stroke-linejoin="round">
                <path d="M38.4630541,58.6340704 C38.4630541,64.2332008 33.9249291,68.7713258 28.3257987,68.7713258 C22.7266682,68.7713258 18.1848204,64.2332008 18.1848204,58.6340704 C18.1848204,53.03494 22.7266682,48.496815 28.3257987,48.496815 C33.9249291,48.496815 38.4630541,53.03494 38.4630541,58.6340704 Z" id="Stroke-1"></path>
                <path d="M48.0184318,63.3862579 L55.4343014,62.4146003 C55.7805242,59.9016927 55.7954155,57.4669644 55.4343014,54.8535405 L48.0184318,53.8818829 C47.5195731,51.8008231 46.7005514,49.8537851 45.6134862,48.077997 L50.1739481,42.1438122 C48.6475894,40.1223177 46.8457416,38.3241927 44.8279698,36.7941112 L38.8937851,41.3545731 C37.117997,40.2637851 35.1672362,39.4447633 33.0861764,38.9421818 L32.1145188,31.5263122 C29.5383231,31.1689209 27.1110405,31.1726438 24.553459,31.5263122 L23.5855242,38.938459 C21.5007416,39.4373177 19.5462579,40.2563394 17.766747,41.3471275 L11.8325622,36.7866655 C9.89669267,38.253459 8.04644811,40.0701981 6.48658398,42.1326438 L11.0470459,48.0631057 C9.95253506,49.8426166 9.13351332,51.7971003 8.6309318,53.8856057 L1.21506224,54.8535405 C0.883730715,57.2584862 0.861393759,59.8272362 1.21506224,62.4146003 L8.6309318,63.3825351 C9.13351332,65.4710405 9.95253506,67.4255242 11.0470459,69.2050351 L6.48658398,75.135497 C7.96826876,77.0937035 9.78873072,78.9365025 11.8325622,80.4814753 L17.766747,75.9210133 C19.5462579,77.0080785 21.5007416,77.8308231 23.5855242,78.3296818 L24.553459,85.7418285 C27.1110405,86.095497 29.5383231,86.095497 32.1145188,85.7418285 L33.0861764,78.325959 C35.1672362,77.8233775 37.117997,77.0043557 38.8937851,75.9135677 L44.8279698,80.4740296 C46.8457416,78.9439481 48.6475894,77.1421003 50.1739481,75.1243285 L45.6134862,69.1901438 C46.7005514,67.4143557 47.5195731,65.4673177 48.0184318,63.3862579 Z" id="Stroke-3"></path>
                <path d="M72.6527443,22.5926465 C71.2752987,25.9580813 67.4296193,27.570065 64.0641845,26.1926193 C60.6950269,24.8151737 59.0830432,20.9694943 60.4642117,17.6040595 C61.8416573,14.2349019 65.6873367,12.6229182 69.0527715,14.0040867 C72.4182063,15.3815323 74.03019,19.2272117 72.6527443,22.5926465 Z" id="Stroke-5"></path>
                <path d="M78.4130731,28.6571302 L83.6324753,30.0345758 C84.5520133,28.4523747 85.2258448,26.8292226 85.6986438,24.9827008 L81.0116057,22.3097117 C81.2461438,20.783353 81.2312525,19.2569943 80.9929916,17.7715867 L85.6614155,15.0576465 C85.1923394,13.2893041 84.4812796,11.5954182 83.5505731,10.0206628 L78.3423394,11.4465052 C77.4563068,10.2328639 76.3766872,9.14952148 75.1220948,8.24487474 L76.5032633,3.02919539 C74.8801112,2.08359756 73.256959,1.42093452 71.4513883,0.959304085 L68.7783992,5.6426193 C67.2483177,5.40808126 65.7182362,5.42297256 64.2328285,5.66123343 L61.5151655,0.99280952 C59.8324481,1.43954865 58.101334,2.14688561 56.4819046,3.10365191 L57.907747,8.31188561 C56.6903829,9.20164104 55.6070405,10.2812606 54.7023938,11.5395758 L49.4829916,10.1584073 C48.6044046,11.6773204 47.8858992,13.3860976 47.4168231,15.2102823 L52.1038612,17.8832715 C51.8693231,19.4170758 51.8842144,20.9471573 52.1261981,22.432565 L47.4577742,25.150228 C47.9082362,26.8441139 48.6155731,28.575228 49.5686166,30.179766 L54.7768503,28.7576465 C55.6666057,29.9712878 56.7499481,31.0546302 58.0045405,31.9592769 L56.6270948,37.1749563 C58.2353557,38.1093856 59.8585079,38.7757715 61.6789698,39.2411247 L64.351959,34.5540867 C65.8820405,34.7849019 67.4083992,34.7737334 68.8938068,34.5317497 L71.607747,39.1964508 C73.3760894,38.7310976 75.0699753,38.0200378 76.6410079,37.0856084 L75.2188883,31.8773747 C76.4288068,30.9876193 77.5084264,29.9079997 78.4130731,28.6571302 Z" id="Stroke-7"></path>
            </g>
        </g>
    </g>
</svg>