<?xml version="1.0" encoding="UTF-8"?>
<svg width="30px" height="31px" viewBox="0 0 30 31" version="1.1" xmlns="http://www.w3.org/2000/svg" xmlns:xlink="http://www.w3.org/1999/xlink">
    <!-- Generator: Sketch 46.2 (44496) - http://www.bohemiancoding.com/sketch -->
    <title>Personas activated</title>
    <desc>Created with Sketch.</desc>
    <defs></defs>
    <g id="Symbols" stroke="none" stroke-width="1" fill="none" fill-rule="evenodd">
        <g id="Personas-activated" fill="#48DAD0">
            <path d="M23.5895846,20.5664701 C20.6918308,19.4393525 17.4749153,18.0396035 17.2045426,17.1674991 L17.2045426,16.2527042 C17.8055967,15.633806 18.2797089,14.7705107 18.5604718,13.7597189 C19.2351612,13.2828962 19.4020831,12.3007906 18.8441712,11.610064 L18.8441712,9.56182708 C18.8441712,7.44740871 17.6743632,6 15.0002259,6 C12.3952064,6 11.1549253,7.44740871 11.1549253,9.56182708 L11.1549253,11.6107416 C10.5992722,12.2994353 10.7641611,13.2813151 11.4388505,13.7592672 C11.7193876,14.7702849 12.1939516,15.6335801 12.7952315,16.2527042 L12.7952315,17.1674991 C12.5257623,18.0387 9.30816916,19.4386749 6.41041536,20.5664701 C6.16353369,20.6629188 6,20.9048312 6,21.1752039 L6,23.4633204 C6,23.8226879 6.28550634,24.1147446 6.63764588,24.1147446 L23.3623541,24.1147446 C23.7144937,24.1147446 24,23.8226879 24,23.4633204 L24,21.1752039 C24,20.9048312 23.8364663,20.6622412 23.5895846,20.5664701 L23.5895846,20.5664701 Z" id="Shape"></path>
        </g>
    </g>
</svg>