<?xml version="1.0" encoding="UTF-8"?>
<svg width="24px" height="24px" viewBox="0 0 24 24" version="1.1" xmlns="http://www.w3.org/2000/svg" xmlns:xlink="http://www.w3.org/1999/xlink">
    <!-- Generator: Sketch 51.1 (57501) - http://www.bohemiancoding.com/sketch -->
    <title>Update_Internal</title>
    <desc>Created with Sketch.</desc>
    <defs>
        <polygon id="path-1" points="0.291037122 0.378965517 13.3011616 0.378965517 13.3011616 5.70644828 0.291037122 5.70644828"></polygon>
    </defs>
    <g id="Update_Internal" stroke="none" stroke-width="1" fill="none" fill-rule="evenodd">
        <g id="Group-9" fill="#00AFAA">
            <path d="M0,11.9970773 C0,18.6256567 5.37016805,23.9974949 11.9979124,23.9974949 C18.6256567,23.9974949 24,18.6256567 24,11.9970773 C24,5.37016805 18.6256567,0 11.9979124,0 C5.37016805,0 0,5.37016805 0,11.9970773 Z" id="Stroke-5"></path>
        </g>
        <g id="Group" transform="translate(5.000000, 5.000000)">
            <g id="Group-6">
                <g id="Group-3" transform="translate(0.482759, 0.103938)">
                    <mask id="mask-2" fill="white">
                        <use xlink:href="#path-1"></use>
                    </mask>
                    <g id="Clip-2"></g>
                    <path d="M12.9162552,2.50382759 C12.6048759,2.38217241 12.2558414,2.53713793 12.1351517,2.84755172 L11.8744621,3.51906897 C10.7539793,1.61603448 8.66991034,0.378724138 6.38694483,0.378724138 C3.59418621,0.378724138 1.09784138,2.25182759 0.315289655,4.93355172 C0.222117241,5.25362069 0.405565517,5.58865517 0.725634483,5.68182759 C1.04715172,5.77403448 1.38073793,5.59155172 1.47391034,5.27148276 C2.1068069,3.10148276 4.12715172,1.58562069 6.38694483,1.58562069 C8.18811724,1.58562069 9.83287586,2.53713793 10.7559103,4.00858621 L10.160669,3.77734483 C9.84832414,3.6552069 9.49977241,3.81065517 9.37956552,4.12106897 C9.25887586,4.43196552 9.41287586,4.78148276 9.72328966,4.90217241 L11.6886,5.66493103 C11.6924621,5.66686207 11.6972897,5.66589655 11.7016345,5.66782759 C11.7668069,5.69148276 11.8353586,5.70644828 11.9068069,5.70644828 C11.9623241,5.70644828 12.0197724,5.69824138 12.0757724,5.68182759 C12.0772207,5.68182759 12.0777034,5.68086207 12.0791517,5.68037931 C12.1477034,5.66010345 12.2104621,5.62437931 12.2679103,5.58141379 C12.2852897,5.56789655 12.2992897,5.55293103 12.3152207,5.53796552 C12.3514276,5.50417241 12.3823241,5.467 12.4098414,5.42451724 C12.4228759,5.40375862 12.4349448,5.38396552 12.4460483,5.36175862 C12.4528069,5.34727586 12.4634276,5.33617241 12.4692207,5.3212069 L13.2599793,3.28493103 C13.380669,2.97403448 13.2271517,2.62451724 12.9162552,2.50382759" id="Fill-1" fill="#FFFFFF" mask="url(#mask-2)"></path>
                </g>
                <path d="M12.575669,7.83512414 C12.2546345,7.7434 11.9205655,7.9254 11.8273931,8.24546897 C11.1944966,10.4159517 9.17415172,11.931331 6.91435862,11.931331 C5.11318621,11.931331 3.46794483,10.9802966 2.5453931,9.50884828 L3.14111724,9.74008966 C3.45201379,9.86126207 3.80153103,9.70629655 3.92173793,9.39588276 C4.04242759,9.08546897 3.88842759,8.73546897 3.57801379,8.61526207 L1.61270345,7.85202069 C1.58856552,7.84236552 1.56297931,7.84526207 1.53835862,7.83898621 C1.50022069,7.82933103 1.46256552,7.82112414 1.42249655,7.81871034 C1.37808276,7.81677931 1.33656552,7.82208966 1.2936,7.82933103 C1.27091034,7.8331931 1.24822069,7.82836552 1.22553103,7.83512414 C1.21297931,7.83850345 1.20428966,7.84815862 1.19222069,7.85250345 C1.15118621,7.86698621 1.11497931,7.8891931 1.07828966,7.91236552 C1.0473931,7.93167586 1.01746207,7.94905517 0.991393103,7.9731931 C0.962910345,7.99829655 0.941668966,8.0291931 0.91897931,8.06008966 C0.893875862,8.0934 0.87022069,8.12574483 0.852841379,8.1634 C0.847531034,8.17546897 0.836910345,8.18367586 0.832082759,8.19622759 L0.0413241379,10.2325034 C-0.0793655172,10.5429172 0.0741517241,10.8929172 0.385048276,11.0131241 C0.45697931,11.0416069 0.530841379,11.0546414 0.603255172,11.0546414 C0.845117241,11.0546414 1.07346207,10.9083655 1.16615172,10.6694 L1.42684138,9.99788276 C2.54732414,11.9009172 4.6313931,13.1382276 6.91435862,13.1382276 C9.70711724,13.1382276 12.2034621,11.2651241 12.9860138,8.5834 C13.0791862,8.26381379 12.8957379,7.92829655 12.575669,7.83512414" id="Fill-4" fill="#FFFFFF"></path>
            </g>
        </g>
    </g>
</svg>