<?xml version="1.0" encoding="UTF-8"?>
<svg width="43px" height="18px" viewBox="0 0 43 18" version="1.1" xmlns="http://www.w3.org/2000/svg" xmlns:xlink="http://www.w3.org/1999/xlink">
    <!-- Generator: Sketch 46.2 (44496) - http://www.bohemiancoding.com/sketch -->
    <title>Vehicle 04--default</title>
    <desc>Created with Sketch.</desc>
    <defs></defs>
    <g id="Symbols" stroke="none" stroke-width="1" fill="none" fill-rule="evenodd">
        <g id="Vehicle-04--default" fill="#9B9DA2">
            <g id="Page-1" transform="translate(8.000000, 5.000000)">
                <path d="M19.3422339,2.67134516 C19.0613468,2.65784516 10.5694113,2.29900645 9.58304032,2.29813548 C8.58665323,2.29726452 6.92528226,2.21452258 6.92528226,2.21452258 C7.13300806,1.84087742 7.29892742,1.7577 7.46528226,1.67495806 C7.63120161,1.59178065 9.87394355,0.760877419 12.4485242,0.594958065 C12.7368145,0.576232258 13.00725,0.568393548 13.2611371,0.568393548 C14.6886532,0.568393548 15.5822661,0.830990323 16.0203629,1.01040968 C17.8454758,1.75682903 19.3391855,2.66916774 19.3422339,2.67134516 C19.3483306,2.67178065 19.351379,2.67178065 19.3505081,2.67178065 L19.3426694,2.67178065 L19.3422339,2.67134516 Z M13.4989113,0.217829032 C12.0095565,0.217829032 10.3904274,0.433393548 9.11750806,0.678570968 C9.11750806,0.678570968 3.86687903,2.01071613 3.26155645,2.01071613 C3.24370161,2.01071613 3.23020161,2.00940968 3.22062097,2.00766774 C2.88834677,1.92405484 2.22379839,1.75813548 1.22697581,1.75813548 C0.23058871,1.75813548 1.06105645,2.17315161 1.14423387,2.25676452 C1.22697581,2.33950645 0.396508065,3.83495806 0.23058871,5.41271613 C0.0803467742,6.84066774 1.28968548,6.90860323 2.07529839,6.90860323 C2.15760484,6.90860323 2.23599194,6.90816774 2.30697581,6.90816774 C2.33049194,6.90816774 2.36184677,6.90816774 2.40147581,6.90816774 C2.23512097,6.59897419 2.14105645,6.24536129 2.14105645,5.86997419 C2.14105645,4.65410323 3.12655645,3.66860323 4.34199194,3.66860323 C5.5578629,3.66860323 6.54292742,4.65410323 6.54292742,5.86997419 C6.54292742,6.26974839 6.43579839,6.95215161 6.24984677,7.27484516 C8.70292742,7.20560323 14.2614435,6.98655484 17.9317016,6.98655484 C18.5352823,6.98655484 19.0874758,6.99265161 19.5669435,7.00615161 C19.366621,6.6743129 19.2512177,6.28542581 19.2512177,5.86953871 C19.2512177,4.65410323 20.2367177,3.66860323 21.4525887,3.66860323 C22.6680242,3.66860323 23.6530887,4.65410323 23.6530887,5.86953871 C23.6530887,6.26234516 23.549879,6.6312 23.3695887,6.95040968 C24.0694113,6.93647419 24.5872016,6.92210323 24.8158306,6.90816774 C26.1449274,6.82499032 26.560379,6.32679677 26.560379,6.32679677 C26.560379,6.32679677 27.0590081,4.66542581 25.6467339,3.9177 C24.2344597,3.17040968 20.4139597,2.67178065 20.4139597,2.67178065 C20.4139597,2.67178065 18.0884758,1.25994194 16.2611855,0.594958065 C15.5108468,0.322345161 14.5362339,0.217829032 13.4989113,0.217829032 L13.4989113,0.217829032 Z M22.5299758,3.46349032 C23.6034435,3.67339355 24.8023306,3.96342581 25.4429274,4.30266774 C26.3439435,4.77952258 26.2359435,5.75892581 26.16975,6.09032903 C26.0234274,6.19528065 25.6175565,6.42129677 24.7892661,6.47311935 C24.6499113,6.48182903 24.3894919,6.49097419 24.0123629,6.50055484 C24.062879,6.29457097 24.0885726,6.08292581 24.0885726,5.86953871 C24.0885726,4.79955484 23.4484113,3.87676452 22.5299758,3.46349032 L22.5299758,3.46349032 Z M6.72931452,1.71850645 C6.66834677,1.79732903 6.60694355,1.89095806 6.54423387,2.0033129 L6.20455645,2.61516774 L6.90394355,2.64957097 C6.97231452,2.65305484 8.58708871,2.73274839 9.58260484,2.73361935 C10.5319597,2.73449032 18.9394113,3.08810323 19.3213306,3.10639355 L19.324379,3.10682903 L19.3265565,3.10682903 L19.3422339,3.10726452 L19.3505081,3.10726452 L19.7759758,3.10726452 L19.783379,2.80634516 C20.0324758,2.95005484 20.1822823,3.04063548 20.1879435,3.04411935 L20.2667661,3.09202258 L20.3577823,3.10378065 C20.3691048,3.1050871 20.7322984,3.15299032 21.2679435,3.23965161 C19.8996532,3.33415161 18.8157339,4.47773226 18.8157339,5.86953871 C18.8157339,6.10295806 18.8462177,6.3342 18.90675,6.55716774 C18.6071371,6.55324839 18.2809597,6.55107097 17.9317016,6.55107097 C15.1106371,6.55107097 11.2300403,6.67866774 8.39634677,6.77142581 C7.83283065,6.79015161 7.31591129,6.80713548 6.86475,6.82107097 C6.94183065,6.47616774 6.97841129,6.11253871 6.97841129,5.86997419 C6.97841129,4.41589355 5.79607258,3.23311935 4.34199194,3.23311935 C2.88834677,3.23311935 1.70557258,4.41589355 1.70557258,5.86997419 C1.70557258,6.07160323 1.72908871,6.27279677 1.77437903,6.46832903 C1.43949194,6.45352258 1.01707258,6.39560323 0.812830645,6.16871613 C0.680008065,6.0210871 0.629491935,5.78200645 0.663459677,5.45844194 C0.767975806,4.46640968 1.15425,3.50007097 1.38549194,2.92261935 C1.51875,2.58990968 1.60497581,2.37434516 1.58450806,2.20145806 C2.32787903,2.2328129 2.82868548,2.35823226 3.11479839,2.42965161 C3.15965323,2.44097419 3.20755645,2.4462 3.26155645,2.4462 C3.6221371,2.4462 5.24562097,2.07603871 6.72931452,1.71850645 L6.72931452,1.71850645 Z" id="Fill-1"></path>
                <path d="M4.39076613,4.14746129 C3.42878226,4.14746129 2.64883065,4.9274129 2.64883065,5.88939677 C2.64883065,6.85138065 3.42878226,7.63133226 4.39076613,7.63133226 C5.35275,7.63133226 6.13270161,6.85138065 6.13270161,5.88939677 C6.13270161,4.9274129 5.35275,4.14746129 4.39076613,4.14746129 M4.39076613,4.58294516 C5.11105645,4.58294516 5.69721774,5.16910645 5.69721774,5.88939677 C5.69721774,6.6096871 5.11105645,7.19584839 4.39076613,7.19584839 C3.67047581,7.19584839 3.08431452,6.6096871 3.08431452,5.88939677 C3.08431452,5.16910645 3.67047581,4.58294516 4.39076613,4.58294516" id="Fill-3"></path>
                <path d="M21.5273177,4.14746129 C20.5653339,4.14746129 19.7853823,4.9274129 19.7853823,5.88939677 C19.7853823,6.85138065 20.5653339,7.63133226 21.5273177,7.63133226 C22.4897371,7.63133226 23.2692532,6.85138065 23.2692532,5.88939677 C23.2692532,4.9274129 22.4897371,4.14746129 21.5273177,4.14746129 M21.5273177,4.58294516 C22.2476081,4.58294516 22.8337694,5.16910645 22.8337694,5.88939677 C22.8337694,6.6096871 22.2476081,7.19584839 21.5273177,7.19584839 C20.8070274,7.19584839 20.2208661,6.6096871 20.2208661,5.88939677 C20.2208661,5.16910645 20.8070274,4.58294516 21.5273177,4.58294516" id="Fill-5"></path>
            </g>
        </g>
    </g>
</svg>