<?xml version="1.0" encoding="UTF-8"?>
<svg width="43px" height="18px" viewBox="0 0 43 18" version="1.1" xmlns="http://www.w3.org/2000/svg" xmlns:xlink="http://www.w3.org/1999/xlink">
    <!-- Generator: Sketch 46.2 (44496) - http://www.bohemiancoding.com/sketch -->
    <title>Vehicle 05--default</title>
    <desc>Created with Sketch.</desc>
    <defs></defs>
    <g id="Symbols" stroke="none" stroke-width="1" fill="none" fill-rule="evenodd">
        <g id="Vehicle-05--default" fill="#9B9DA2">
            <g id="Page-1" transform="translate(5.000000, 5.000000)">
                <path d="M8.7509248,3.16949264 L10.1212354,0.995416357 L14.18558,0.995416357 L14.8474417,3.16949264 L8.7509248,3.16949264 Z M4.54467622,3.16949264 C4.52004383,3.10095034 6.2534145,0.987384055 9.39457989,0.986848568 C9.50917406,0.986848568 9.6248392,0.990061489 9.74318178,0.995416357 L8.27808998,3.16949264 L4.54467622,3.16949264 Z M21.8414344,3.35905496 L15.319741,3.16949264 L14.5636337,0.995416357 C14.5636337,0.995416357 14.794964,0.985242108 15.1446368,0.985242108 C15.8450535,0.985242108 17.0209825,1.02701008 17.7770898,1.27922434 C18.9117863,1.657278 21.8414344,3.35905496 21.8414344,3.35905496 L21.8414344,3.35905496 Z M13.7068549,0.267689836 C11.3533905,0.267689836 7.4031046,0.488845872 6.67162967,0.570239861 C5.82074119,0.664485533 4.11949972,0.854047849 4.11949972,0.854047849 C2.71759536,1.08698459 4.34493965,0.938654759 4.45043055,1.09019752 C4.48845011,1.14535265 3.54385144,1.75205916 3.35482461,1.94055051 C3.16579778,2.13011282 1.27552949,3.45276514 1.08650266,3.73710862 C0.89694034,4.02038112 0.991721498,4.68170728 0.991721498,5.24878777 C0.991721498,5.81586826 0.802694668,5.81586826 0.51888668,6.00489509 C0.235614179,6.19392192 0.13601364,6.81883498 0.51888668,7.76236267 C0.872843435,8.63306416 3.14598477,8.7080323 3.91708572,8.7080323 C4.07666078,8.7080323 4.17251291,8.7042839 4.17251291,8.7042839 L4.4440047,8.72088399 C4.38081727,8.51311512 4.34601063,8.29303006 4.34601063,8.06598367 C4.34601063,6.78349285 5.41430673,5.74411303 6.73160419,5.74411303 C8.04890164,5.74411303 9.11719775,6.78349285 9.11719775,8.06598367 C9.11719775,8.39370157 9.04651349,8.70589036 8.92013861,8.98862737 L9.28212767,9.01004684 L25.0795229,9.07055685 C24.9461867,8.78085851 24.8701475,8.46063742 24.8701475,8.12220978 C24.8701475,6.83971896 25.9384437,5.79980366 27.2557411,5.79980366 C28.573574,5.79980366 29.6413347,6.83971896 29.6413347,8.12220978 C29.6413347,8.46706326 29.5620826,8.79263921 29.423927,9.08715694 L29.8373228,9.0887634 C29.8373228,9.0887634 31.0100389,9.05609871 31.1428396,9.02932437 C32.0885092,8.84083302 32.3717817,8.61271566 32.3717817,8.61271566 L32.3717817,6.09967625 C32.3717817,4.8712696 30.8761672,4.32400212 29.0887123,3.95183881 C26.8203904,3.47953948 23.1646222,3.2642738 23.1646222,3.2642738 C21.5581619,2.31860417 18.7698823,0.948829008 18.2970474,0.759266691 C17.8247481,0.570239861 16.6905871,0.381213032 14.7055377,0.286431873 C14.428691,0.273580191 14.0881214,0.267689836 13.7068549,0.267689836 L13.7068549,0.267689836 Z M6.29518247,1.15070752 C5.13317618,1.70654279 4.38777859,2.44712099 4.13770627,2.80268421 C4.00865396,2.98689165 3.97598927,3.17163459 4.04131865,3.35155814 L4.1687645,3.70497941 L4.54467622,3.70497941 L8.27808998,3.70497941 L8.56296894,3.70497941 L8.7509248,3.70497941 L14.8474417,3.70497941 L15.3122442,3.70497941 L21.8259053,3.89400624 L23.9351876,3.95505173 L23.7365221,3.83992208 C24.8626507,3.92185155 27.3189285,4.13015591 28.979473,4.47608036 C30.9554192,4.88786969 31.8362949,5.38854982 31.8362949,6.09967625 L31.8362949,8.28499776 C31.6793973,8.34604325 31.4287895,8.42636626 31.0550197,8.5018699 C30.9709483,8.51311512 30.559159,8.5302507 30.1452277,8.54363787 C30.1661117,8.40494679 30.1768214,8.26464926 30.1768214,8.12220978 C30.1768214,6.5468077 28.8664853,5.26431689 27.2557411,5.26431689 C25.6449969,5.26431689 24.3346608,6.5468077 24.3346608,8.12220978 C24.3346608,8.26036537 24.344835,8.39744998 24.3651835,8.53239264 L9.62269726,8.47563105 C9.64304575,8.34068838 9.65268452,8.20413925 9.65268452,8.06598367 C9.65268452,6.4900461 8.34234839,5.20862626 6.73160419,5.20862626 C5.12085998,5.20862626 3.81052386,6.4900461 3.81052386,8.06598367 C3.81052386,8.10132579 3.81105934,8.13613243 3.8126658,8.17201005 C2.04984336,8.15862288 1.11648992,7.8094855 1.01528292,7.56048416 C0.736829796,6.87559658 0.798410774,6.5184269 0.838036795,6.43649743 C0.867488567,6.4172199 0.895869366,6.40061981 0.922643705,6.3850907 C1.24125833,6.19713484 1.52720827,5.96955296 1.52720827,5.24878777 C1.52720827,5.09885148 1.52131791,4.94195385 1.51489207,4.78719818 C1.50525331,4.55104851 1.48972419,4.16228511 1.53309862,4.03537475 C1.7082028,3.85063181 2.50822003,3.25570601 2.94464175,2.93120103 C3.45710259,2.54993445 3.64398747,2.40856594 3.73287827,2.31967514 C3.79285279,2.26184257 4.0595252,2.07174476 4.21910026,1.95768608 C4.55485047,1.71885898 4.83598102,1.51805144 4.94896873,1.30064382 L6.29518247,1.15070752 L6.29518247,1.15070752 Z" id="Fill-1"></path>
                <path d="M27.2793561,6.17426956 C26.170363,6.17426956 25.2712807,7.07335184 25.2712807,8.18234494 C25.2712807,9.29080256 26.170363,10.1904203 27.2793561,10.1904203 C28.3883492,10.1904203 29.2874315,9.29080256 29.2874315,8.18234494 C29.2874315,7.07335184 28.3883492,6.17426956 27.2793561,6.17426956 M27.2793561,6.70975633 C28.0916895,6.70975633 28.7519447,7.37001151 28.7519447,8.18234494 C28.7519447,8.99414289 28.0916895,9.65493356 27.2793561,9.65493356 C26.4675581,9.65493356 25.8067675,8.99414289 25.8067675,8.18234494 C25.8067675,7.37001151 26.4675581,6.70975633 27.2793561,6.70975633" id="Fill-3"></path>
                <path d="M6.74284941,6.18214121 C5.63385631,6.18214121 4.73477402,7.08175898 4.73477402,8.1902166 C4.73477402,9.2992097 5.63385631,10.198292 6.74284941,10.198292 C7.85184251,10.198292 8.7509248,9.2992097 8.7509248,8.1902166 C8.7509248,7.08175898 7.85184251,6.18214121 6.74284941,6.18214121 M6.74284941,6.71762798 C7.55464735,6.71762798 8.21543803,7.37841866 8.21543803,8.1902166 C8.21543803,9.00255003 7.55464735,9.66280522 6.74284941,9.66280522 C5.93051598,9.66280522 5.27026079,9.00255003 5.27026079,8.1902166 C5.27026079,7.37841866 5.93051598,6.71762798 6.74284941,6.71762798" id="Fill-5"></path>
            </g>
        </g>
    </g>
</svg>