<?xml version="1.0" encoding="UTF-8"?>
<svg width="43px" height="18px" viewBox="0 0 43 18" version="1.1" xmlns="http://www.w3.org/2000/svg" xmlns:xlink="http://www.w3.org/1999/xlink">
    <!-- Generator: Sketch 46.2 (44496) - http://www.bohemiancoding.com/sketch -->
    <title>Vehicle 03--active</title>
    <desc>Created with Sketch.</desc>
    <defs>
        <polygon id="path-1" points="0 4.73058699e-15 20 0 20 14.1538462 8.75136524e-16 14.1538462 0 0"></polygon>
    </defs>
    <g id="Symbols" stroke="none" stroke-width="1" fill="none" fill-rule="evenodd">
        <g id="Vehicle-03--active">
            <g id="Page-1" transform="translate(12.000000, 2.000000)">
                <mask id="mask-2" fill="white">
                    <use xlink:href="#path-1"></use>
                </mask>
                <g id="Clip-2"></g>
                <path d="M12.3667368,0 L12.2803563,0 C12.2566352,0 12.2373898,0.0190848349 12.2373898,0.0426080035 L12.2203822,2.14948501 C12.2203822,2.16368768 12.2127736,2.17700268 12.2006893,2.18499168 L12.1890525,2.19209301 L12.102672,2.07003884 C12.0771606,2.03320067 12.0355369,2.01322816 11.9934655,2.01322816 C11.967059,2.01322816 11.9406526,2.02121716 11.917379,2.03719517 L11.893658,2.05317317 C11.8336839,2.0948935 11.8184666,2.17700268 11.8609855,2.23736402 L11.953632,2.36962636 C11.9531844,2.37362086 11.9482612,2.37628386 11.9491563,2.37983453 L12.0010742,2.60441421 C12.0051023,2.62261138 11.9965985,2.64169622 11.9800385,2.65146055 L11.8184666,2.74022722 C11.8117531,2.74377789 11.8153337,2.75265456 11.8113056,2.75886822 L11.5638007,2.9022264 C11.4997986,2.93862074 11.4787629,3.01984225 11.5154635,3.08286658 L11.5297856,3.10727742 C11.5548494,3.14944159 11.5996061,3.17252093 11.645258,3.17252093 C11.668084,3.17252093 11.6909099,3.16719492 11.7123931,3.15476759 L11.8918677,3.05091058 L11.9240926,3.14145259 C11.9303585,3.15831826 11.9469185,3.16985793 11.9648212,3.16985793 L12.0905877,3.16985793 C12.105805,3.16985793 12.1196795,3.17740309 12.1272882,3.18983043 L12.159513,3.2413151 C12.1671217,3.25374243 12.1809963,3.26173143 12.1962136,3.26173143 L12.2579779,3.26173143 C12.2714049,3.26173143 12.2834892,3.26705743 12.2915455,3.2772656 L12.4159692,3.42861278 L12.3533098,3.45834962 C12.3371973,3.46633862 12.3255606,3.47876595 12.3121336,3.48941795 L11.9715347,3.64919796 C11.8753077,3.69402513 11.8363693,3.80631498 11.8847066,3.89774465 L13.1929463,6.37655402 C13.2582912,6.50038353 13.3088663,6.63042671 13.343329,6.76535205 C13.4028555,6.99792074 13.4144922,7.23980992 13.3773441,7.47637311 L13.3760014,7.48436211 C13.3513852,7.64059146 13.3057333,7.79327014 13.2403885,7.93795981 L12.2687195,10.0905517 C12.2127736,10.2143812 12.1366871,10.3284463 12.0431455,10.4287527 C11.8672515,10.6178257 11.6358591,10.7509757 11.3798505,10.8108932 L11.27691,10.835304 C11.1757597,10.8588272 11.0719241,10.8708107 10.9676409,10.8708107 L9.59987468,10.8708107 C9.5940563,10.8330849 9.58644766,10.795359 9.56764982,10.76074 L8.4782706,8.73597221 C8.46573871,8.71200521 8.4590252,8.68493137 8.4590252,8.65830137 L8.4590252,6.98238657 C8.4590252,6.98238657 8.50825762,6.9828304 8.55883274,6.9828304 C8.58389652,6.9828304 8.6089603,6.9828304 8.6282057,6.98238657 C8.87973862,6.97927974 9.08203912,6.77644789 9.08203912,6.5265697 C9.08203912,5.97532865 8.63133867,5.52838845 8.07501231,5.52838845 L3.01973773,5.52838845 C2.77312805,5.52838845 2.57351296,5.72633813 2.57351296,5.97089032 C2.57351296,6.07030899 2.67645348,6.17727284 2.63438213,6.23896568 C2.59275836,6.30021468 2.44237569,6.32906385 2.44237569,6.43514002 L2.44237569,7.12352558 C2.44237569,7.23093326 2.52965134,7.31836843 2.63841024,7.31969993 L3.75598621,7.3325711 C3.83072998,7.33301493 3.90502618,7.34499843 3.97663698,7.36674627 C4.29261961,7.46217044 4.57951036,7.63659696 4.80866491,7.87271631 C4.85924003,7.92464481 4.90175894,7.98411848 4.9353265,8.04936199 L6.38678781,10.8845696 L5.34216533,10.9631281 C5.09958376,9.73370963 4.0079667,8.80521022 2.69659401,8.80521022 C1.20708947,8.80521022 0,10.0022288 0,11.4793063 C0,12.9559399 1.20708947,14.1538462 2.69659401,14.1538462 C4.10866938,14.1538462 5.26518373,13.0766626 5.38199884,11.7061051 L6.92879202,11.6217768 C7.11945576,11.8201703 7.34413463,11.9843886 7.59611511,12.1011168 C7.93760909,12.2591215 8.30998523,12.3412307 8.68683704,12.3412307 L11.3140581,12.3412307 C11.6900148,12.3412307 12.0610482,12.2564585 12.3994092,12.0944593 C12.7091259,11.946219 12.9843799,11.735842 13.2081636,11.4766433 L13.2932015,11.3789999 C13.4682003,11.1761681 13.6087365,10.9467062 13.7103343,10.699491 L14.7491384,8.16431483 C14.8068746,8.02273199 14.8507362,7.87626698 14.8802757,7.7262513 C14.8816184,7.7209253 14.8811708,7.71604313 14.882066,7.71071713 L14.8829611,7.71071713 C14.8856465,7.71071713 14.8883319,7.71249246 14.8914649,7.71249246 C14.8919125,7.71249246 14.8928076,7.71249246 14.8932552,7.71204863 L15.2387772,7.58511229 C15.247281,7.58200545 15.2557848,7.58067395 15.2642886,7.58067395 C15.2924853,7.58067395 15.3188918,7.59665195 15.3309761,7.62416962 C15.3323188,7.62727646 15.3358994,7.62772029 15.3376897,7.63038329 L15.9128139,8.77813638 L15.9065479,8.78124322 C15.8667144,8.79899655 15.8479166,8.84471139 15.8635814,8.88554406 L15.930269,9.06085824 C15.9428009,9.09281424 15.973683,9.11367441 16.0081457,9.11367441 L16.0229155,9.11367441 C16.0282863,9.11367441 16.0327619,9.11722508 16.0381327,9.11811274 C15.1864119,9.56815978 14.6063644,10.4562704 14.6063644,11.4793063 C14.6063644,12.9559399 15.8139014,14.1538462 17.303406,14.1538462 C18.792463,14.1538462 20,12.9559399 20,11.4793063 C20,10.0022288 18.792463,8.80521022 17.303406,8.80521022 C17.028152,8.80521022 16.7627445,8.84648672 16.5125543,8.92282606 C16.5121067,8.90773573 16.5062883,8.89353306 16.5134494,8.88066189 C16.5255337,8.85847022 16.5268764,8.83184022 16.5174775,8.80920472 L16.4427337,8.63167137 C16.4297543,8.6001592 16.3984246,8.58107437 16.3661997,8.58107437 C16.354563,8.58107437 16.3429262,8.58329353 16.331737,8.58861953 L16.2829522,8.61036737 L15.7257307,7.52031261 C15.7561652,7.50034011 15.7704874,7.46305811 15.7539274,7.42977061 L15.5305912,6.98105507 C15.5243253,6.9681839 15.5126885,6.96197023 15.5014994,6.9548689 L15.5019469,6.0849555 C15.5023945,5.86836481 15.3251578,5.69216296 15.1062973,5.69171913 L15.021707,5.69171913 L15.0212595,5.69171913 C14.8180638,5.69171913 14.6569395,5.84572931 14.633666,6.04057216 C14.5826433,5.91851798 14.5356487,5.79468847 14.4725417,5.67751646 L13.1719107,3.2732711 C13.1365528,3.20758376 13.068075,3.16985793 12.9973594,3.16985793 C12.9682675,3.16985793 12.938728,3.17607159 12.9105313,3.18983043 L12.6285638,3.32564344 C12.6397529,3.31365994 12.6473616,3.29812577 12.6410956,3.2825916 L12.5775411,3.12769375 C12.57038,3.11082809 12.5753032,3.09085559 12.5896254,3.07887208 L12.5905205,3.07842825 C12.6048427,3.06600092 12.6097659,3.04647225 12.6030524,3.02916275 L12.4857897,2.73756422 L12.5090632,2.74466556 C12.5283086,2.75043539 12.547554,2.75309839 12.5663519,2.75309839 C12.6491519,2.75309839 12.7261335,2.69983839 12.7516448,2.61728538 L12.8451864,2.31769786 C12.8765161,2.21606001 12.8192275,2.10820851 12.7167345,2.07714017 L12.490713,2.00745833 C12.4728103,2.00257616 12.4549076,1.99991316 12.4374524,1.99991316 C12.3962762,1.99991316 12.3568903,2.013672 12.3237703,2.03675133 L12.3237703,1.37632728 C12.3237703,1.35236028 12.3430157,1.33327544 12.3667368,1.33327544 C12.3904579,1.33327544 12.4097033,1.31419061 12.4097033,1.29066744 L12.4097033,0.0430518368 C12.4097033,0.0195286683 12.3904579,0 12.3667368,0 M2.69659401,9.24904359 C3.76941324,9.24904359 4.69722061,10.0057795 4.90265408,11.0487879 L4.96262812,11.3519261 L4.93577407,11.6688231 C4.83865193,12.8134694 3.85489863,13.7100128 2.69659401,13.7100128 C1.45638455,13.7100128 0.447567471,12.7091685 0.447567471,11.4793063 C0.447567471,10.249444 1.45638455,9.24904359 2.69659401,9.24904359 M17.303406,9.24904359 C18.5436155,9.24904359 19.5524325,10.249444 19.5524325,11.4793063 C19.5524325,12.7091685 18.5436155,13.7100128 17.303406,13.7100128 C16.0631965,13.7100128 15.0539319,12.7091685 15.0539319,11.4793063 C15.0539319,10.6537762 15.5117934,9.89925947 16.2484895,9.51001761 L16.4404959,9.40837977 L16.6436915,9.34713076 C16.8576288,9.28188726 17.0796223,9.24904359 17.303406,9.24904359 M15.0543794,6.29755168 L15.0539319,6.95442507 L15.0575124,7.17856092 L14.9460681,7.21939359 L15.0543794,6.29755168 M12.8908383,3.69269363 L14.0782348,5.88744965 C14.1176207,5.96023832 14.1520834,6.04412283 14.188784,6.13377717 L14.2205612,6.21100417 L14.6752898,7.29750826 L14.4989482,7.33079576 L14.4421071,7.62816412 L14.4358412,7.66544612 L14.4358412,7.66766529 C14.4121201,7.77995513 14.378105,7.89046964 14.3342434,7.99743349 L13.2954393,10.5326097 C13.2126393,10.7354415 13.0971669,10.9231831 12.9534977,11.0896206 L12.8684599,11.1881516 C12.6836146,11.4016354 12.4602784,11.5720674 12.2047174,11.6950093 C11.9285682,11.8268278 11.6206418,11.8973973 11.3140581,11.8973973 L8.68683704,11.8973973 C8.37756792,11.8973973 8.06606096,11.8281593 7.78543615,11.69856 C7.58895403,11.6075741 7.40947948,11.4788624 7.25283086,11.3155318 L7.11005684,11.1668476 L7.03531307,11.1708421 L6.78601799,10.6839569 L5.33410912,7.84786164 C5.28040102,7.7435608 5.21237076,7.64858046 5.13091349,7.56513978 C4.84939355,7.27531659 4.49581524,7.05961358 4.10777425,6.94244157 C3.99588238,6.90782256 3.87906727,6.89006923 3.76090946,6.88873773 L2.88994316,6.87897339 L2.88994316,6.61045421 C2.9293291,6.57894204 2.9705053,6.5385532 3.0063107,6.4852932 C3.14192364,6.28512435 3.08463501,6.07918566 3.04256367,5.97222182 L8.07501231,5.97222182 C8.3833863,5.97222182 8.63447165,6.22121234 8.62238732,6.53899703 L8.55883274,6.53899703 L8.46215817,6.5385532 L8.01145773,6.5358902 L8.01145773,6.98238657 L8.01145773,8.65830137 C8.01145773,8.75772005 8.03652151,8.85713872 8.08351609,8.9445739 L9.15857315,10.9431556 L9.21720449,11.3146441 L9.59987468,11.3146441 L10.9676409,11.3146441 C11.1063868,11.3146441 11.2451327,11.2986661 11.3802981,11.2671539 L11.4832386,11.2427431 C11.8269704,11.1619654 12.1344493,10.9848759 12.3721076,10.7301155 C12.4983216,10.5938587 12.6012621,10.4394047 12.676901,10.2720795 L13.6490176,8.11904383 C13.7304749,7.93840365 13.7873159,7.74799913 13.8195408,7.54472345 C13.8665354,7.24691126 13.8522132,6.9482114 13.7770219,6.65572521 C13.7340554,6.4879562 13.6709484,6.32462552 13.5894911,6.17061534 L12.4097033,3.93502665 L12.5036924,3.89108715 L12.5739605,3.85291748 L12.5918632,3.83738331 L12.8245983,3.72509347 L12.8908383,3.69269363" id="Fill-1" fill="#FFFFFF" mask="url(#mask-2)"></path>
            </g>
        </g>
    </g>
</svg>