<?xml version="1.0" encoding="UTF-8"?>
<svg width="43px" height="18px" viewBox="0 0 43 18" version="1.1" xmlns="http://www.w3.org/2000/svg" xmlns:xlink="http://www.w3.org/1999/xlink">
    <!-- Generator: Sketch 46.2 (44496) - http://www.bohemiancoding.com/sketch -->
    <title>Vehicle 02--active</title>
    <desc>Created with Sketch.</desc>
    <defs></defs>
    <g id="Symbols" stroke="none" stroke-width="1" fill="none" fill-rule="evenodd">
        <g id="Vehicle-02--active" fill="#FFFFFF">
            <g id="Page-1" transform="translate(8.000000, 4.000000)">
                <path d="M12.0833738,4.1900798 L18.5017181,4.1900798 C18.2335563,3.39150796 16.7815132,2.24278575 15.9331803,1.79484133 C15.6387101,1.74236648 13.461107,1.35930006 12.0833738,1.32924628 L12.0833738,4.1900798 Z M19.0066562,4.66712391 L11.6218216,4.66712391 L11.6218216,0.853156257 L11.8502899,0.850771036 C13.3355648,0.836936757 15.9368728,1.3111186 16.0471837,1.3316315 L16.1099548,1.35309848 C16.8521307,1.73664195 19.0066562,3.23885385 19.0066562,4.42860185 L19.0066562,4.66712391 Z M4.83285091,2.95167329 C4.75161773,3.22120321 4.79961915,3.51076899 4.96254706,3.74642878 C5.14347551,4.00641782 5.4407151,4.16622759 5.75918609,4.17481439 L6.08319571,4.18340118 L6.08319571,1.81392309 C5.99319304,1.81630831 5.89626708,1.81917058 5.8044182,1.82203284 C5.65995238,1.82632624 5.52887156,1.82966555 5.45963874,1.83300486 C5.28424892,1.84111461 5.13285981,1.95512815 5.08439683,2.11636906 L4.83285091,2.95167329 Z M6.54474787,4.19628137 C7.37877262,4.21488609 8.08125501,4.20105181 8.76158289,4.18721753 C9.41375609,4.17481439 10.0345437,4.16288828 10.6987173,4.181493 L10.6987173,1.33497081 C9.69714912,1.37313434 8.77589101,1.50241329 7.95571282,1.61738092 C7.43046646,1.69132276 6.96568344,1.75620075 6.54474787,1.79007089 L6.54474787,4.19628137 Z M7.37738796,4.68191227 C7.11291858,4.68191227 6.83737194,4.67952705 6.54474787,4.67332548 L6.54474787,4.67380252 L6.42751362,4.67046322 C6.38782013,4.66950913 6.34766509,4.668078 6.30751006,4.66712391 L5.74718574,4.6518585 C5.28517202,4.63945535 4.8522361,4.40522669 4.58776671,4.02454549 C4.33945165,3.66580832 4.26744951,3.22358843 4.39206859,2.80999119 L4.64361452,1.97420991 C4.74977152,1.62215136 5.06962717,1.37408842 5.43886889,1.35691484 C5.50948637,1.35309848 5.64379805,1.34928213 5.79195629,1.34498873 C5.9742694,1.33974125 6.1768908,1.33449376 6.30243298,1.32829219 C6.76121583,1.3034859 7.28553908,1.2300211 7.89340328,1.14463021 C8.78973757,1.01916761 9.80561387,0.876531418 10.9244163,0.850771036 L11.1602695,0.845523551 L11.1602695,4.67714183 L10.9202623,4.66712391 C10.1771634,4.63707013 9.49406617,4.65042736 8.76989083,4.66426164 C8.3254161,4.67332548 7.87171033,4.68191227 7.37738796,4.68191227 L7.37738796,4.68191227 Z M27.1322819,5.27249288 L27.0976655,5.40415706 C27.1059735,5.39604731 27.114743,5.38889164 27.123974,5.38221303 L27.1322819,5.27249288 Z M27.4521376,5.67845742 C27.451676,5.67845742 27.451676,5.67893446 27.451676,5.67941151 C27.451676,5.67893446 27.451676,5.67845742 27.4521376,5.67845742 L27.4521376,5.67845742 Z M23.0424683,6.18555531 C25.1189914,6.18555531 25.9174767,7.89909774 25.9751707,9.52247885 C26.4376459,9.51389205 26.8821207,9.38652128 27.110589,9.30828604 C27.1825911,9.28395679 27.2504393,9.24579326 27.3113642,9.19618068 L27.3769046,9.14275174 C27.4798307,9.05783789 27.5384478,8.93332937 27.5384478,8.79927998 L27.5384478,7.15681711 C27.5384478,7.12390107 27.5227551,7.09337024 27.4969081,7.07381144 C27.3958282,7.00082369 27.3201337,6.89539694 27.2827479,6.77756704 L27.0196632,5.93796941 C26.9836621,5.82300178 26.9767389,5.70087849 26.9988934,5.58591086 C27.0053551,5.55156368 27.0164323,5.52007877 27.0321251,5.49145613 L25.4346931,5.04160353 C24.022805,4.64422579 22.5721466,4.32985372 21.1219497,4.10612004 L21.0541016,4.08417601 L20.4190058,3.75930897 L16.8022831,1.28822048 C16.6638174,1.2138016 16.5350444,1.1369975 16.4242718,1.07021133 C16.217958,0.946656902 16.0933389,0.872238021 15.9636428,0.846477639 C12.1313752,0.101334741 6.36658873,0.627037349 4.08005934,1.31588904 L3.94897852,1.35452962 C3.65773911,1.43896642 3.38311557,1.51958688 3.17126313,1.6960932 L2.80663693,1.99997029 C2.70140303,2.1287722 1.51936795,3.52412622 1.21243577,4.32078988 L1.18889661,4.37851222 C1.17828091,4.40236443 1.16304969,4.43909682 1.16212658,4.45149997 C1.16951142,4.89992143 1.19397368,6.3801893 1.1764347,6.5586038 C1.15751106,6.76134754 0.981198136,6.92735889 0.777192082,7.11960767 C0.680266128,7.2107231 0.579647758,7.30470078 0.521492186,7.38341306 C0.410258115,7.55944234 0.457336435,8.46200979 0.587032592,8.61991139 C0.689958724,8.68908279 1.43582701,8.90375264 2.84079179,9.2061986 C2.95110275,7.73451753 3.82989806,6.18555531 5.97842337,6.18555531 C7.79278491,6.18555531 8.66004141,7.83183453 8.8705092,9.3889065 L20.1102274,9.51389205 C20.1706907,7.89480435 20.9710222,6.18555531 23.0424683,6.18555531 L23.0424683,6.18555531 Z M25.9276308,10 L25.9248615,10 C25.7042396,10 25.5205418,9.81442984 25.5154647,9.5868798 C25.4974642,8.90136742 25.2671497,6.66259941 23.0424683,6.66259941 C20.823787,6.66259941 20.588857,8.89516584 20.5699333,9.57972414 C20.5634716,9.80727418 20.3797738,9.99141321 20.1586904,9.99141321 L20.1545364,9.99141321 L8.82158467,9.86547356 C8.61850172,9.86356538 8.44495811,9.7047097 8.41864963,9.49624142 C8.33418559,8.83124193 7.90817295,6.66259941 5.97842337,6.66259941 C3.63973857,6.66259941 3.33511415,8.67811077 3.29726687,9.2958829 C3.28895893,9.41991436 3.23034181,9.53297382 3.13572362,9.6073927 C3.04156698,9.68228862 2.92202497,9.71138831 2.80479072,9.68562793 C0.509953382,9.19379546 0.3428715,9.03589386 0.271792467,8.96910768 C-0.0494478357,8.6642765 -0.0831411433,7.41346684 0.155942875,7.09241616 C0.239022264,6.98078784 0.354410304,6.87202178 0.466105926,6.76659503 C0.553800837,6.68454344 0.699189767,6.54715474 0.721344271,6.49277171 C0.727806001,6.39974811 0.716728749,5.39413913 0.700574423,4.45913268 C0.698728215,4.34511913 0.737960148,4.25304962 0.76611483,4.1857864 C1.11227895,3.29037461 2.26200538,1.92173506 2.48908904,1.65602149 L2.88140838,1.32495288 C3.16664761,1.08690787 3.50034982,0.989590872 3.82343633,0.895136138 L3.95128628,0.857449654 C6.33658784,0.138544182 12.0930664,-0.391451823 16.0494915,0.378020324 C16.25719,0.418569074 16.4242718,0.518748337 16.655971,0.658045216 C16.762128,0.721492083 16.8853624,0.79543392 17.0372131,0.878439595 L20.6488588,3.34618877 L21.2262605,3.64004794 C22.6815345,3.8656898 24.1381931,4.18244709 25.5556198,4.58125597 L27.1932068,5.04208058 C27.2721322,5.06497869 27.3565963,5.09598656 27.4544453,5.20761488 C27.5264475,5.29014351 27.5679872,5.37935076 27.5896801,5.43945832 L27.6353738,5.56778318 L27.5476789,5.70135554 C27.5222935,5.73331749 27.4899849,5.75812378 27.4544453,5.77482033 C27.45583,5.78054486 27.4576762,5.78579234 27.4590609,5.79103983 L27.721684,6.62968337 C27.7281458,6.65019627 27.7429154,6.66927803 27.7627622,6.6840664 L27.7627622,6.68454344 C27.911382,6.79283246 28,6.96933878 28,7.15681711 L28,8.79927998 C28,9.07978191 27.8781502,9.34120209 27.6649131,9.51532319 L27.6053729,9.56445873 C27.4950619,9.65462007 27.3796739,9.71902102 27.2550548,9.76195499 C26.9919701,9.85068519 26.4708777,10 25.9276308,10 L25.9276308,10 Z" id="Fill-1"></path>
                <path d="M5.80000019,7 C4.69555575,7 3.80000019,7.896 3.80000019,9 C3.80000019,10.1044444 4.69555575,11 5.80000019,11 C6.90444464,11 7.80000019,10.1044444 7.80000019,9 C7.80000019,7.896 6.90444464,7 5.80000019,7 M5.80000019,7.44444444 C6.65777797,7.44444444 7.35555575,8.14222222 7.35555575,9 C7.35555575,9.85822222 6.65777797,10.5555556 5.80000019,10.5555556 C4.94222241,10.5555556 4.24444464,9.85822222 4.24444464,9 C4.24444464,8.14222222 4.94222241,7.44444444 5.80000019,7.44444444" id="Fill-3"></path>
                <path d="M23,7 C21.8955556,7 21,7.896 21,9 C21,10.1044444 21.8955556,11 23,11 C24.1044444,11 25,10.1044444 25,9 C25,7.896 24.1044444,7 23,7 M23,7.44444444 C23.8577778,7.44444444 24.5555556,8.14222222 24.5555556,9 C24.5555556,9.85822222 23.8577778,10.5555556 23,10.5555556 C22.1422222,10.5555556 21.4444444,9.85822222 21.4444444,9 C21.4444444,8.14222222 22.1422222,7.44444444 23,7.44444444" id="Fill-5"></path>
            </g>
        </g>
    </g>
</svg>