<?xml version="1.0" encoding="UTF-8"?>
<svg width="40px" height="40px" viewBox="0 0 40 40" version="1.1" xmlns="http://www.w3.org/2000/svg" xmlns:xlink="http://www.w3.org/1999/xlink">
    <!-- Generator: Sketch 50.2 (55047) - http://www.bohemiancoding.com/sketch -->
    <title>Vehicle 03--active</title>
    <desc>Created with Sketch.</desc>
    <defs>
        <polygon id="path-1" points="0 5.20364569e-15 22 0 22 15.5692308 9.62650176e-16 15.5692308 0 0"></polygon>
    </defs>
    <g id="Vehicle-03--active" stroke="none" stroke-width="1" fill="none" fill-rule="evenodd">
        <g id="Page-1" transform="translate(9.000000, 12.000000)">
            <mask id="mask-2" fill="white">
                <use xlink:href="#path-1"></use>
            </mask>
            <g id="Clip-2"></g>
            <path d="M13.6034105,0 L13.5083919,0 C13.4822987,0 13.4611288,0.0209933184 13.4611288,0.0468688038 L13.4424204,2.36443351 C13.4424204,2.38005644 13.4340509,2.39470295 13.4207582,2.40349085 L13.4079577,2.41130231 L13.3129392,2.27704272 C13.2848767,2.23652073 13.2390905,2.21455098 13.1928121,2.21455098 C13.1637649,2.21455098 13.1347178,2.22333888 13.1091169,2.24091468 L13.0830238,2.25849048 C13.0170523,2.30438285 13.0003133,2.39470295 13.0470841,2.46110042 L13.1489952,2.606589 C13.1485029,2.61098295 13.1430873,2.61391225 13.144072,2.61781798 L13.2011816,2.86485563 C13.2056125,2.88487252 13.1962583,2.90586584 13.1780423,2.9166066 L13.0003133,3.01424995 C12.9929284,3.01815568 12.996867,3.02792001 12.9924361,3.03475505 L12.7201808,3.19244904 C12.6497785,3.23248281 12.6266392,3.32182647 12.6670098,3.39115324 L12.6827642,3.41800516 C12.7103343,3.46438575 12.7595668,3.48977302 12.8097838,3.48977302 C12.8348924,3.48977302 12.8600009,3.48391442 12.8836325,3.47024435 L13.0810545,3.35600164 L13.1165018,3.45559785 C13.1233944,3.47415008 13.1416103,3.48684372 13.1613033,3.48684372 L13.2996464,3.48684372 C13.3163854,3.48684372 13.3316475,3.4951434 13.340017,3.50881347 L13.3754644,3.56544661 C13.3838339,3.57911668 13.3990959,3.58790458 13.4158349,3.58790458 L13.4837757,3.58790458 C13.4985454,3.58790458 13.5118382,3.59376318 13.5207,3.60499216 L13.6575661,3.77147406 L13.5886407,3.80418458 C13.5709171,3.81297248 13.5581166,3.82664255 13.5433469,3.83835975 L13.1686882,4.01411776 C13.0628385,4.06342765 13.0200063,4.18694647 13.0731773,4.28751912 L14.512241,7.01420942 C14.5841203,7.15042188 14.6397529,7.29346938 14.6776619,7.44188726 C14.743141,7.69771281 14.7559415,7.96379092 14.7150785,8.22401042 L14.7136016,8.23279832 C14.6865237,8.4046506 14.6363067,8.57259715 14.5644273,8.7317558 L13.4955915,11.0996068 C13.4340509,11.2358193 13.3503558,11.361291 13.2474601,11.471628 C13.0539766,11.6796083 12.799445,11.8260733 12.5178356,11.8919825 L12.404601,11.9188345 C12.2933357,11.9447099 12.1791165,11.9578918 12.064405,11.9578918 L10.5598621,11.9578918 C10.5534619,11.9163934 10.5450924,11.874895 10.5244148,11.836814 L9.32609766,9.60956943 C9.31231258,9.58320573 9.30492772,9.55342451 9.30492772,9.52413151 L9.30492772,7.68062523 C9.30492772,7.68062523 9.35908338,7.68111344 9.41471602,7.68111344 C9.44228617,7.68111344 9.46985633,7.68111344 9.49102627,7.68062523 C9.76771248,7.67720771 9.99024303,7.45409267 9.99024303,7.17922667 C9.99024303,6.57286152 9.49447254,6.0812273 8.88251354,6.0812273 L3.3217115,6.0812273 C3.05044085,6.0812273 2.83086425,6.29897195 2.83086425,6.56797935 C2.83086425,6.67733989 2.94409882,6.79500012 2.89782035,6.86286224 C2.85203419,6.93023615 2.68661326,6.96197023 2.68661326,7.07865403 L2.68661326,7.83587814 C2.68661326,7.95402658 2.78261648,8.05020527 2.90225126,8.05166992 L4.13158484,8.06582821 C4.21380298,8.06631642 4.2955288,8.07949828 4.37430068,8.10342089 C4.72188157,8.20838749 5.0374614,8.40025665 5.2895314,8.65998794 C5.34516403,8.71710929 5.39193483,8.78253033 5.42885915,8.85429819 L7.02546659,11.9730265 L5.87638186,12.0594409 C5.60954214,10.7070806 4.40876337,9.68573124 2.96625341,9.68573124 C1.32779842,9.68573124 0,11.0024517 0,12.6272369 C0,14.2515339 1.32779842,15.5692308 2.96625341,15.5692308 C4.51953632,15.5692308 5.7917021,14.3843288 5.92019872,12.8767156 L7.62167122,12.7839545 C7.83140133,13.0021873 8.07854809,13.1828275 8.35572663,13.3112285 C8.73137,13.4850336 9.14098375,13.5753537 9.55552074,13.5753537 L12.4454639,13.5753537 C12.8590162,13.5753537 13.267153,13.4821043 13.6393501,13.3039053 C13.9800385,13.1408409 14.2828179,12.9094262 14.52898,12.6243076 L14.6225216,12.5168999 C14.8150204,12.2937849 14.9696102,12.0413768 15.0813678,11.7694401 L16.2240523,8.98074632 C16.2875621,8.82500519 16.3358099,8.66389367 16.3683033,8.49887643 C16.3697802,8.49301783 16.3692879,8.48764744 16.3702726,8.48178884 L16.3712572,8.48178884 C16.3742112,8.48178884 16.3771651,8.48374171 16.3806114,8.48374171 C16.3811037,8.48374171 16.3820883,8.48374171 16.3825807,8.48325349 L16.762655,8.34362351 C16.7720091,8.340206 16.7813633,8.33874135 16.7907175,8.33874135 C16.8217339,8.33874135 16.850781,8.35631715 16.8640738,8.38658658 C16.8655507,8.3900041 16.8694893,8.39049232 16.8714586,8.39342162 L17.5040952,9.65595002 L17.4972027,9.65936754 C17.4533858,9.67889621 17.4327082,9.72918253 17.4499396,9.77409846 L17.5232959,9.96694406 C17.537081,10.0020957 17.5710513,10.0250419 17.6089603,10.0250419 L17.625207,10.0250419 C17.6311149,10.0250419 17.6360381,10.0289476 17.641946,10.029924 C16.705053,10.5249758 16.0670009,11.5018974 16.0670009,12.6272369 C16.0670009,14.2515339 17.3952916,15.5692308 19.0337466,15.5692308 C20.6717093,15.5692308 22,14.2515339 22,12.6272369 C22,11.0024517 20.6717093,9.68573124 19.0337466,9.68573124 C18.7309672,9.68573124 18.4390189,9.73113539 18.1638097,9.81510867 C18.1633174,9.7985093 18.1569172,9.78288636 18.1647943,9.76872808 C18.1780871,9.74431724 18.1795641,9.71502424 18.1692253,9.69012519 L18.0870071,9.49483851 C18.0727297,9.46017512 18.038267,9.4391818 18.0028197,9.4391818 C17.9900192,9.4391818 17.9772188,9.44162289 17.9649107,9.44748149 L17.9112474,9.47140411 L17.2983037,8.27234387 C17.3317818,8.25037412 17.3475361,8.20936392 17.3293201,8.17274767 L17.0836504,7.67916058 C17.0767578,7.66500229 17.0639574,7.65816726 17.0516493,7.65035579 L17.0521416,6.69345105 C17.0526339,6.45520129 16.8576735,6.26137926 16.616927,6.26089104 L16.5238777,6.26089104 L16.5233854,6.26089104 C16.2998702,6.26089104 16.1226335,6.43030224 16.0970326,6.64462938 C16.0409077,6.51036978 15.9892136,6.37415732 15.9197959,6.24526811 L14.4891017,3.60059821 C14.4502081,3.52834214 14.3748825,3.48684372 14.2970953,3.48684372 C14.2650942,3.48684372 14.2326008,3.49367875 14.2015844,3.50881347 L13.8914201,3.65820778 C13.9037282,3.64502593 13.9120977,3.62793835 13.9052052,3.61085076 L13.8352952,3.44046313 C13.827418,3.4219109 13.8328335,3.39994114 13.8485879,3.38675929 L13.8495726,3.38627108 C13.8653269,3.37260101 13.8707425,3.35111947 13.8633577,3.33207902 L13.7343687,3.01132065 L13.7599696,3.01913211 C13.7811395,3.02547893 13.8023094,3.02840823 13.8229871,3.02840823 C13.914067,3.02840823 13.9987468,2.96982223 14.0268093,2.87901392 L14.1297051,2.54946764 C14.1641677,2.43766602 14.1011502,2.31902936 13.988408,2.28485419 L13.7397843,2.20820416 C13.7200913,2.20283378 13.7003983,2.19990448 13.6811977,2.19990448 C13.6359039,2.19990448 13.5925793,2.2150392 13.5561473,2.24042647 L13.5561473,1.51396001 C13.5561473,1.4875963 13.5773173,1.46660299 13.6034105,1.46660299 C13.6295036,1.46660299 13.6506736,1.44560967 13.6506736,1.41973418 L13.6506736,0.0473570205 C13.6506736,0.0214815351 13.6295036,0 13.6034105,0 M2.96625341,10.1739479 C4.14635456,10.1739479 5.16694267,11.0063574 5.39291948,12.1536667 L5.45889093,12.4871187 L5.42935147,12.8357054 C5.32251712,14.0948163 4.24038849,15.0810141 2.96625341,15.0810141 C1.602023,15.0810141 0.492324218,13.9800854 0.492324218,12.6272369 C0.492324218,11.2743884 1.602023,10.1739479 2.96625341,10.1739479 M19.0337466,10.1739479 C20.397977,10.1739479 21.5076758,11.2743884 21.5076758,12.6272369 C21.5076758,13.9800854 20.397977,15.0810141 19.0337466,15.0810141 C17.6695162,15.0810141 16.5593251,13.9800854 16.5593251,12.6272369 C16.5593251,11.7191538 17.0629727,10.8891854 17.8733384,10.4610194 L18.0845455,10.3492177 L18.3080607,10.2818438 C18.5433917,10.210076 18.7875845,10.1739479 19.0337466,10.1739479 M16.5598174,6.92730685 L16.5593251,7.64986757 L16.5632637,7.89641701 L16.4406749,7.94133295 L16.5598174,6.92730685 M14.1799221,4.061963 L15.4860583,6.47619461 C15.5293828,6.55626215 15.5672918,6.64853511 15.6076624,6.74715488 L15.6426174,6.83210459 L16.1428188,8.02725909 L15.948843,8.06387534 L15.8863179,8.39098053 L15.8794253,8.43199074 L15.8794253,8.43443182 C15.8533321,8.55795065 15.8159155,8.67951661 15.7676677,8.79717683 L14.6249832,11.5858707 C14.5339032,11.8089857 14.4068836,12.0155014 14.2488475,12.1985826 L14.1553059,12.3069667 C13.951976,12.541799 13.7063062,12.7292742 13.4251891,12.8645102 C13.1214251,13.0095106 12.782706,13.087137 12.4454639,13.087137 L9.55552074,13.087137 C9.21532471,13.087137 8.87266705,13.0109752 8.56397977,12.8684159 C8.34784944,12.7683315 8.15042743,12.6267487 7.97811395,12.4470849 L7.82106253,12.2835323 L7.73884438,12.2879263 L7.46461979,11.7523526 L5.86752003,8.6326478 C5.80844112,8.51791688 5.73360784,8.4134385 5.64400483,8.32165376 C5.3343329,8.00284825 4.94539677,7.76557493 4.51855167,7.63668572 C4.39547062,7.59860482 4.266974,7.57907615 4.1370004,7.5776115 L3.17893747,7.56687073 L3.17893747,7.27149963 C3.22226201,7.23683624 3.26755583,7.19240852 3.30694177,7.13382251 C3.45611601,6.91363678 3.39309851,6.68710423 3.34682003,6.569444 L8.88251354,6.569444 C9.22172493,6.569444 9.49791881,6.84333357 9.48462606,7.19289674 L9.41471602,7.19289674 L9.30837399,7.19240852 L8.8126035,7.18947922 L8.8126035,7.68062523 L8.8126035,9.52413151 C8.8126035,9.63349205 8.84017366,9.74285259 8.8918677,9.83903129 L10.0744305,12.0374711 L10.1389249,12.4461085 L10.5598621,12.4461085 L12.064405,12.4461085 C12.2170255,12.4461085 12.369646,12.4285327 12.5183279,12.3938693 L12.6315625,12.3670174 C13.0096675,12.278162 13.3478942,12.0833635 13.6093184,11.8031271 C13.7481538,11.6532446 13.8613884,11.4833452 13.9445911,11.2992875 L15.0139193,8.93094821 C15.1035224,8.73224401 15.1660475,8.52279904 15.2014949,8.29919579 C15.2531889,7.97160238 15.2374345,7.64303254 15.1547241,7.32129773 C15.1074609,7.13675182 15.0380432,6.95708807 14.9484402,6.78767687 L13.6506736,4.32852932 L13.7540617,4.28019587 L13.8313566,4.23820923 L13.8510495,4.22112164 L14.1070581,4.09760282 L14.1799221,4.061963" id="Fill-1" fill="#9B9DA2" mask="url(#mask-2)"></path>
        </g>
    </g>
</svg>