<?xml version="1.0" encoding="UTF-8"?>
<svg width="43px" height="18px" viewBox="0 0 43 18" version="1.1" xmlns="http://www.w3.org/2000/svg" xmlns:xlink="http://www.w3.org/1999/xlink">
    <!-- Generator: Sketch 46.2 (44496) - http://www.bohemiancoding.com/sketch -->
    <title>Vehicle 01--default</title>
    <desc>Created with Sketch.</desc>
    <defs></defs>
    <g id="Symbols" stroke="none" stroke-width="1" fill="none" fill-rule="evenodd">
        <g id="Vehicle-01--default" fill="#9B9DA2">
            <g id="Page-1" transform="translate(5.000000, 5.000000)">
                <path d="M21.7279574,3.23279 L21.7214656,3.23279 C20.2856951,3.18824 16.1834164,3.06064 15.3297443,3.03424 C15.2361541,3.03149 15.1544656,2.97264 15.1247115,2.88794 L14.3565148,0.67144 C14.3364984,0.61314 14.381941,0.55429 14.4452361,0.55429 L14.4511869,0.55429 C15.3497607,0.60709 17.6581377,0.67969 19.2204984,1.36664 C20.3387115,1.85834 21.3189738,2.54804 21.8345311,2.94129 C21.9616623,3.03809 21.8886295,3.23279 21.7279574,3.23279 L21.7279574,3.23279 Z M6.02103934,3.02434 C5.83385902,3.02434 5.85549836,2.79829 6.00697377,2.69049 C6.4316459,2.38854 7.7814,1.53824 8.36187541,1.28469 C9.83767869,0.64064 10.8531049,0.52844 13.3129574,0.48884 L13.3232361,0.48884 C13.5060885,0.48884 13.5369246,0.56914 13.5683016,0.68904 L13.8285148,2.78564 C13.8420393,2.89344 13.7571049,2.99244 13.6434984,2.99409 L13.6407934,2.99409 L6.02320328,3.02434 L6.02103934,3.02434 Z M14.5766951,0.09174 C14.3440721,0.09174 14.1006295,0.09559 13.8447443,0.10329 C9.57097377,0.20064 9.0651541,0.46134 7.93017049,0.74789 C6.84658033,1.02179 4.25580984,2.29394 4.02210492,2.40944 C4.01074426,2.41494 3.99884262,2.41879 3.98585902,2.41989 L1.82138361,2.72239 C1.78946557,2.72679 1.75646557,2.72899 1.72454754,2.72899 L1.70344918,2.72899 L1.45351475,2.72129 C1.4486459,2.72129 1.44323607,2.72074 1.43836721,2.72074 C1.35884262,2.72074 1.28094098,2.73944 1.21061311,2.77354 L1.19492459,2.78124 C1.08780984,2.83294 1.02397377,2.94239 1.03371148,3.05734 C1.04507213,3.18989 1.05805574,3.34554 1.05805574,3.35654 C1.05805574,3.37469 0.832465574,4.02754 0.802170492,4.11554 C0.799465574,4.12269 0.798383607,4.12929 0.797301639,4.13699 L0.645285246,5.24304 C0.622563934,5.47019 0.511662295,5.61374 0.425645902,5.69349 C0.354777049,5.75839 0.313662295,5.84694 0.306629508,5.94044 C0.296891803,6.07574 0.280662295,6.26714 0.272006557,6.37384 C0.267137705,6.42939 0.273088525,6.48384 0.2904,6.53719 C0.3564,6.74784 0.553318033,7.30114 0.860055738,7.56239 C1.24307213,7.88854 2.28230164,8.05739 2.28230164,8.05739 L3.62177705,8.26584 C3.63043279,8.26749 3.63908852,8.26804 3.64774426,8.26804 C3.74728525,8.26804 3.82572787,8.17949 3.80192459,8.08324 C3.71103934,7.72409 3.63584262,6.97444 4.24444918,6.17364 C4.86603934,5.41519 5.67372787,5.09949 6.4516623,5.09949 C7.1116623,5.09949 7.75110492,5.32664 8.23744918,5.70394 C9.29723607,6.52509 9.29723607,7.72519 9.29723607,7.72519 L9.33023607,8.24494 C9.3388918,8.37749 9.45412131,8.48034 9.59261311,8.48034 L9.59369508,8.48034 L13.522859,8.46219 L23.9757443,8.52599 L23.9773672,8.52599 C24.0866459,8.52599 24.1759082,8.44239 24.1769902,8.33734 C24.1796951,8.10964 24.2089082,7.67239 24.3538918,7.00799 C24.7434,5.40364 26.2549082,5.00654 26.7331377,4.98014 C26.7894,4.97739 26.8591869,4.97464 26.9381705,4.97464 C27.5327115,4.97464 28.6974492,5.10114 29.3244492,5.95804 C30.0179902,6.90569 29.9119574,8.21249 29.9060066,8.27684 C29.9060066,8.27904 29.9060066,8.28124 29.9060066,8.28289 L29.9016787,8.39344 C29.8995148,8.45779 29.9546951,8.50949 30.0196131,8.50949 C30.0266459,8.50949 30.0342197,8.50894 30.0417934,8.50729 C30.487023,8.42589 31.3666623,8.26694 31.9931213,8.15309 C32.1797607,8.11954 32.3247443,7.97984 32.3593672,7.80219 L32.401023,7.58769 C32.4524164,7.32369 32.4843344,7.05694 32.497318,6.78909 C32.499482,6.74454 32.5016459,6.69779 32.5038098,6.64884 C32.5038098,6.64499 32.5038098,6.64059 32.5038098,6.63674 C32.4686459,5.94814 32.2776787,5.25294 32.0185475,4.88224 C31.7588754,4.51044 31.6155148,4.21069 29.6663508,3.70249 C27.7642525,3.20529 24.1932197,2.90774 24.0249738,2.89399 L24.016318,2.89399 L24.0130721,2.89399 C23.9919738,2.89454 23.9162361,2.89619 23.8139902,2.89619 C23.719859,2.89619 23.6024656,2.89454 23.4856131,2.88904 C23.3552361,2.88244 23.2297279,2.84449 23.1177443,2.78124 C20.8802361,1.51184 18.5145148,0.59829 18.5145148,0.59829 C18.5145148,0.59829 17.3935967,0.09174 14.5766951,0.09174 L14.5766951,0.09174 Z M14.2948426,2.14874 L14.6145639,3.07054 C14.7178918,3.36754 14.9986623,3.57379 15.3135148,3.58424 L21.7052361,3.78224 L21.7198426,3.78279 L21.7279574,3.78279 C22.036318,3.78279 22.3078918,3.58589 22.4041869,3.29164 C22.432859,3.20584 22.4436787,3.11729 22.4388098,3.03094 C22.5773016,3.10629 22.7163344,3.18274 22.8542852,3.26139 C23.0403836,3.36699 23.2497443,3.42804 23.4601869,3.43849 C23.5862361,3.44454 23.7122852,3.44619 23.8139902,3.44619 C23.9032525,3.44619 23.9735803,3.44509 24.0033344,3.44399 C24.3360393,3.47204 27.7263836,3.76354 29.5321869,4.23489 C31.212482,4.67324 31.374777,4.90809 31.5468098,5.15614 L31.5776459,5.20069 C31.737777,5.43004 31.9254984,5.97784 31.9622852,6.64444 L31.9568754,6.76214 C31.9455148,7.00304 31.9163016,7.24504 31.870318,7.48154 L31.8432689,7.62179 L30.4545639,7.87369 C30.4383344,7.32534 30.3182361,6.39419 29.758859,5.62969 C28.9912033,4.58139 27.6625475,4.42464 26.9381705,4.42464 C26.8478262,4.42464 26.7688426,4.42739 26.7044656,4.43124 C26.0612361,4.46589 24.2905967,4.97354 23.8253508,6.88919 C23.7268918,7.34349 23.6776623,7.70264 23.6544,7.97379 L13.5206951,7.91219 L9.85228525,7.92924 L9.83821967,7.70154 C9.83280984,7.50244 9.75112131,6.18574 8.56582623,5.26614 C7.96912131,4.80359 7.21823607,4.54949 6.4516623,4.54949 C5.43244918,4.54949 4.50087541,5.00104 3.81653115,5.83704 C3.30908852,6.50474 3.1879082,7.15154 3.19980984,7.64434 L2.36777705,7.51454 C1.99395738,7.45404 1.3826459,7.28959 1.20736721,7.14054 C1.08023607,7.03274 0.92335082,6.73409 0.812990164,6.39419 C0.821104918,6.30179 0.832465574,6.16594 0.841121311,6.04934 C1.03425246,5.84969 1.1548918,5.58679 1.1814,5.31894 L1.32692459,4.25634 C1.59903934,3.46929 1.59903934,3.46764 1.59903934,3.35654 C1.59903934,3.35159 1.59741639,3.32079 1.59417049,3.27569 L1.68776066,3.27844 L1.71643279,3.27899 L1.72454754,3.27899 C1.78135082,3.27899 1.83869508,3.27514 1.89495738,3.26689 L4.05997377,2.96549 C4.12976066,2.95504 4.19684262,2.93469 4.25851475,2.90389 C4.65992459,2.70644 5.2041541,2.44574 5.7684,2.18999 C5.7418918,2.20814 5.71808852,2.22464 5.69699016,2.23949 C5.41297377,2.44189 5.28151475,2.79939 5.37726885,3.10849 C5.4649082,3.39119 5.71754754,3.57434 6.02103934,3.57434 L6.02428525,3.57434 L6.02536721,3.57434 L13.6526951,3.54354 C13.8609738,3.54024 14.0589738,3.44674 14.1947607,3.28724 C14.3289246,3.12994 14.3905967,2.92204 14.3657115,2.71689 L14.2948426,2.14874 L14.2948426,2.14874 Z" id="Fill-1"></path>
                <g id="Group-7" transform="translate(3.786885, 5.053070)">
                    <path d="M2.77005246,0.55 C1.4257082,0.55 0.33562623,1.65825 0.33562623,3.025 C0.33562623,4.39175 1.4257082,5.5 2.77005246,5.5 C4.11439672,5.5 5.20447869,4.39175 5.20447869,3.025 C5.20447869,1.65825 4.11439672,0.55 2.77005246,0.55 M2.77005246,1.1 C3.81415082,1.1 4.66349508,1.9635 4.66349508,3.025 C4.66349508,4.0865 3.81415082,4.95 2.77005246,4.95 C1.7259541,4.95 0.876609836,4.0865 0.876609836,3.025 C0.876609836,1.9635 1.7259541,1.1 2.77005246,1.1" id="Fill-3"></path>
                    <path d="M23.3329475,0.515625 C21.9886033,0.515625 20.8985213,1.623875 20.8985213,2.990625 C20.8985213,4.357375 21.9886033,5.465625 23.3329475,5.465625 C24.6772918,5.465625 25.7673738,4.357375 25.7673738,2.990625 C25.7673738,1.623875 24.6772918,0.515625 23.3329475,0.515625 M23.3329475,1.065625 C24.3770459,1.065625 25.2263902,1.929125 25.2263902,2.990625 C25.2263902,4.052125 24.3770459,4.915625 23.3329475,4.915625 C22.2888492,4.915625 21.4395049,4.052125 21.4395049,2.990625 C21.4395049,1.929125 22.2888492,1.065625 23.3329475,1.065625" id="Fill-5"></path>
                </g>
            </g>
        </g>
    </g>
</svg>