<svg xmlns="http://www.w3.org/2000/svg" xmlns:xlink="http://www.w3.org/1999/xlink" width="179" height="124" version="1.1"><rect id="backgroundrect" width="100%" height="100%" x="0" y="0" fill="none" stroke="none"/>
    <!-- Generator: Sketch 41.2 (35397) - http://www.bohemiancoding.com/sketch -->
    <title>Slice 1</title>
    <desc>Created with Sketch.</desc>
    <defs/>
    
<g class="currentLayer"><title>Layer 1</title><g id="Page-1" stroke="none" stroke-width="1" fill="#ffffff" fill-rule="evenodd" class="selected" fill-opacity="1">
        <g fill="#ffffff" id="svg_1" fill-opacity="1">
            <path d="M40.7642,0.3315 L28.7562,34.3795 L20.3882,34.3795 L20.3882,54.1575 L0.6132,54.1575 L0.6132,64.0055 L20.3882,64.0055 L20.3882,83.7755 L20.3882,83.7935 L30.2442,83.7935 L30.2442,63.9925 L64.8892,63.9925 L71.7152,83.7755 L82.5452,83.7755 L53.0062,0.3315 L40.7642,0.3315 Z M46.6482,10.8065 L61.4732,54.1135 L31.9422,54.1135 L46.6482,10.8065 Z" id="Fill-1" fill="#ffffff" fill-opacity="1"/>
            <g id="Group-24" fill="#ffffff" fill-opacity="1">
                <path d="M104.3945,66.3691 L104.3945,31.5691 L122.2135,31.5691 L122.2135,22.9021 L104.3945,22.9021 L104.3945,5.2111 L94.3045,7.585100000000001 L94.3045,22.9021 L82.6675,22.9021 L82.6675,31.5691 L94.3045,31.5691 L94.3045,67.55510000000001 C94.3045,75.6241 97.8675,83.8261 110.8145,83.8261 C116.3915,83.8261 120.0695,82.8791 122.8045,82.1591 L122.8045,73.4911 C122.8045,73.4911 116.7465,74.5581 112.4735,74.5581 C106.8955,74.5581 104.3945,72.1831 104.3945,66.3691 " id="Fill-2" fill="#ffffff" fill-opacity="1"/>
                <path d="M174.2275,77.0098 C169.7795,81.5718 162.9375,83.5108 155.4105,83.5108 C148.2245,83.5108 141.6095,81.7998 136.7065,77.0098 C133.1705,73.5888 131.1185,68.6848 131.1185,63.7798 L140.8115,63.7798 C140.9265,67.7718 142.7505,70.7368 145.4885,72.7898 C148.1115,74.7298 152.2165,75.4128 155.8675,75.4128 C159.8575,75.4128 163.5065,74.7298 166.4725,72.2188 C168.0685,70.9648 169.3245,68.5708 169.3245,65.9468 C169.3245,61.6138 166.2445,58.5338 160.3135,57.7368 L147.3125,56.0258 C138.6455,54.6568 133.1705,49.2968 133.1705,40.5148 C133.1705,36.0678 135.3375,31.8478 137.9605,29.224800000000002 C141.7245,25.3468 147.7695,22.8378 154.9535,22.8378 C162.5945,22.8378 169.4385,25.2328 173.3155,30.1368 C175.8245,33.2158 177.4195,36.5238 177.4195,41.1988 L167.7265,41.1988 C167.6135,38.2348 166.1295,35.4968 164.4185,34.0138 C162.0245,31.8478 158.8305,30.9358 154.9535,30.9358 C152.6725,30.9358 150.9615,30.9358 148.2245,32.0758 C144.5755,33.5578 142.4085,36.6368 142.4085,39.8308 C142.4085,44.6208 145.3735,46.6728 150.1645,47.3578 C153.3565,47.8148 157.9195,48.269800000000004 164.0775,49.2968 C172.2895,50.6648 178.7895,56.5958 178.7895,65.2638 C178.7895,70.2808 176.9655,74.1588 174.2275,77.0098 " id="Fill-4" fill="#ffffff" fill-opacity="1"/>
                <path d="M10.168,108.375 L7.486,116.315 L12.85,116.315 L10.168,108.375 zM15.134,123.008 L13.913,119.395 L6.424,119.395 L5.202,123.008 L1.749,123.008 L8.362,104.179 L12.106,104.179 L18.719,123.008 L15.134,123.008 z" id="Fill-6" fill="#ffffff" fill-opacity="1"/>
                <polygon id="Fill-8" points="28.024900436401367,107.36620330810547 28.024900436401367,123.0082015991211 24.598899841308594,123.0082015991211 24.598899841308594,107.36620330810547 19.021900177001953,107.36620330810547 19.021900177001953,104.1781997680664 33.601898193359375,104.1781997680664 33.601898193359375,107.36620330810547 " fill="#ffffff" fill-opacity="1"/>
                <path d="M49.5732,121.335 C48.1392,122.769 45.9352,123.353 43.6242,123.353 C41.6332,123.353 39.5352,122.821 37.9942,121.414 C36.8792,120.405 36.0302,118.812 36.0302,117.033 L39.5352,117.033 C39.5352,117.962 39.9602,118.785 40.5172,119.343 C41.3142,120.14 42.5892,120.353 43.6772,120.353 C44.9792,120.353 46.2272,120.087 46.9442,119.343 C47.3692,118.892 47.6872,118.44 47.6872,117.537 C47.6872,116.156 46.6252,115.519 45.4572,115.307 C44.1822,115.067 42.5352,115.014 41.2872,114.802 C38.6852,114.377 36.5072,112.677 36.5072,109.544 C36.5072,108.057 37.1712,106.809 38.1542,105.825 C39.4022,104.604 41.4732,103.834 43.6772,103.834 C45.6962,103.834 47.6612,104.472 48.9362,105.667 C50.0512,106.729 50.8212,108.109 50.8482,109.677 L47.3432,109.677 C47.3162,109.013 46.9712,108.295 46.5192,107.817 C45.9082,107.18 44.6602,106.809 43.6512,106.809 C42.5892,106.809 41.3672,107.047 40.5982,107.844 C40.1992,108.269 39.9602,108.747 39.9602,109.438 C39.9602,110.659 40.7562,111.297 41.8712,111.482 C43.0672,111.668 44.7402,111.801 45.9612,111.96 C48.7762,112.358 51.1402,114.191 51.1402,117.404 C51.1402,119.157 50.5032,120.405 49.5732,121.335 " id="Fill-10" fill="#ffffff" fill-opacity="1"/>
                <path d="M78.8574,122.8828 L78.4594,120.8118 C77.9004,121.9008 76.0954,123.2008 73.7324,123.2278 C71.5544,123.2538 69.6154,122.6968 68.1284,121.1298 C66.1634,119.0848 65.6854,116.5628 65.6854,113.4828 C65.6854,110.4018 66.0834,107.9578 68.1284,105.9128 C69.5624,104.4788 71.71340000000001,103.7088 73.7324,103.7088 C76.0424,103.7088 78.0344,104.5588 79.3084,105.8608 C80.2384,106.8158 80.9284,108.0108 81.0354,109.6568 L77.5294,109.6568 C77.4764,108.9138 77.1044,108.4098 76.7064,107.9318 C76.0424,107.1608 75.0064,106.7888 73.7054,106.7888 C72.6164,106.7888 71.3684,107.2678 70.6244,108.0648 C69.3234,109.4188 69.1644,111.7558 69.1644,113.4828 C69.1644,115.2078 69.3504,117.6238 70.6514,118.9798 C71.3944,119.7758 72.6164,120.1738 73.7054,120.1738 C74.9264,120.1738 75.8824,119.7488 76.5204,119.0848 C77.5294,118.0238 77.7424,116.8548 77.7424,115.4198 L73.2534,115.4198 L73.2534,112.5788 L81.0614,112.5788 L81.0614,122.8828 L78.8574,122.8828 z" id="Fill-12" fill="#ffffff" fill-opacity="1"/>
                <path d="M94.1563,108.25 L91.4733,116.19 L96.8383,116.19 L94.1563,108.25 zM99.1223,122.883 L97.9013,119.27 L90.4123,119.27 L89.1903,122.883 L85.7373,122.883 L92.3503,104.054 L96.0943,104.054 L102.7073,122.883 L99.1223,122.883 z" id="Fill-14" fill="#ffffff" fill-opacity="1"/>
                <path d="M114.8545,107.0547 L110.3395,107.0547 L110.3395,112.6857 L114.9075,112.6857 C116.8465,112.6857 117.9615,111.6757 117.9615,109.8967 C117.9615,108.3827 116.7935,107.0547 114.8545,107.0547 L114.8545,107.0547 zM117.6695,122.8827 L114.5365,115.7657 L110.3665,115.7657 L110.3665,122.8827 L106.9145,122.8827 L106.9145,104.0537 L114.8545,104.0537 C119.3425,104.0537 121.3885,106.8687 121.3885,109.8967 C121.3885,112.4187 120.0065,114.4107 117.9355,115.1817 L121.3885,122.8827 L117.6695,122.8827 z" id="Fill-16" fill="#ffffff" fill-opacity="1"/>
                <path d="M132.6318,108.25 L129.9488,116.19 L135.3138,116.19 L132.6318,108.25 zM137.5978,122.883 L136.3768,119.27 L128.8868,119.27 L127.6658,122.883 L124.2128,122.883 L130.8258,104.054 L134.5708,104.054 L141.1838,122.883 L137.5978,122.883 z" id="Fill-18" fill="#ffffff" fill-opacity="1"/>
                <path d="M157.0752,122.8828 L156.6772,120.8118 C156.1192,121.9008 154.3132,123.2008 151.9492,123.2278 C149.7712,123.2538 147.8332,122.6968 146.3462,121.1298 C144.3812,119.0848 143.9032,116.5628 143.9032,113.4828 C143.9032,110.4018 144.3022,107.9578 146.3462,105.9128 C147.7792,104.4788 149.9312,103.7088 151.9492,103.7088 C154.2612,103.7088 156.2512,104.5588 157.5262,105.8608 C158.4562,106.8158 159.1462,108.0108 159.2522,109.6568 L155.7472,109.6568 C155.6932,108.9138 155.3222,108.4098 154.9252,107.9318 C154.2612,107.1608 153.2242,106.7888 151.9242,106.7888 C150.8342,106.7888 149.5862,107.2678 148.8422,108.0648 C147.5412,109.4188 147.3822,111.7558 147.3822,113.4828 C147.3822,115.2078 147.5682,117.6238 148.8692,118.9798 C149.6122,119.7758 150.8342,120.1738 151.9242,120.1738 C153.1452,120.1738 154.1002,119.7488 154.7382,119.0848 C155.7472,118.0238 155.9602,116.8548 155.9602,115.4198 L151.4712,115.4198 L151.4712,112.5788 L159.2792,112.5788 L159.2792,122.8828 L157.0752,122.8828 z" id="Fill-20" fill="#ffffff" fill-opacity="1"/>
                <polygon id="Fill-22" points="165.15919494628906,122.88279724121094 165.15919494628906,104.05380249023438 178.57020568847656,104.05380249023438 178.57020568847656,107.16079711914062 168.585205078125,107.16079711914062 168.585205078125,111.54280090332031 177.37620544433594,111.54280090332031 177.37620544433594,114.6238021850586 168.585205078125,114.6238021850586 168.585205078125,119.77580261230469 178.57020568847656,119.77580261230469 178.57020568847656,122.88279724121094 " fill="#ffffff" fill-opacity="1"/>
            </g>
        </g>
    </g></g></svg>