<?xml version="1.0" encoding="UTF-8" standalone="no"?>
<svg width="179px" height="124px" viewBox="0 0 179 124" version="1.1" xmlns="http://www.w3.org/2000/svg" xmlns:xlink="http://www.w3.org/1999/xlink">
    <!-- Generator: Sketch 41.2 (35397) - http://www.bohemiancoding.com/sketch -->
    <title>Slice 1</title>
    <desc>Created with Sketch.</desc>
    <defs></defs>
    <g id="Page-1" stroke="none" stroke-width="1" fill="none" fill-rule="evenodd">
        <g fill="#1F1F1F">
            <path d="M40.7642,0.3315 L28.7562,34.3795 L20.3882,34.3795 L20.3882,54.1575 L0.6132,54.1575 L0.6132,64.0055 L20.3882,64.0055 L20.3882,83.7755 L20.3882,83.7935 L30.2442,83.7935 L30.2442,63.9925 L64.8892,63.9925 L71.7152,83.7755 L82.5452,83.7755 L53.0062,0.3315 L40.7642,0.3315 Z M46.6482,10.8065 L61.4732,54.1135 L31.9422,54.1135 L46.6482,10.8065 Z" id="Fill-1"></path>
            <g id="Group-24" transform="translate(1.000000, 4.500000)">
                <path d="M103.3945,61.8691 L103.3945,27.0691 L121.2135,27.0691 L121.2135,18.4021 L103.3945,18.4021 L103.3945,0.7111 L93.3045,3.0851 L93.3045,18.4021 L81.6675,18.4021 L81.6675,27.0691 L93.3045,27.0691 L93.3045,63.0551 C93.3045,71.1241 96.8675,79.3261 109.8145,79.3261 C115.3915,79.3261 119.0695,78.3791 121.8045,77.6591 L121.8045,68.9911 C121.8045,68.9911 115.7465,70.0581 111.4735,70.0581 C105.8955,70.0581 103.3945,67.6831 103.3945,61.8691" id="Fill-2"></path>
                <path d="M173.2275,72.5098 C168.7795,77.0718 161.9375,79.0108 154.4105,79.0108 C147.2245,79.0108 140.6095,77.2998 135.7065,72.5098 C132.1705,69.0888 130.1185,64.1848 130.1185,59.2798 L139.8115,59.2798 C139.9265,63.2718 141.7505,66.2368 144.4885,68.2898 C147.1115,70.2298 151.2165,70.9128 154.8675,70.9128 C158.8575,70.9128 162.5065,70.2298 165.4725,67.7188 C167.0685,66.4648 168.3245,64.0708 168.3245,61.4468 C168.3245,57.1138 165.2445,54.0338 159.3135,53.2368 L146.3125,51.5258 C137.6455,50.1568 132.1705,44.7968 132.1705,36.0148 C132.1705,31.5678 134.3375,27.3478 136.9605,24.7248 C140.7245,20.8468 146.7695,18.3378 153.9535,18.3378 C161.5945,18.3378 168.4385,20.7328 172.3155,25.6368 C174.8245,28.7158 176.4195,32.0238 176.4195,36.6988 L166.7265,36.6988 C166.6135,33.7348 165.1295,30.9968 163.4185,29.5138 C161.0245,27.3478 157.8305,26.4358 153.9535,26.4358 C151.6725,26.4358 149.9615,26.4358 147.2245,27.5758 C143.5755,29.0578 141.4085,32.1368 141.4085,35.3308 C141.4085,40.1208 144.3735,42.1728 149.1645,42.8578 C152.3565,43.3148 156.9195,43.7698 163.0775,44.7968 C171.2895,46.1648 177.7895,52.0958 177.7895,60.7638 C177.7895,65.7808 175.9655,69.6588 173.2275,72.5098" id="Fill-4"></path>
                <path d="M9.168,103.875 L6.486,111.815 L11.85,111.815 L9.168,103.875 Z M14.134,118.508 L12.913,114.895 L5.424,114.895 L4.202,118.508 L0.749,118.508 L7.362,99.679 L11.106,99.679 L17.719,118.508 L14.134,118.508 Z" id="Fill-6"></path>
                <polygon id="Fill-8" points="27.0249 102.8662 27.0249 118.5082 23.5989 118.5082 23.5989 102.8662 18.0219 102.8662 18.0219 99.6782 32.6019 99.6782 32.6019 102.8662"></polygon>
                <path d="M48.5732,116.835 C47.1392,118.269 44.9352,118.853 42.6242,118.853 C40.6332,118.853 38.5352,118.321 36.9942,116.914 C35.8792,115.905 35.0302,114.312 35.0302,112.533 L38.5352,112.533 C38.5352,113.462 38.9602,114.285 39.5172,114.843 C40.3142,115.64 41.5892,115.853 42.6772,115.853 C43.9792,115.853 45.2272,115.587 45.9442,114.843 C46.3692,114.392 46.6872,113.94 46.6872,113.037 C46.6872,111.656 45.6252,111.019 44.4572,110.807 C43.1822,110.567 41.5352,110.514 40.2872,110.302 C37.6852,109.877 35.5072,108.177 35.5072,105.044 C35.5072,103.557 36.1712,102.309 37.1542,101.325 C38.4022,100.104 40.4732,99.334 42.6772,99.334 C44.6962,99.334 46.6612,99.972 47.9362,101.167 C49.0512,102.229 49.8212,103.609 49.8482,105.177 L46.3432,105.177 C46.3162,104.513 45.9712,103.795 45.5192,103.317 C44.9082,102.68 43.6602,102.309 42.6512,102.309 C41.5892,102.309 40.3672,102.547 39.5982,103.344 C39.1992,103.769 38.9602,104.247 38.9602,104.938 C38.9602,106.159 39.7562,106.797 40.8712,106.982 C42.0672,107.168 43.7402,107.301 44.9612,107.46 C47.7762,107.858 50.1402,109.691 50.1402,112.904 C50.1402,114.657 49.5032,115.905 48.5732,116.835" id="Fill-10"></path>
                <path d="M77.8574,118.3828 L77.4594,116.3118 C76.9004,117.4008 75.0954,118.7008 72.7324,118.7278 C70.5544,118.7538 68.6154,118.1968 67.1284,116.6298 C65.1634,114.5848 64.6854,112.0628 64.6854,108.9828 C64.6854,105.9018 65.0834,103.4578 67.1284,101.4128 C68.5624,99.9788 70.7134,99.2088 72.7324,99.2088 C75.0424,99.2088 77.0344,100.0588 78.3084,101.3608 C79.2384,102.3158 79.9284,103.5108 80.0354,105.1568 L76.5294,105.1568 C76.4764,104.4138 76.1044,103.9098 75.7064,103.4318 C75.0424,102.6608 74.0064,102.2888 72.7054,102.2888 C71.6164,102.2888 70.3684,102.7678 69.6244,103.5648 C68.3234,104.9188 68.1644,107.2558 68.1644,108.9828 C68.1644,110.7078 68.3504,113.1238 69.6514,114.4798 C70.3944,115.2758 71.6164,115.6738 72.7054,115.6738 C73.9264,115.6738 74.8824,115.2488 75.5204,114.5848 C76.5294,113.5238 76.7424,112.3548 76.7424,110.9198 L72.2534,110.9198 L72.2534,108.0788 L80.0614,108.0788 L80.0614,118.3828 L77.8574,118.3828 Z" id="Fill-12"></path>
                <path d="M93.1563,103.75 L90.4733,111.69 L95.8383,111.69 L93.1563,103.75 Z M98.1223,118.383 L96.9013,114.77 L89.4123,114.77 L88.1903,118.383 L84.7373,118.383 L91.3503,99.554 L95.0943,99.554 L101.7073,118.383 L98.1223,118.383 Z" id="Fill-14"></path>
                <path d="M113.8545,102.5547 L109.3395,102.5547 L109.3395,108.1857 L113.9075,108.1857 C115.8465,108.1857 116.9615,107.1757 116.9615,105.3967 C116.9615,103.8827 115.7935,102.5547 113.8545,102.5547 L113.8545,102.5547 Z M116.6695,118.3827 L113.5365,111.2657 L109.3665,111.2657 L109.3665,118.3827 L105.9145,118.3827 L105.9145,99.5537 L113.8545,99.5537 C118.3425,99.5537 120.3885,102.3687 120.3885,105.3967 C120.3885,107.9187 119.0065,109.9107 116.9355,110.6817 L120.3885,118.3827 L116.6695,118.3827 Z" id="Fill-16"></path>
                <path d="M131.6318,103.75 L128.9488,111.69 L134.3138,111.69 L131.6318,103.75 Z M136.5978,118.383 L135.3768,114.77 L127.8868,114.77 L126.6658,118.383 L123.2128,118.383 L129.8258,99.554 L133.5708,99.554 L140.1838,118.383 L136.5978,118.383 Z" id="Fill-18"></path>
                <path d="M156.0752,118.3828 L155.6772,116.3118 C155.1192,117.4008 153.3132,118.7008 150.9492,118.7278 C148.7712,118.7538 146.8332,118.1968 145.3462,116.6298 C143.3812,114.5848 142.9032,112.0628 142.9032,108.9828 C142.9032,105.9018 143.3022,103.4578 145.3462,101.4128 C146.7792,99.9788 148.9312,99.2088 150.9492,99.2088 C153.2612,99.2088 155.2512,100.0588 156.5262,101.3608 C157.4562,102.3158 158.1462,103.5108 158.2522,105.1568 L154.7472,105.1568 C154.6932,104.4138 154.3222,103.9098 153.9252,103.4318 C153.2612,102.6608 152.2242,102.2888 150.9242,102.2888 C149.8342,102.2888 148.5862,102.7678 147.8422,103.5648 C146.5412,104.9188 146.3822,107.2558 146.3822,108.9828 C146.3822,110.7078 146.5682,113.1238 147.8692,114.4798 C148.6122,115.2758 149.8342,115.6738 150.9242,115.6738 C152.1452,115.6738 153.1002,115.2488 153.7382,114.5848 C154.7472,113.5238 154.9602,112.3548 154.9602,110.9198 L150.4712,110.9198 L150.4712,108.0788 L158.2792,108.0788 L158.2792,118.3828 L156.0752,118.3828 Z" id="Fill-20"></path>
                <polygon id="Fill-22" points="164.1592 118.3828 164.1592 99.5538 177.5702 99.5538 177.5702 102.6608 167.5852 102.6608 167.5852 107.0428 176.3762 107.0428 176.3762 110.1238 167.5852 110.1238 167.5852 115.2758 177.5702 115.2758 177.5702 118.3828"></polygon>
            </g>
        </g>
    </g>
</svg>