<svg id="Ebene_2" data-name="Ebene 2" xmlns="http://www.w3.org/2000/svg" xmlns:xlink="http://www.w3.org/1999/xlink" viewBox="0 0 290.66 198.07"><defs><style>.cls-1,.cls-10{fill:#48dad0;stroke:#fff;}.cls-1,.cls-10,.cls-13,.cls-5,.cls-9{stroke-miterlimit:10;}.cls-2{opacity:0.5;}.cls-13,.cls-3,.cls-4,.cls-5,.cls-9{fill:none;}.cls-3,.cls-4{stroke:#7b7b7b;}.cls-12,.cls-13,.cls-3,.cls-4,.cls-5,.cls-7{stroke-linecap:round;}.cls-12,.cls-3,.cls-4,.cls-7{stroke-linejoin:round;}.cls-3{stroke-width:1.12px;}.cls-4{stroke-width:1.12px;}.cls-12,.cls-13,.cls-5,.cls-7{stroke:#1a1a1a;}.cls-6{fill:url(#Unbenannter_Verlauf_26);}.cls-12,.cls-7,.cls-8{fill:#fff;}.cls-7{stroke-width:0.87px;}.cls-9{stroke:#000;stroke-width:0.65px;stroke-dasharray:4.4 4.4;}.cls-10,.cls-13{stroke-width:0.46px;}.cls-11{fill:url(#Unbenannter_Verlauf_26-2);}.cls-12{stroke-width:0.4px;}</style><linearGradient id="Unbenannter_Verlauf_26" x1="98.66" y1="74.92" x2="184.91" y2="74.92" gradientUnits="userSpaceOnUse"><stop offset="0"/><stop offset="0.16" stop-color="#0f0f0f"/><stop offset="0.47" stop-color="#373737"/><stop offset="0.9" stop-color="#767676"/><stop offset="1" stop-color="#878787"/></linearGradient><linearGradient id="Unbenannter_Verlauf_26-2" x1="193.21" y1="146.73" x2="233.21" y2="146.73" xlink:href="#Unbenannter_Verlauf_26"/></defs><title>Zeichenfläche 9</title><g id="_Group_" data-name="&lt;Group&gt;"><g id="_Group_2" data-name="&lt;Group&gt;"><polygon id="_Path_" data-name="&lt;Path&gt;" class="cls-1" points="57.38 33.13 57.32 56.42 42.42 47.82 42.48 24.52 57.38 33.13"/></g><g id="_Group_3" data-name="&lt;Group&gt;"><polygon id="_Path_2" data-name="&lt;Path&gt;" class="cls-1" points="57.38 33.13 82.05 18.79 81.99 42.09 57.32 56.42 57.38 33.13"/></g><g id="_Group_4" data-name="&lt;Group&gt;"><polygon id="_Path_3" data-name="&lt;Path&gt;" class="cls-1" points="42.48 24.52 67.15 10.19 82.05 18.79 57.38 33.13 42.48 24.52"/></g></g><g id="_Group_5" data-name="&lt;Group&gt;" class="cls-2"><line id="_Path_4" data-name="&lt;Path&gt;" class="cls-3" x1="91.33" y1="60.69" x2="75.46" y2="51.34"/><polyline id="_Path_5" data-name="&lt;Path&gt;" class="cls-4" points="90.47 54.61 92.32 61.3 85.58 62.94"/></g><g id="_Group_6" data-name="&lt;Group&gt;" class="cls-2"><line id="_Path_6" data-name="&lt;Path&gt;" class="cls-3" x1="171.56" y1="120.33" x2="155.7" y2="110.99"/><polyline id="_Path_7" data-name="&lt;Path&gt;" class="cls-4" points="170.71 114.26 172.56 120.95 165.81 122.58"/></g><g id="_Group_7" data-name="&lt;Group&gt;"><polyline id="_Path_8" data-name="&lt;Path&gt;" class="cls-5" points="111.83 102.31 111.83 118.3 121.26 123.61"/><g id="_Group_8" data-name="&lt;Group&gt;"><polygon id="_Path_9" data-name="&lt;Path&gt;" class="cls-6" points="184.74 25.64 184.91 87.6 121.54 124.21 121.48 103.01 98.78 116.12 98.66 75.36 184.74 25.64"/></g><polygon id="_Path_10" data-name="&lt;Path&gt;" class="cls-7" points="175.44 21.11 184.51 25.85 98.68 75.37 98.78 115.58 90.36 110.79 89.78 70.4 175.44 21.11"/><line id="_Path_11" data-name="&lt;Path&gt;" class="cls-5" x1="98.59" y1="75.53" x2="89.95" y2="70.53"/><g id="_Group_9" data-name="&lt;Group&gt;"><path class="cls-8" d="M130.87,87c.39-.22.71,0,.71.41a1.55,1.55,0,0,1-.71,1.22L118.1,96c-.38.23-.71,0-.71-.4a1.55,1.55,0,0,1,.71-1.22Z"/><path class="cls-8" d="M109,80a.51.51,0,0,1,.5,0l8,4.56a.5.5,0,0,1,.2.45,1.46,1.46,0,0,1-.2.7l-8,13.77a1.34,1.34,0,0,1-.49.53.5.5,0,0,1-.51,0c-.27-.16-.27-.67,0-1.15L116,85.93l-7.5-4.27c-.27-.16-.28-.67,0-1.15A1.43,1.43,0,0,1,109,80Z"/></g></g><g id="_Group_10" data-name="&lt;Group&gt;"><g id="_Group_11" data-name="&lt;Group&gt;"><circle id="_Path_12" data-name="&lt;Path&gt;" class="cls-8" cx="210.98" cy="149.16" r="39.26" transform="translate(18.35 321.36) rotate(-77.06)"/><circle id="_Path_13" data-name="&lt;Path&gt;" class="cls-9" cx="210.98" cy="149.16" r="39.26" transform="translate(18.35 321.36) rotate(-77.06)"/></g><g id="_Group_12" data-name="&lt;Group&gt;"><g id="_Group_13" data-name="&lt;Group&gt;"><polygon id="_Path_14" data-name="&lt;Path&gt;" class="cls-10" points="193.49 166.14 193.46 176.08 188.75 173.3 188.75 163.82 193.49 166.14"/></g><g id="_Group_14" data-name="&lt;Group&gt;"><g id="_Group_15" data-name="&lt;Group&gt;"><polygon id="_Path_15" data-name="&lt;Path&gt;" class="cls-11" points="233.13 123.88 233.21 152.61 203.82 169.59 203.79 159.76 193.26 165.84 193.21 146.93 233.13 123.88"/></g><polygon id="_Path_16" data-name="&lt;Path&gt;" class="cls-12" points="228.81 122.24 233.02 123.97 193.22 146.94 193.26 165.59 188.9 163.37 189.09 145.1 228.81 122.24"/><line id="_Path_17" data-name="&lt;Path&gt;" class="cls-13" x1="193.18" y1="147.01" x2="189.17" y2="145.16"/><g id="_Group_16" data-name="&lt;Group&gt;"><path class="cls-8" d="M208.33,151.72c.39-.23.71-.05.71.4a1.53,1.53,0,0,1-.71,1.23l-5.67,3.28c-.39.22-.71,0-.72-.41a1.57,1.57,0,0,1,.72-1.23Z"/><path class="cls-8" d="M198.1,149.3a.23.23,0,0,1,.21,0l3.7,2.11a.21.21,0,0,1,.09.19.63.63,0,0,1-.08.28l-3.69,6.38a.72.72,0,0,1-.2.22.21.21,0,0,1-.2,0c-.12-.07-.12-.27,0-.47l3.48-6-3.51-2c-.11-.06-.11-.27,0-.46A.58.58,0,0,1,198.1,149.3Z"/></g></g><g id="_Group_17" data-name="&lt;Group&gt;"><polygon id="_Path_18" data-name="&lt;Path&gt;" class="cls-10" points="193.5 165.96 203.76 159.99 203.73 169.99 193.47 175.96 193.5 165.96"/></g></g></g></svg>