<svg id="Layer_1" data-name="Layer 1" xmlns="http://www.w3.org/2000/svg" xmlns:xlink="http://www.w3.org/1999/xlink" viewBox="0 0 250 150"><defs><style>.cls-1,.cls-10{fill:#48dad0;stroke:#fff;}.cls-1,.cls-10,.cls-13,.cls-5,.cls-9{stroke-miterlimit:10;}.cls-2{opacity:0.5;}.cls-13,.cls-3,.cls-4,.cls-5,.cls-9{fill:none;}.cls-3,.cls-4{stroke:#7b7b7b;}.cls-12,.cls-13,.cls-3,.cls-4,.cls-5,.cls-7{stroke-linecap:round;}.cls-12,.cls-3,.cls-4,.cls-7{stroke-linejoin:round;}.cls-3{stroke-width:1.12px;}.cls-4{stroke-width:1.12px;}.cls-12,.cls-13,.cls-5,.cls-7{stroke:#1a1a1a;}.cls-5,.cls-7{stroke-width:0.6px;}.cls-6{fill:url(#Unbenannter_Verlauf_26);}.cls-12,.cls-7,.cls-8{fill:#fff;}.cls-9{stroke:#000;stroke-width:0.65px;stroke-dasharray:4.4 4.4;}.cls-10,.cls-13{stroke-width:0.46px;}.cls-11{fill:url(#Unbenannter_Verlauf_26-2);}.cls-12{stroke-width:0.4px;}</style><linearGradient id="Unbenannter_Verlauf_26" x1="93.4" y1="64.32" x2="145.98" y2="64.32" gradientUnits="userSpaceOnUse"><stop offset="0"/><stop offset="0.16" stop-color="#0f0f0f"/><stop offset="0.47" stop-color="#373737"/><stop offset="0.9" stop-color="#767676"/><stop offset="1" stop-color="#878787"/></linearGradient><linearGradient id="Unbenannter_Verlauf_26-2" x1="163.76" y1="109.18" x2="190.93" y2="109.18" xlink:href="#Unbenannter_Verlauf_26"/></defs><title>Artboard 1 copy</title><g id="_Group_" data-name="&lt;Group&gt;"><g id="_Group_2" data-name="&lt;Group&gt;"><polygon id="_Path_" data-name="&lt;Path&gt;" class="cls-1" points="62.67 36.09 62.62 51.91 52.5 46.06 52.55 30.24 62.67 36.09"/></g><g id="_Group_3" data-name="&lt;Group&gt;"><polygon id="_Path_2" data-name="&lt;Path&gt;" class="cls-1" points="62.67 36.09 79.42 26.35 79.38 42.17 62.62 51.91 62.67 36.09"/></g><g id="_Group_4" data-name="&lt;Group&gt;"><polygon id="_Path_3" data-name="&lt;Path&gt;" class="cls-1" points="52.55 30.24 69.3 20.5 79.42 26.35 62.67 36.09 52.55 30.24"/></g></g><g id="_Group_5" data-name="&lt;Group&gt;" class="cls-2"><line id="_Path_4" data-name="&lt;Path&gt;" class="cls-3" x1="87.76" y1="54.8" x2="76.99" y2="48.46"/><polyline id="_Path_5" data-name="&lt;Path&gt;" class="cls-4" points="87.18 50.68 88.44 55.22 83.86 56.33"/></g><g id="_Group_6" data-name="&lt;Group&gt;" class="cls-2"><line id="_Path_6" data-name="&lt;Path&gt;" class="cls-3" x1="149.48" y1="89.92" x2="138.7" y2="83.57"/><polyline id="_Path_7" data-name="&lt;Path&gt;" class="cls-4" points="148.9 85.79 150.16 90.34 145.57 91.45"/></g><g id="_Group_7" data-name="&lt;Group&gt;"><polyline id="_Path_8" data-name="&lt;Path&gt;" class="cls-5" points="101.43 81.01 101.43 90.76 107.17 93.99"/><g id="_Group_8" data-name="&lt;Group&gt;"><polygon id="_Path_9" data-name="&lt;Path&gt;" class="cls-6" points="145.87 34.28 145.98 72.04 107.35 94.36 107.31 81.44 93.47 89.43 93.4 64.58 145.87 34.28"/></g><polygon id="_Path_10" data-name="&lt;Path&gt;" class="cls-7" points="140.2 31.51 145.73 34.4 93.41 64.59 93.48 89.1 88.34 86.18 87.99 61.56 140.2 31.51"/><line id="_Path_11" data-name="&lt;Path&gt;" class="cls-5" x1="93.36" y1="64.69" x2="88.09" y2="61.64"/><g id="_Group_9" data-name="&lt;Group&gt;"><path class="cls-8" d="M113,71.59c.26-.15.48,0,.48.28a1.09,1.09,0,0,1-.48.83l-7.79,4.49c-.26.16-.48,0-.48-.27a1,1,0,0,1,.48-.83Z"/><path class="cls-8" d="M99.7,67.34a.35.35,0,0,1,.34,0l4.88,2.79a.33.33,0,0,1,.14.31,1,1,0,0,1-.14.47l-4.85,8.39a.85.85,0,0,1-.34.36.35.35,0,0,1-.34,0c-.19-.11-.19-.46,0-.78l4.51-7.81-4.54-2.59c-.19-.1-.19-.45,0-.78A.91.91,0,0,1,99.7,67.34Z"/></g></g><g id="_Group_10" data-name="&lt;Group&gt;"><g id="_Group_11" data-name="&lt;Group&gt;"><circle id="_Path_12" data-name="&lt;Path&gt;" class="cls-8" cx="175.83" cy="110.83" r="26.67" transform="translate(22.53 251.18) rotate(-74.7)"/><circle id="_Path_13" data-name="&lt;Path&gt;" class="cls-9" cx="175.83" cy="110.83" r="26.67" transform="translate(20.39 248.8) rotate(-73.82)"/></g><g id="_Group_12" data-name="&lt;Group&gt;"><g id="_Group_13" data-name="&lt;Group&gt;"><polygon id="_Path_14" data-name="&lt;Path&gt;" class="cls-10" points="163.95 122.36 163.93 129.11 160.73 127.22 160.73 120.79 163.95 122.36"/></g><g id="_Group_14" data-name="&lt;Group&gt;"><g id="_Group_15" data-name="&lt;Group&gt;"><polygon id="_Path_15" data-name="&lt;Path&gt;" class="cls-11" points="190.87 93.65 190.93 113.17 170.97 124.7 170.95 118.03 163.8 122.15 163.76 109.31 190.87 93.65"/></g><polygon id="_Path_16" data-name="&lt;Path&gt;" class="cls-12" points="187.94 92.54 190.8 93.72 163.76 109.32 163.8 121.98 160.83 120.48 160.96 108.07 187.94 92.54"/><line id="_Path_17" data-name="&lt;Path&gt;" class="cls-13" x1="163.74" y1="109.37" x2="161.02" y2="108.11"/><g id="_Group_16" data-name="&lt;Group&gt;"><g id="_Group_17" data-name="&lt;Group&gt;"><path id="_Path_18" data-name="&lt;Path&gt;" class="cls-8" d="M174,112.56c.27-.15.48,0,.48.28a1,1,0,0,1-.48.83l-3.85,2.23c-.27.15-.48,0-.48-.28a1.05,1.05,0,0,1,.48-.83Z"/></g><g id="_Group_18" data-name="&lt;Group&gt;"><path id="_Path_19" data-name="&lt;Path&gt;" class="cls-8" d="M167.08,110.92a.14.14,0,0,1,.14,0l2.52,1.43a.14.14,0,0,1,.06.13.38.38,0,0,1-.06.19l-2.5,4.33a.41.41,0,0,1-.14.15.14.14,0,0,1-.14,0c-.07,0-.07-.18,0-.31l2.37-4.1L167,111.38c-.08,0-.08-.19,0-.31A.5.5,0,0,1,167.08,110.92Z"/></g></g></g><g id="_Group_19" data-name="&lt;Group&gt;"><polygon id="_Path_20" data-name="&lt;Path&gt;" class="cls-10" points="163.96 122.24 170.93 118.18 170.91 124.98 163.94 129.03 163.96 122.24"/></g></g></g></svg>