<?xml version="1.0" encoding="UTF-8"?>
<svg width="66px" height="74px" viewBox="0 0 66 74" version="1.1" xmlns="http://www.w3.org/2000/svg" xmlns:xlink="http://www.w3.org/1999/xlink">
    <!-- Generator: Sketch 46.2 (44496) - http://www.bohemiancoding.com/sketch -->
    <title>ICON</title>
    <desc>Created with Sketch.</desc>
    <defs></defs>
    <g id="Templates" stroke="none" stroke-width="1" fill="none" fill-rule="evenodd" stroke-linecap="round" stroke-linejoin="round">
        <g id="Dashboard" transform="translate(-503.000000, -642.000000)" stroke="#4A4A4A" stroke-width="1.5">
            <g id="Welcome" transform="translate(29.000000, 86.000000)">
                <g id="Integrate" transform="translate(158.000000, 485.000000)">
                    <g id="ICON" transform="translate(317.000000, 71.000000)">
                        <g id="Group-2" transform="translate(0.042432, 0.231652)">
                            <polyline id="Stroke-1" points="42.1858391 35.3462292 49.9600889 0.559421242 63.4426397 62.7808594 36.4806642 62.7808594 37.9936608 55.7750885"></polyline>
                            <path d="M14.1542112,55.1713029 C3.00054992,61.2018655 -5.58664389,42.9214278 5.15125591,36.1578861 C2.30344609,25.6004693 9.44954186,15.0556359 19.3059023,15.0556359 C26.6583158,15.0556359 32.7384366,21.0138443 33.8794362,28.8092193 C39.6563325,30.4419068 43.9327362,36.2333861 43.9327362,43.1479278 C43.9327362,54.9290738 32.1319876,61.9159697 23.33535,55.5896988" id="Stroke-3"></path>
                            <path d="M47.3571429,72.4833959 L47.3571429,53.7122082" id="Stroke-5"></path>
                            <path d="M18.5714286,72.6466575 L18.5714286,31.9678862" id="Stroke-7"></path>
                            <path d="M18.5636862,51.521829 C18.5636862,51.521829 20.6987621,36.1984747 30.9615059,39.7501205" id="Stroke-9"></path>
                            <path d="M18.2467859,48.2907507 C18.2467859,48.2907507 13.6233932,38.0856673 8.89684168,42.942834" id="Stroke-11"></path>
                        </g>
                    </g>
                </g>
            </g>
        </g>
    </g>
</svg>