<?xml version="1.0" encoding="UTF-8"?>
<svg width="42px" height="45px" viewBox="0 0 42 45" version="1.1" xmlns="http://www.w3.org/2000/svg" xmlns:xlink="http://www.w3.org/1999/xlink">
    <!-- Generator: Sketch 46.2 (44496) - http://www.bohemiancoding.com/sketch -->
    <title>ICON</title>
    <desc>Created with Sketch.</desc>
    <defs></defs>
    <g id="Templates" stroke="none" stroke-width="1" fill="none" fill-rule="evenodd" stroke-linecap="round" stroke-linejoin="round">
        <g id="Dashboard" transform="translate(-179.000000, -663.000000)" stroke="#4A4A4A" stroke-width="1.5">
            <g id="Welcome" transform="translate(29.000000, 86.000000)">
                <g id="Start-fresh" transform="translate(20.000000, 485.000000)">
                    <g id="ICON" transform="translate(130.000000, 92.000000)">
                        <g id="Group-3" transform="translate(0.636364, 0.795455)">
                            <path d="M34.1609792,8.77756683 C34.1609792,8.77756683 30.1792042,12.2440187 25.8184766,13.9214583 C21.457749,15.5969741 19.1581538,21.31989 19.1581538,21.31989 C19.1581538,21.31989 19.2764609,25.7597185 20.6979953,30.4938684 C22.1213782,35.2299419 19.9400901,43.1073673 19.9400901,43.1073673" id="Stroke-1"></path>
                            <path d="M18.8475975,17.5179502 C16.1912323,9.22885962 0.221615592,12.2066995 0.221615592,12.2066995 C0.221615592,12.2066995 5.60089382,34.0461159 19.1581538,21.3210442 C19.1581538,21.3210442 18.7126534,19.7840325 18.8475975,17.5179502 Z" id="Stroke-3"></path>
                            <path d="M40.0911251,0.29841774 C22.3672352,3.68215186 19.148911,12.4367704 18.8475975,17.5171807 C18.7126534,19.783263 19.1581538,21.3202747 19.1581538,21.3202747 C43.4684246,34.176156 40.0911251,0.29841774 40.0911251,0.29841774 Z" id="Stroke-5"></path>
                            <path d="M8.94344051,17.7680272 C8.94344051,17.7680272 16.6833161,18.2624102 19.1585235,21.3210442" id="Stroke-7"></path>
                            <path d="M34.1609792,8.77756683 C34.1609792,8.77756683 30.1792042,12.2440187 25.8184766,13.9214583 C21.457749,15.5969741 19.1581538,21.31989 19.1581538,21.31989 C19.1581538,21.31989 19.2764609,25.7597185 20.6979953,30.4938684 C22.1213782,35.2299419 19.9400901,43.1073673 19.9400901,43.1073673" id="Stroke-9"></path>
                            <path d="M18.8475975,17.5179502 C16.1912323,9.22885962 0.221615592,12.2066995 0.221615592,12.2066995 C0.221615592,12.2066995 5.60089382,34.0461159 19.1581538,21.3210442 C19.1581538,21.3210442 18.7126534,19.7840325 18.8475975,17.5179502 Z" id="Stroke-11"></path>
                            <path d="M40.0911251,0.29841774 C22.3672352,3.68215186 19.148911,12.4367704 18.8475975,17.5171807 C18.7126534,19.783263 19.1581538,21.3202747 19.1581538,21.3202747 C43.4684246,34.176156 40.0911251,0.29841774 40.0911251,0.29841774 Z" id="Stroke-13"></path>
                            <path d="M8.94344051,17.7680272 C8.94344051,17.7680272 16.6833161,18.2624102 19.1585235,21.3210442" id="Stroke-15"></path>
                        </g>
                    </g>
                </g>
            </g>
        </g>
    </g>
</svg>