<?xml version="1.0" encoding="UTF-8"?>
<svg width="171px" height="171px" viewBox="0 0 171 171" version="1.1" xmlns="http://www.w3.org/2000/svg" xmlns:xlink="http://www.w3.org/1999/xlink">
    <!-- Generator: Sketch 46.2 (44496) - http://www.bohemiancoding.com/sketch -->
    <title>ICON</title>
    <desc>Created with Sketch.</desc>
    <defs></defs>
    <g id="Templates" stroke="none" stroke-width="1" fill="none" fill-rule="evenodd">
        <g id="Onboarding" transform="translate(-386.000000, -272.000000)">
            <g id="NEW" transform="translate(229.000000, 147.000000)">
                <g id="ICON" transform="translate(160.000000, 128.000000)">
                    <ellipse id="Oval" stroke="#76E3DC" stroke-width="5" cx="82.4486663" cy="82.393824" rx="82.4486663" ry="82.393824"></ellipse>
                    <g id="Group-3" transform="translate(38.000000, 42.000000)" stroke="#4A4A4A" stroke-width="2" stroke-linecap="round" stroke-linejoin="round">
                        <path d="M71.5753851,18.3910924 C71.5753851,18.3910924 63.2326184,25.6541345 54.0958558,29.1687697 C44.9590932,32.6793744 40.1408936,44.6702457 40.1408936,44.6702457 C40.1408936,44.6702457 40.3887753,53.9727435 43.3672282,63.8919147 C46.3495543,73.8151165 41.7792364,90.3201982 41.7792364,90.3201982" id="Stroke-1"></path>
                        <path d="M39.4902043,36.7042766 C33.9244867,19.3366582 0.464337432,25.5759419 0.464337432,25.5759419 C0.464337432,25.5759419 11.7352061,71.3347191 40.1408936,44.672664 C40.1408936,44.672664 39.2074643,41.4522586 39.4902043,36.7042766 Z" id="Stroke-3"></path>
                        <path d="M84.0004527,0.625256218 C46.8646833,7.71498484 40.1215279,26.0579951 39.4902043,36.7026644 C39.2074643,41.4506464 40.1408936,44.6710518 40.1408936,44.6710518 C91.0766991,71.6071839 84.0004527,0.625256218 84.0004527,0.625256218 Z" id="Stroke-5"></path>
                        <path d="M18.7386373,37.2282474 C18.7386373,37.2282474 34.9555194,38.2640975 40.1416683,44.672664" id="Stroke-7"></path>
                        <path d="M71.5753851,18.3910924 C71.5753851,18.3910924 63.2326184,25.6541345 54.0958558,29.1687697 C44.9590932,32.6793744 40.1408936,44.6702457 40.1408936,44.6702457 C40.1408936,44.6702457 40.3887753,53.9727435 43.3672282,63.8919147 C46.3495543,73.8151165 41.7792364,90.3201982 41.7792364,90.3201982" id="Stroke-9"></path>
                        <path d="M39.4902043,36.7042766 C33.9244867,19.3366582 0.464337432,25.5759419 0.464337432,25.5759419 C0.464337432,25.5759419 11.7352061,71.3347191 40.1408936,44.672664 C40.1408936,44.672664 39.2074643,41.4522586 39.4902043,36.7042766 Z" id="Stroke-11"></path>
                        <path d="M84.0004527,0.625256218 C46.8646833,7.71498484 40.1215279,26.0579951 39.4902043,36.7026644 C39.2074643,41.4506464 40.1408936,44.6710518 40.1408936,44.6710518 C91.0766991,71.6071839 84.0004527,0.625256218 84.0004527,0.625256218 Z" id="Stroke-13"></path>
                        <path d="M18.7386373,37.2282474 C18.7386373,37.2282474 34.9555194,38.2640975 40.1416683,44.672664" id="Stroke-15"></path>
                    </g>
                </g>
            </g>
        </g>
    </g>
</svg>