<?xml version="1.0" encoding="UTF-8"?>
<svg width="50px" height="50px" viewBox="0 0 50 50" version="1.1" xmlns="http://www.w3.org/2000/svg" xmlns:xlink="http://www.w3.org/1999/xlink">
    <!-- Generator: Sketch 46.2 (44496) - http://www.bohemiancoding.com/sketch -->
    <title>Devices_Icon_single</title>
    <desc>Created with Sketch.</desc>
    <defs></defs>
    <g id="Symbols" stroke="none" stroke-width="1" fill="none" fill-rule="evenodd">
        <g id="Devices_Icon_single">
            <g id="Group" transform="translate(7.000000, 14.000000)">
                <g id="Icon">
                    <polygon id="Fill-1" fill="#48DAD0" points="18.4960587 12.393971 8.71116739 10.7782464 8.97660217 9.20556522 18.4960587 10.7782464 28.0155152 9.20556522 28.28095 10.7782464"></polygon>
                    <path d="M3.64393696,19.9275362 C2.95943696,19.9275362 2.4052413,19.3775362 2.4052413,18.7 L2.4052413,10.5137681 C2.4052413,10.3304348 2.41328478,10.2347826 2.42052391,10.1949275 C2.43741522,10.1789855 2.45350217,10.1471014 2.49291522,10.1072464 L9.78915435,1.84927536 L9.81328478,1.8173913 L9.82856739,1.79347826 C9.94117609,1.65797101 10.0618283,1.5942029 10.2154587,1.5942029 L26.768937,1.5942029 C26.9137196,1.5942029 27.0424152,1.65797101 27.1308935,1.7615942 L27.1542196,1.79347826 L27.1711109,1.8173913 L34.5148065,10.1311594 C34.5300891,10.1550725 34.5469804,10.1710145 34.562263,10.1949275 C34.5711109,10.2347826 34.5791543,10.3304348 34.5791543,10.5137681 L34.5791543,18.7 C34.5791543,19.3775362 34.0241543,19.9275362 33.3404587,19.9275362 L30.5405239,19.9275362 L30.5405239,17.5362319 L7.23937174,17.5362319 L7.23937174,19.9275362 L3.64393696,19.9275362 Z M26.768937,0 L10.2154587,0 C9.58002391,0 8.99204565,0.278985507 8.57458913,0.797101449 L4.15067609,5.81086957 L4.15067609,5.78695652 C3.85306739,6.12971014 3.41871957,6.35289855 2.92806739,6.35289855 L0.000241304348,6.35289855 L0.000241304348,7.96304348 L2.24437174,7.96304348 L1.26306739,9.07898551 C0.933284783,9.47753623 0.796545652,9.72463768 0.796545652,10.5137681 L0.796545652,18.7 C0.796545652,20.2543478 2.0754587,21.5217391 3.64393696,21.5217391 L8.84806739,21.5217391 L8.84806739,19.1304348 L28.9318283,19.1304348 L28.9318283,21.5217391 L33.3404587,21.5217391 C34.908937,21.5217391 36.18785,20.2543478 36.18785,18.7 L36.18785,10.5137681 C36.18785,9.72463768 36.0511109,9.47753623 35.7446543,9.10289855 L34.7561109,7.97898551 L36.9921978,7.97898551 L36.9921978,6.37681159 L34.0563283,6.37681159 C33.5890022,6.37681159 33.1715457,6.17753623 32.8819804,5.85869565 L32.8337196,5.81086957 L28.3856761,0.765217391 C27.9915457,0.278985507 27.4043717,0 26.768937,0 L26.768937,0 Z" id="Fill-2" fill="#FFFFFF"></path>
                </g>
            </g>
        </g>
    </g>
</svg>