<?xml version="1.0" encoding="UTF-8"?>
<svg width="24px" height="24px" viewBox="0 0 24 24" version="1.1" xmlns="http://www.w3.org/2000/svg" xmlns:xlink="http://www.w3.org/1999/xlink">
    <!-- Generator: Sketch 46.2 (44496) - http://www.bohemiancoding.com/sketch -->
    <title>Public Key active</title>
    <desc>Created with Sketch.</desc>
    <defs></defs>
    <g id="Symbols" stroke="none" stroke-width="1" fill="none" fill-rule="evenodd">
        <g id="Public-Key-active">
            <g id="Group" transform="translate(1.000000, 2.000000)">
                <path d="M11.4309917,12.5190308 L13.9757798,9.99893411 C15.9219579,10.8692957 18.2894832,10.5191291 19.8885605,8.93464818 C21.9516764,6.89155007 21.9516764,3.57737474 19.8885605,1.53335756 C17.8235884,-0.511578696 14.4778696,-0.510659624 12.4138256,1.53335756 C10.9121965,3.01949775 10.5084828,5.17656084 11.1915478,7.02941095 L0.458333333,17.6584841 L1.23699022,19.4791667 L4.28572428,19.368878 L4.97899805,16.7890415 L7.95812631,16.2137022 L8.49177078,12.4491813 L11.4309917,12.5190308 Z" id="Page-1" stroke="#FFFFFF" stroke-linecap="round" stroke-linejoin="round"></path>
                <path d="M18.2372497,5.24672372 C17.6104749,5.87230237 16.5949562,5.87230237 15.9681814,5.24672372 C15.3414067,4.61994894 15.3414067,3.60443025 15.9681814,2.97765547 C16.5949562,2.35088068 17.6104749,2.35088068 18.2372497,2.97765547 C18.8628283,3.60443025 18.8628283,4.61994894 18.2372497,5.24672372 Z" id="Path" fill="#FFFFFF"></path>
            </g>
        </g>
    </g>
</svg>