<?xml version="1.0" encoding="UTF-8"?>
<svg width="25px" height="25px" viewBox="0 0 25 25" version="1.1" xmlns="http://www.w3.org/2000/svg" xmlns:xlink="http://www.w3.org/1999/xlink">
    <!-- Generator: Sketch 46.2 (44496) - http://www.bohemiancoding.com/sketch -->
    <title>Lock Icon active</title>
    <desc>Created with Sketch.</desc>
    <defs></defs>
    <g id="Symbols" stroke="none" stroke-width="1" fill="none" fill-rule="evenodd">
        <g id="Lock-Icon-active" stroke="#FFFFFF" stroke-width="0.9">
            <path d="M12.5,24.55 C19.1550312,24.55 24.55,19.1550312 24.55,12.5 C24.55,5.84496876 19.1550312,0.45 12.5,0.45 C5.84496876,0.45 0.45,5.84496876 0.45,12.5 C0.45,19.1550312 5.84496876,24.55 12.5,24.55 Z" id="Oval-3"></path>
            <g id="Group" transform="translate(8.000000, 6.000000)" stroke-linecap="round" stroke-linejoin="round">
                <g id="Page-1">
                    <g id="Group-2">
                        <path d="M1.35777778,5.09205556 C0.751626984,5.09205556 0.257936508,5.60261111 0.257936508,6.25594444 L0.744404762,11.7042778 C0.744404762,12.3581667 1.23809524,12.8698333 1.84424603,12.8698333 L7.48634921,12.8698333 C8.0925,12.8698333 8.58619048,12.3476111 8.58619048,11.6937222 L9.0731746,6.2515 C9.0731746,5.59816667 8.57948413,5.09205556 7.97281746,5.09205556 L1.35777778,5.09205556 Z" id="Stroke-1"></path>
                        <path d="M5.24116667,10.6476111 L4.0897381,10.6476111 L3.87307143,8.72705556 C3.87307143,8.26427778 4.22799206,7.89816667 4.66493651,7.89816667 C5.10239683,7.89816667 5.45731746,8.25927778 5.45731746,8.72205556 L5.24116667,10.6476111 Z" id="Stroke-3"></path>
                        <path d="M2.34459127,5.09205556 L2.34459127,2.61261111 C2.34459127,1.32483333 3.44185317,0.277611111 4.66601984,0.277611111 C5.89121825,0.277611111 6.98744841,1.32483333 6.98744841,2.61261111 L6.98744841,5.09205556" id="Stroke-5"></path>
                    </g>
                </g>
            </g>
        </g>
    </g>
</svg>