<?xml version="1.0" encoding="UTF-8"?>
<svg width="25px" height="25px" viewBox="0 0 25 25" version="1.1" xmlns="http://www.w3.org/2000/svg" xmlns:xlink="http://www.w3.org/1999/xlink">
    <!-- Generator: Sketch 46.2 (44496) - http://www.bohemiancoding.com/sketch -->
    <title>Question Icon active</title>
    <desc>Created with Sketch.</desc>
    <defs></defs>
    <g id="Symbols" stroke="none" stroke-width="1" fill="none" fill-rule="evenodd">
        <g id="Question-Icon-active" stroke="#FFFFFF">
            <path d="M12.5,24.5 C19.127417,24.5 24.5,19.127417 24.5,12.5 C24.5,5.872583 19.127417,0.5 12.5,0.5 C5.872583,0.5 0.5,5.872583 0.5,12.5 C0.5,19.127417 5.872583,24.5 12.5,24.5 Z" id="Oval-3"></path>
            <g id="Group" transform="translate(9.000000, 6.500000)" stroke-linecap="round" stroke-linejoin="round">
                <path d="M3.03333333,12.4761 L3.03333333,12.1333333" id="Stroke-3"></path>
                <path d="M3.29344167,9.62021667 L3.29344167,7.53935 C3.29344167,7.21705833 3.501225,6.93116667 3.80986667,6.82120833 C5.68901667,6.15463333 7.25345833,5.13846667 7.25345833,3.41098333 C7.25345833,1.52728333 5.51535833,0 3.37155,0 C1.92768333,0 0.66885,0.692358333 0,1.7199" id="Stroke-5"></path>
            </g>
        </g>
    </g>
</svg>