<?xml version="1.0" encoding="UTF-8"?>
<svg width="16px" height="16px" viewBox="0 0 16 16" version="1.1" xmlns="http://www.w3.org/2000/svg" xmlns:xlink="http://www.w3.org/1999/xlink">
    <!-- Generator: Sketch 57.1 (83088) - https://sketch.com -->
    <title>software-versions-active-outline-16</title>
    <desc>Created with Sketch.</desc>
    <g id="software-versions-active-outline-16" stroke="none" stroke-width="1" fill="none" fill-rule="evenodd">
        <g id="LUI-icon-pd-software-solid-16">
            <rect id="Rectangle" x="0" y="0" width="16" height="16"></rect>
            <path d="M12,6.08 L11,7.08 L12,8.08 L11,9.08 L12,10.08 L14,8.08 L12,6.08 Z M4,8.08 L5,7.08 L4,6.08 L2,8.08 L4,10.08 L5,9.08 L4,8.08 Z M7.29,12.08 L5.46,11.27 L8.71,3.94 L10.54,4.75 L7.29,12.08 Z M15,5 L13,5 L13,3 L3,3 L3,5 L1,5 L1,2 C1,1.44771525 1.44771525,1 2,1 L14,1 C14.5522847,1 15,1.44771525 15,2 L15,5 Z M1,11 L3,11 L3,13 L13,13 L13,11 L15,11 L15,14 C15,14.5522847 14.5522847,15 14,15 L2,15 C1.44771525,15 1,14.5522847 1,14 L1,11 Z" id="Shape" fill-opacity="0.8" fill="#0F1621" fill-rule="nonzero"></path>
        </g>
    </g>
</svg>