<?xml version="1.0" encoding="UTF-8"?>
<svg width="14px" height="14px" viewBox="0 0 14 14" version="1.1" xmlns="http://www.w3.org/2000/svg" xmlns:xlink="http://www.w3.org/1999/xlink">
    <!-- Generator: sketchtool 63.1 (101010) - https://sketch.com -->
    <title>65514F88-8B45-4043-A4A7-3649A1E6B845</title>
    <desc>Created with sketchtool.</desc>
    <g id="Environments" stroke="none" stroke-width="1" fill="none" fill-rule="evenodd">
        <g id="Settings---Environment---Details" transform="translate(-1151.000000, -375.000000)">
            <g id="Dark/Table/table-row/User-2" transform="translate(30.000000, 282.000000)">
                <g id="Dark/Table/table-row/User" transform="translate(1.000000, 80.000000)">
                    <g id="OnLight/Button/Small/Label-w-icon-left---negative/Tertiary/Default" transform="translate(1119.000000, 10.000000)">
                        <g id="Icons-16-/-Core-UI-/-cross_" transform="translate(0.000000, 2.000000)">
                            <g id="LUI-icon-pd-sign_out-solid-16">
                                <rect id="Rectangle" x="0" y="0" width="16" height="16"></rect>
                                <path d="M10,9 L10,7 L4,7 L5,6 L4,5 L1,8 L4,11 L5,10 L4,9 L10,9 Z M14,1 L7,1 L7,3 L13,3 L13,13 L7,13 L7,15 L14,15 C14.71,15 15,14.77 15,14 L15,2 C15,1.2 14.71,1 14,1 Z" id="---↳-🌈-Color" fill="#D0000D"></path>
                            </g>
                        </g>
                    </g>
                </g>
            </g>
        </g>
    </g>
</svg>