<?xml version="1.0" encoding="UTF-8"?>
<svg width="14px" height="14px" viewBox="0 0 14 14" version="1.1" xmlns="http://www.w3.org/2000/svg" xmlns:xlink="http://www.w3.org/1999/xlink">
    <!-- Generator: sketchtool 62 (101010) - https://sketch.com -->
    <title>359823B8-9BF7-4E51-9D03-FA9FF265F3A7</title>
    <desc>Created with sketchtool.</desc>
    <g id="ECU" stroke="none" stroke-width="1" fill="none" fill-rule="evenodd">
        <g id="Device-details-history-success-v2" transform="translate(-319.000000, -274.000000)">
            <g id="Single-Device" transform="translate(118.000000, 141.000000)">
                <g id="Single-Device-Copy" transform="translate(170.000000, 120.000000)">
                    <g id="LUI-icon-pd-computer_chip-solid-16" transform="translate(30.000000, 12.000000)">
                        <g>
                            <rect id="Rectangle" x="0" y="0" width="16" height="16"></rect>
                            <path d="M14,9 L13,9 L13,7 L14,7 C14.5522847,7 15,6.55228475 15,6 C15,5.44771525 14.5522847,5 14,5 L13,5 L13,3 L11,3 L11,2 C11,1.44771525 10.5522847,1 10,1 C9.44771525,1 9,1.44771525 9,2 L9,3 L7,3 L7,2 C7,1.44771525 6.55228475,1 6,1 C5.44771525,1 5,1.44771525 5,2 L5,3 L3,3 L3,5 L2,5 C1.44771525,5 1,5.44771525 1,6 C1,6.55228475 1.44771525,7 2,7 L3,7 L3,9 L2,9 C1.44771525,9 1,9.44771525 1,10 C1,10.5522847 1.44771525,11 2,11 L3,11 L3,13 L5,13 L5,14 C5,14.5522847 5.44771525,15 6,15 C6.55228475,15 7,14.5522847 7,14 L7,13 L9,13 L9,14 C9,14.5522847 9.44771525,15 10,15 C10.5522847,15 11,14.5522847 11,14 L11,13 L13,13 L13,11 L14,11 C14.5522847,11 15,10.5522847 15,10 C15,9.44771525 14.5522847,9 14,9 Z M11,11 L5,11 L5,5 L11,5 L11,11 Z M9,9 L7,9 L7,7 L9,7 L9,9 Z" id="Shape" fill="#6F737A"></path>
                        </g>
                    </g>
                </g>
            </g>
        </g>
    </g>
</svg>