<?xml version="1.0" encoding="UTF-8"?>
<svg width="17px" height="16px" viewBox="0 0 17 16" version="1.1" xmlns="http://www.w3.org/2000/svg" xmlns:xlink="http://www.w3.org/1999/xlink">
    <!-- Generator: sketchtool 60.1 (101010) - https://sketch.com -->
    <title>73A628B5-ED64-4703-BD1B-F228CB5E790E</title>
    <desc>Created with sketchtool.</desc>
    <g id="Asset-Artboard-Page" stroke="none" stroke-width="1" fill="none" fill-rule="evenodd">
        <g id="Icons/LUI-icon-pd-attention-solid-16" transform="translate(0.499278, 0.000000)">
            <g id="LUI-icon-pd-attention-solid-16">
                <rect id="Rectangle" x="0" y="0" width="16" height="16"></rect>
                <path d="M8,1 C9.85651543,1 11.6369928,1.73749788 12.9497475,3.05025253 C14.2625021,4.36300718 15,6.14348457 15,8 C15,11.8659932 11.8659932,15 8,15 C4.13400675,15 1,11.8659932 1,8 C1,4.13400675 4.13400675,1 8,1 Z M9,10 L7,10 L7,12 L9,12 L9,10 Z M9,4 L7,4 L7,9 L9,9 L9,4 Z" id="Shape" fill="#FFBD09"></path>
            </g>
        </g>
    </g>
</svg>