<?xml version="1.0" encoding="UTF-8"?>
<svg width="16px" height="16px" viewBox="0 0 16 16" version="1.1" xmlns="http://www.w3.org/2000/svg" xmlns:xlink="http://www.w3.org/1999/xlink">
    <!-- Generator: Sketch 57.1 (83088) - https://sketch.com -->
    <title>software-updates-inactive-outline-16</title>
    <desc>Created with Sketch.</desc>
    <g id="software-updates-inactive-outline-16" stroke="none" stroke-width="1" fill="none" fill-rule="evenodd" opacity="0.3">
        <g id="LUI-icon-pd-tuner-solid-16---disabled">
            <rect id="Rectangle" x="0" y="0" width="16" height="16"></rect>
            <path d="M15,5 L8,5 L8,3 L15,3 L15,5 Z M1,5 L4,5 L4,7 L6,7 L6,1 L4,1 L4,3 L1,3 L1,5 Z M15,11 L12,11 L12,9 L10,9 L10,15 L12,15 L12,13 L15,13 L15,11 Z M1,13 L8,13 L8,11 L1,11 L1,13 Z" id="Shape" fill="#3F454D" fill-rule="nonzero"></path>
        </g>
    </g>
</svg>