<?xml version="1.0" encoding="UTF-8"?>
<svg width="16px" height="16px" viewBox="0 0 16 16" version="1.1" xmlns="http://www.w3.org/2000/svg" xmlns:xlink="http://www.w3.org/1999/xlink">
    <!-- Generator: sketchtool 62 (101010) - https://sketch.com -->
    <title>4BCDB6F4-90E7-4D36-88C4-BAF54B3E4521</title>
    <desc>Created with sketchtool.</desc>
    <g id="Asset-Artboard-Page" stroke="none" stroke-width="1" fill="none" fill-rule="evenodd">
        <g id="Icons-16-/-Core-UI-/-cross_-Icons-16-/-Core-UI-/-delete-/-solid">
            <g id="LUI-icon-pd-delete-solid-16">
                <rect id="Rectangle" x="0" y="0" width="16" height="16"></rect>
                <path d="M11,3 L11,1 L5,1 L5,3 L1,3 L1,5 L2,5 L2,14 C2,14.5522847 2.44771525,15 3,15 L13,15 C13.5522847,15 14,14.5522847 14,14 L14,5 L15,5 L15,3 L11,3 Z M7,12 L5,12 L5,7 L7,7 L7,12 Z M11,12 L9,12 L9,7 L11,7 L11,12 Z" id="---↳-🌈-Color" fill="#D0000D"></path>
            </g>
        </g>
    </g>
</svg>