<?xml version="1.0" encoding="UTF-8"?>
<svg width="1440px" height="900px" viewBox="0 0 1440 900" version="1.1" xmlns="http://www.w3.org/2000/svg" xmlns:xlink="http://www.w3.org/1999/xlink">
    <!-- Generator: Sketch 51.1 (57501) - http://www.bohemiancoding.com/sketch -->
    <title>Update List view -- criteria smart group Copy</title>
    <desc>Created with Sketch.</desc>
    <defs>
        <rect id="path-1" x="0" y="0" width="1380" height="60"></rect>
        <filter x="-0.0%" y="-0.8%" width="100.1%" height="101.7%" filterUnits="objectBoundingBox" id="filter-2">
            <feOffset dx="0" dy="1" in="SourceAlpha" result="shadowOffsetInner1"></feOffset>
            <feComposite in="shadowOffsetInner1" in2="SourceAlpha" operator="arithmetic" k2="-1" k3="1" result="shadowInnerInner1"></feComposite>
            <feColorMatrix values="0 0 0 0 0.0588235294   0 0 0 0 0.0862745098   0 0 0 0 0.129411765  0 0 0 0.1 0" type="matrix" in="shadowInnerInner1"></feColorMatrix>
        </filter>
        <rect id="path-3" x="0" y="0" width="1380" height="60"></rect>
        <filter x="-0.0%" y="-0.8%" width="100.1%" height="101.7%" filterUnits="objectBoundingBox" id="filter-4">
            <feOffset dx="0" dy="1" in="SourceAlpha" result="shadowOffsetInner1"></feOffset>
            <feComposite in="shadowOffsetInner1" in2="SourceAlpha" operator="arithmetic" k2="-1" k3="1" result="shadowInnerInner1"></feComposite>
            <feColorMatrix values="0 0 0 0 0.0588235294   0 0 0 0 0.0862745098   0 0 0 0 0.129411765  0 0 0 0.1 0" type="matrix" in="shadowInnerInner1"></feColorMatrix>
        </filter>
        <rect id="path-5" x="0" y="0" width="1380" height="60"></rect>
        <filter x="-0.0%" y="-0.8%" width="100.1%" height="101.7%" filterUnits="objectBoundingBox" id="filter-6">
            <feOffset dx="0" dy="1" in="SourceAlpha" result="shadowOffsetInner1"></feOffset>
            <feComposite in="shadowOffsetInner1" in2="SourceAlpha" operator="arithmetic" k2="-1" k3="1" result="shadowInnerInner1"></feComposite>
            <feColorMatrix values="0 0 0 0 0.0588235294   0 0 0 0 0.0862745098   0 0 0 0 0.129411765  0 0 0 0.1 0" type="matrix" in="shadowInnerInner1"></feColorMatrix>
        </filter>
        <rect id="path-7" x="0" y="0" width="1380" height="60"></rect>
        <filter x="-0.0%" y="-0.8%" width="100.1%" height="101.7%" filterUnits="objectBoundingBox" id="filter-8">
            <feOffset dx="0" dy="1" in="SourceAlpha" result="shadowOffsetInner1"></feOffset>
            <feComposite in="shadowOffsetInner1" in2="SourceAlpha" operator="arithmetic" k2="-1" k3="1" result="shadowInnerInner1"></feComposite>
            <feColorMatrix values="0 0 0 0 0.0588235294   0 0 0 0 0.0862745098   0 0 0 0 0.129411765  0 0 0 0.1 0" type="matrix" in="shadowInnerInner1"></feColorMatrix>
        </filter>
        <rect id="path-9" x="0" y="0" width="1380" height="60"></rect>
        <filter x="-0.0%" y="-0.8%" width="100.1%" height="101.7%" filterUnits="objectBoundingBox" id="filter-10">
            <feOffset dx="0" dy="1" in="SourceAlpha" result="shadowOffsetInner1"></feOffset>
            <feComposite in="shadowOffsetInner1" in2="SourceAlpha" operator="arithmetic" k2="-1" k3="1" result="shadowInnerInner1"></feComposite>
            <feColorMatrix values="0 0 0 0 0.0588235294   0 0 0 0 0.0862745098   0 0 0 0 0.129411765  0 0 0 0.1 0" type="matrix" in="shadowInnerInner1"></feColorMatrix>
        </filter>
        <rect id="path-11" x="0" y="0" width="1380" height="60"></rect>
        <filter x="-0.0%" y="-0.8%" width="100.1%" height="101.7%" filterUnits="objectBoundingBox" id="filter-12">
            <feOffset dx="0" dy="1" in="SourceAlpha" result="shadowOffsetInner1"></feOffset>
            <feComposite in="shadowOffsetInner1" in2="SourceAlpha" operator="arithmetic" k2="-1" k3="1" result="shadowInnerInner1"></feComposite>
            <feColorMatrix values="0 0 0 0 0.0588235294   0 0 0 0 0.0862745098   0 0 0 0 0.129411765  0 0 0 0.1 0" type="matrix" in="shadowInnerInner1"></feColorMatrix>
        </filter>
        <rect id="path-13" x="0" y="0" width="1380" height="60"></rect>
        <filter x="-0.0%" y="-0.8%" width="100.1%" height="101.7%" filterUnits="objectBoundingBox" id="filter-14">
            <feOffset dx="0" dy="1" in="SourceAlpha" result="shadowOffsetInner1"></feOffset>
            <feComposite in="shadowOffsetInner1" in2="SourceAlpha" operator="arithmetic" k2="-1" k3="1" result="shadowInnerInner1"></feComposite>
            <feColorMatrix values="0 0 0 0 0.0588235294   0 0 0 0 0.0862745098   0 0 0 0 0.129411765  0 0 0 0.1 0" type="matrix" in="shadowInnerInner1"></feColorMatrix>
        </filter>
        <rect id="path-15" x="0" y="0" width="1380" height="60"></rect>
        <filter x="-0.0%" y="-0.8%" width="100.1%" height="101.7%" filterUnits="objectBoundingBox" id="filter-16">
            <feOffset dx="0" dy="1" in="SourceAlpha" result="shadowOffsetInner1"></feOffset>
            <feComposite in="shadowOffsetInner1" in2="SourceAlpha" operator="arithmetic" k2="-1" k3="1" result="shadowInnerInner1"></feComposite>
            <feColorMatrix values="0 0 0 0 0.0588235294   0 0 0 0 0.0862745098   0 0 0 0 0.129411765  0 0 0 0.1 0" type="matrix" in="shadowInnerInner1"></feColorMatrix>
        </filter>
        <rect id="path-17" x="0" y="0" width="1380" height="60"></rect>
        <filter x="-0.0%" y="-0.8%" width="100.1%" height="101.7%" filterUnits="objectBoundingBox" id="filter-18">
            <feOffset dx="0" dy="1" in="SourceAlpha" result="shadowOffsetInner1"></feOffset>
            <feComposite in="shadowOffsetInner1" in2="SourceAlpha" operator="arithmetic" k2="-1" k3="1" result="shadowInnerInner1"></feComposite>
            <feColorMatrix values="0 0 0 0 0.0588235294   0 0 0 0 0.0862745098   0 0 0 0 0.129411765  0 0 0 0.1 0" type="matrix" in="shadowInnerInner1"></feColorMatrix>
        </filter>
        <rect id="path-19" x="0" y="0" width="1380" height="60"></rect>
        <filter x="-0.0%" y="-0.8%" width="100.1%" height="101.7%" filterUnits="objectBoundingBox" id="filter-20">
            <feOffset dx="0" dy="1" in="SourceAlpha" result="shadowOffsetInner1"></feOffset>
            <feComposite in="shadowOffsetInner1" in2="SourceAlpha" operator="arithmetic" k2="-1" k3="1" result="shadowInnerInner1"></feComposite>
            <feColorMatrix values="0 0 0 0 0.0588235294   0 0 0 0 0.0862745098   0 0 0 0 0.129411765  0 0 0 0.1 0" type="matrix" in="shadowInnerInner1"></feColorMatrix>
        </filter>
        <rect id="path-21" x="0" y="0" width="1380" height="60"></rect>
        <filter x="-0.0%" y="-0.8%" width="100.1%" height="101.7%" filterUnits="objectBoundingBox" id="filter-22">
            <feOffset dx="0" dy="1" in="SourceAlpha" result="shadowOffsetInner1"></feOffset>
            <feComposite in="shadowOffsetInner1" in2="SourceAlpha" operator="arithmetic" k2="-1" k3="1" result="shadowInnerInner1"></feComposite>
            <feColorMatrix values="0 0 0 0 0.0588235294   0 0 0 0 0.0862745098   0 0 0 0 0.129411765  0 0 0 0.1 0" type="matrix" in="shadowInnerInner1"></feColorMatrix>
        </filter>
        <rect id="path-23" x="0" y="0" width="1380" height="60"></rect>
        <filter x="-0.0%" y="-0.8%" width="100.1%" height="101.7%" filterUnits="objectBoundingBox" id="filter-24">
            <feOffset dx="0" dy="1" in="SourceAlpha" result="shadowOffsetInner1"></feOffset>
            <feComposite in="shadowOffsetInner1" in2="SourceAlpha" operator="arithmetic" k2="-1" k3="1" result="shadowInnerInner1"></feComposite>
            <feColorMatrix values="0 0 0 0 0.0588235294   0 0 0 0 0.0862745098   0 0 0 0 0.129411765  0 0 0 0.1 0" type="matrix" in="shadowInnerInner1"></feColorMatrix>
        </filter>
        <rect id="path-25" x="0" y="5" width="1380" height="40"></rect>
        <filter x="-0.0%" y="-1.2%" width="100.1%" height="102.5%" filterUnits="objectBoundingBox" id="filter-26">
            <feOffset dx="0" dy="1" in="SourceAlpha" result="shadowOffsetInner1"></feOffset>
            <feComposite in="shadowOffsetInner1" in2="SourceAlpha" operator="arithmetic" k2="-1" k3="1" result="shadowInnerInner1"></feComposite>
            <feColorMatrix values="0 0 0 0 0.537254902   0 0 0 0 0.545098039   0 0 0 0 0.568627451  0 0 0 1 0" type="matrix" in="shadowInnerInner1"></feColorMatrix>
        </filter>
        <rect id="path-27" x="0" y="0" width="1380" height="20"></rect>
        <filter x="-0.0%" y="-2.5%" width="100.1%" height="105.0%" filterUnits="objectBoundingBox" id="filter-28">
            <feOffset dx="0" dy="1" in="SourceAlpha" result="shadowOffsetInner1"></feOffset>
            <feComposite in="shadowOffsetInner1" in2="SourceAlpha" operator="arithmetic" k2="-1" k3="1" result="shadowInnerInner1"></feComposite>
            <feColorMatrix values="0 0 0 0 0.537254902   0 0 0 0 0.545098039   0 0 0 0 0.568627451  0 0 0 1 0" type="matrix" in="shadowInnerInner1"></feColorMatrix>
        </filter>
        <polygon id="path-29" points="0 0.336134454 1441.67187 -1.04083409e-16 1441.67187 60 0 60"></polygon>
    </defs>
    <g id="Update-List-view----criteria-smart-group-Copy" stroke="none" stroke-width="1" fill="none" fill-rule="evenodd">
        <g id="BG">
            <polygon fill="#0F1621" points="0 0 999.356099 0.990778879 1440 1.42764085 1440 901 0 901"></polygon>
            <g id="List" transform="translate(30.000000, 89.000000)">
                <g id="Line-Copy-11" transform="translate(0.000000, 754.000000)">
                    <g id="Rectangle-10-Copy">
                        <use fill="#F3F3F4" fill-rule="evenodd" xlink:href="#path-1"></use>
                        <use fill="black" fill-opacity="1" filter="url(#filter-2)" xlink:href="#path-1"></use>
                    </g>
                    <text id="Edit" font-family="FiraSans-Medium, Fira Sans" font-size="12" font-weight="400" fill="#00AFAA">
                        <tspan x="1291.284" y="38">Edit</tspan>
                    </text>
                    <text id="4581-SFM92927-922" font-family="FiraSans-Book, Fira Sans" font-size="12" font-weight="300" fill="#9FA2A6">
                        <tspan x="27" y="36">4581 SFM92927 922</tspan>
                    </text>
                    <text id="4581-SFM92927-922…" font-family="FiraSans-Book, Fira Sans" font-size="12" font-weight="300" fill="#9FA2A6">
                        <tspan x="271.47" y="36">4581 SFM92927 922…</tspan>
                    </text>
                </g>
                <g id="Line-Copy-10" transform="translate(0.000000, 698.000000)">
                    <g id="Rectangle-10-Copy">
                        <use fill="#F3F3F4" fill-rule="evenodd" xlink:href="#path-3"></use>
                        <use fill="black" fill-opacity="1" filter="url(#filter-4)" xlink:href="#path-3"></use>
                    </g>
                    <text id="Edit" font-family="FiraSans-Medium, Fira Sans" font-size="12" font-weight="400" fill="#00AFAA">
                        <tspan x="1291.284" y="36">Edit</tspan>
                    </text>
                    <text id="4581-SFM92927-922" font-family="FiraSans-Book, Fira Sans" font-size="12" font-weight="300" fill="#9FA2A6">
                        <tspan x="27" y="34">4581 SFM92927 922</tspan>
                    </text>
                    <text id="4581-SFM92927-922…" font-family="FiraSans-Book, Fira Sans" font-size="12" font-weight="300" fill="#9FA2A6">
                        <tspan x="271.47" y="34">4581 SFM92927 922…</tspan>
                    </text>
                </g>
                <g id="Line-Copy-9" transform="translate(0.000000, 638.000000)">
                    <g id="Rectangle-10-Copy">
                        <use fill="#F3F3F4" fill-rule="evenodd" xlink:href="#path-5"></use>
                        <use fill="black" fill-opacity="1" filter="url(#filter-6)" xlink:href="#path-5"></use>
                    </g>
                    <text id="Edit" font-family="FiraSans-Medium, Fira Sans" font-size="12" font-weight="400" fill="#00AFAA">
                        <tspan x="1291.284" y="36">Edit</tspan>
                    </text>
                    <text id="4581-SFM92927-922" font-family="FiraSans-Book, Fira Sans" font-size="12" font-weight="300" fill="#9FA2A6">
                        <tspan x="27" y="34">4581 SFM92927 922</tspan>
                    </text>
                    <text id="4581-SFM92927-922…" font-family="FiraSans-Book, Fira Sans" font-size="12" font-weight="300" fill="#9FA2A6">
                        <tspan x="271.47" y="34">4581 SFM92927 922…</tspan>
                    </text>
                </g>
                <g id="Line-Copy-8" transform="translate(0.000000, 578.000000)">
                    <g id="Rectangle-10-Copy">
                        <use fill="#F3F3F4" fill-rule="evenodd" xlink:href="#path-7"></use>
                        <use fill="black" fill-opacity="1" filter="url(#filter-8)" xlink:href="#path-7"></use>
                    </g>
                    <text id="Edit" font-family="FiraSans-Medium, Fira Sans" font-size="12" font-weight="400" fill="#00AFAA">
                        <tspan x="1291.284" y="36">Edit</tspan>
                    </text>
                    <text id="4581-SFM92927-922" font-family="FiraSans-Book, Fira Sans" font-size="12" font-weight="300" fill="#9FA2A6">
                        <tspan x="27" y="34">4581 SFM92927 922</tspan>
                    </text>
                    <text id="4581-SFM92927-922…" font-family="FiraSans-Book, Fira Sans" font-size="12" font-weight="300" fill="#9FA2A6">
                        <tspan x="271.47" y="34">4581 SFM92927 922…</tspan>
                    </text>
                </g>
                <g id="Line-Copy-7" transform="translate(0.000000, 500.000000)">
                    <g id="Rectangle-10-Copy">
                        <use fill="#F3F3F4" fill-rule="evenodd" xlink:href="#path-9"></use>
                        <use fill="black" fill-opacity="1" filter="url(#filter-10)" xlink:href="#path-9"></use>
                    </g>
                    <text id="Edit" font-family="FiraSans-Medium, Fira Sans" font-size="12" font-weight="400" fill="#00AFAA">
                        <tspan x="1291.284" y="36">Edit</tspan>
                    </text>
                    <text id="4581-SFM92927-922" font-family="FiraSans-Book, Fira Sans" font-size="12" font-weight="300" fill="#9FA2A6">
                        <tspan x="27" y="34">4581 SFM92927 922</tspan>
                    </text>
                    <text id="4581-SFM92927-922…" font-family="FiraSans-Book, Fira Sans" font-size="12" font-weight="300" fill="#9FA2A6">
                        <tspan x="271.47" y="34">4581 SFM92927 922…</tspan>
                    </text>
                </g>
                <g id="Line-Copy-6" transform="translate(0.000000, 440.000000)">
                    <g id="Rectangle-10-Copy">
                        <use fill="#F3F3F4" fill-rule="evenodd" xlink:href="#path-11"></use>
                        <use fill="black" fill-opacity="1" filter="url(#filter-12)" xlink:href="#path-11"></use>
                    </g>
                    <text id="Edit" font-family="FiraSans-Medium, Fira Sans" font-size="12" font-weight="400" fill="#00AFAA">
                        <tspan x="1291.284" y="36">Edit</tspan>
                    </text>
                    <text id="4581-SFM92927-922" font-family="FiraSans-Book, Fira Sans" font-size="12" font-weight="300" fill="#9FA2A6">
                        <tspan x="27" y="34">4581 SFM92927 922</tspan>
                    </text>
                    <text id="4581-SFM92927-922…" font-family="FiraSans-Book, Fira Sans" font-size="12" font-weight="300" fill="#9FA2A6">
                        <tspan x="271.47" y="34">4581 SFM92927 922…</tspan>
                    </text>
                </g>
                <g id="Line-Copy-5" transform="translate(0.000000, 380.000000)">
                    <g id="Rectangle-10-Copy">
                        <use fill="#F3F3F4" fill-rule="evenodd" xlink:href="#path-13"></use>
                        <use fill="black" fill-opacity="1" filter="url(#filter-14)" xlink:href="#path-13"></use>
                    </g>
                    <text id="Edit" font-family="FiraSans-Medium, Fira Sans" font-size="12" font-weight="400" fill="#00AFAA">
                        <tspan x="1291.284" y="36">Edit</tspan>
                    </text>
                    <text id="4581-SFM92927-922" font-family="FiraSans-Book, Fira Sans" font-size="12" font-weight="300" fill="#9FA2A6">
                        <tspan x="27" y="34">4581 SFM92927 922</tspan>
                    </text>
                    <text id="4581-SFM92927-922…" font-family="FiraSans-Book, Fira Sans" font-size="12" font-weight="300" fill="#9FA2A6">
                        <tspan x="271.47" y="34">4581 SFM92927 922…</tspan>
                    </text>
                </g>
                <g id="Line-Copy-4" transform="translate(0.000000, 320.000000)">
                    <g id="Rectangle-10-Copy">
                        <use fill="#F3F3F4" fill-rule="evenodd" xlink:href="#path-15"></use>
                        <use fill="black" fill-opacity="1" filter="url(#filter-16)" xlink:href="#path-15"></use>
                    </g>
                    <text id="Edit" font-family="FiraSans-Medium, Fira Sans" font-size="12" font-weight="400" fill="#00AFAA">
                        <tspan x="1291.284" y="36">Edit</tspan>
                    </text>
                    <text id="4581-SFM92927-922" font-family="FiraSans-Book, Fira Sans" font-size="12" font-weight="300" fill="#9FA2A6">
                        <tspan x="27" y="34">4581 SFM92927 922</tspan>
                    </text>
                    <text id="4581-SFM92927-922…" font-family="FiraSans-Book, Fira Sans" font-size="12" font-weight="300" fill="#9FA2A6">
                        <tspan x="271.47" y="34">4581 SFM92927 922…</tspan>
                    </text>
                </g>
                <g id="Line-Copy-3" transform="translate(0.000000, 260.000000)">
                    <g id="Rectangle-10-Copy">
                        <use fill="#F3F3F4" fill-rule="evenodd" xlink:href="#path-17"></use>
                        <use fill="black" fill-opacity="1" filter="url(#filter-18)" xlink:href="#path-17"></use>
                    </g>
                    <text id="Edit" font-family="FiraSans-Medium, Fira Sans" font-size="12" font-weight="400" fill="#00AFAA">
                        <tspan x="1291.284" y="36">Edit</tspan>
                    </text>
                    <text id="4581-SFM92927-922" font-family="FiraSans-Book, Fira Sans" font-size="12" font-weight="300" fill="#9FA2A6">
                        <tspan x="27" y="34">4581 SFM92927 922</tspan>
                    </text>
                    <text id="4581-SFM92927-922…" font-family="FiraSans-Book, Fira Sans" font-size="12" font-weight="300" fill="#9FA2A6">
                        <tspan x="271.47" y="34">4581 SFM92927 922…</tspan>
                    </text>
                </g>
                <g id="Line-Copy-2" transform="translate(0.000000, 200.000000)">
                    <g id="Rectangle-10-Copy">
                        <use fill="#F3F3F4" fill-rule="evenodd" xlink:href="#path-19"></use>
                        <use fill="black" fill-opacity="1" filter="url(#filter-20)" xlink:href="#path-19"></use>
                    </g>
                    <text id="Edit" font-family="FiraSans-Medium, Fira Sans" font-size="12" font-weight="400" fill="#00AFAA">
                        <tspan x="1291.284" y="36">Edit</tspan>
                    </text>
                    <text id="4581-SFM92927-922" font-family="FiraSans-Book, Fira Sans" font-size="12" font-weight="300" fill="#9FA2A6">
                        <tspan x="27" y="34">4581 SFM92927 922</tspan>
                    </text>
                    <text id="4581-SFM92927-922…" font-family="FiraSans-Book, Fira Sans" font-size="12" font-weight="300" fill="#9FA2A6">
                        <tspan x="271.47" y="34">4581 SFM92927 922…</tspan>
                    </text>
                </g>
                <g id="Line-Copy" transform="translate(0.000000, 140.000000)">
                    <g id="Rectangle-10-Copy">
                        <use fill="#F3F3F4" fill-rule="evenodd" xlink:href="#path-21"></use>
                        <use fill="black" fill-opacity="1" filter="url(#filter-22)" xlink:href="#path-21"></use>
                    </g>
                    <text id="Edit" font-family="FiraSans-Medium, Fira Sans" font-size="12" font-weight="400" fill="#00AFAA">
                        <tspan x="1291.284" y="36">Edit</tspan>
                    </text>
                    <text id="4581-SFM92927-922" font-family="FiraSans-Book, Fira Sans" font-size="12" font-weight="300" fill="#9FA2A6">
                        <tspan x="27" y="34">4581 SFM92927 922</tspan>
                    </text>
                    <text id="4581-SFM92927-922…" font-family="FiraSans-Book, Fira Sans" font-size="12" font-weight="300" fill="#9FA2A6">
                        <tspan x="271.47" y="34">4581 SFM92927 922…</tspan>
                    </text>
                </g>
                <g id="Line" transform="translate(0.000000, 80.000000)">
                    <g id="Rectangle-10-Copy">
                        <use fill="#F3F3F4" fill-rule="evenodd" xlink:href="#path-23"></use>
                        <use fill="black" fill-opacity="1" filter="url(#filter-24)" xlink:href="#path-23"></use>
                    </g>
                    <text id="Edit" font-family="FiraSans-Medium, Fira Sans" font-size="12" font-weight="400" fill="#00AFAA">
                        <tspan x="1291.284" y="36">Edit</tspan>
                    </text>
                    <text id="4581-SFM92927-922" font-family="FiraSans-Book, Fira Sans" font-size="12" font-weight="300" fill="#9FA2A6">
                        <tspan x="27" y="34">4581 SFM92927 922</tspan>
                    </text>
                    <text id="4581-SFM92927-922…" font-family="FiraSans-Book, Fira Sans" font-size="12" font-weight="300" fill="#9FA2A6">
                        <tspan x="271.47" y="34">4581 SFM92927 922…</tspan>
                    </text>
                </g>
                <g id="In-preparation">
                    <rect id="Rectangle" fill="#9B9DA2" x="0" y="0" width="1380" height="40"></rect>
                    <text id="Title" font-family="FiraSans-Medium, Fira Sans" font-size="12" font-weight="400" fill="#6A6D74">
                        <tspan x="27" y="26">TITLE</tspan>
                    </text>
                    <text id="Internal-description" font-family="FiraSans-Medium, Fira Sans" font-size="12" font-weight="400" fill="#6A6D74">
                        <tspan x="263" y="26">INTERNAL DESCRIPTION</tspan>
                    </text>
                </g>
            </g>
            <g id="A" transform="translate(30.000000, 124.000000)">
                <g id="Rectangle-Copy">
                    <use fill="#9B9DA2" fill-rule="evenodd" xlink:href="#path-25"></use>
                    <use fill="black" fill-opacity="1" filter="url(#filter-26)" xlink:href="#path-25"></use>
                </g>
                <g id="context-chrome-&gt;-lui-search--searchfield-typeahead-infield-small:focus:grey" transform="translate(1079.000000, 0.000000)">
                    <g id="context-chrome-&gt;-lui-search--searchfield-typeahead-infield-small:focus">
                        <rect id="Safety-Zone" x="0" y="0" width="301" height="50"></rect>
                        <rect id="Search-field" fill="#898B91" x="10" y="10" width="281" height="30" rx="1"></rect>
                        <g id="lui-icon--search-light-30x30" transform="translate(10.000000, 10.000000)">
                            <g>
                                <rect id="Margin" x="0" y="0" width="30" height="30"></rect>
                                <rect id="20x20" x="5" y="5" width="20" height="20"></rect>
                                <path d="M10.8326741,14.1636731 C10.8326741,12.3242959 12.3239935,10.8329765 14.1633707,10.8329765 C16.0027478,10.8329765 17.4940672,12.3242959 17.4940672,14.1636731 C17.4940672,16.0030502 16.0027478,17.4943696 14.1633707,17.4943696 C12.3239935,17.4943696 10.8326741,16.0030502 10.8326741,14.1636731 M19.9138182,18.7367194 L17.6331238,16.4560249 C18.069445,15.7973797 18.3267413,15.0105027 18.3267413,14.1636731 C18.3267413,11.8679905 16.4590532,10.0003024 14.1633707,10.0003024 C11.8676881,10.0003024 10,11.8679905 10,14.1636731 C10,16.4593556 11.8676881,18.3270437 14.1633707,18.3270437 C15.0102003,18.3270437 15.7970773,18.0697474 16.4557226,17.6334262 L18.736417,19.9141206 C18.8571548,20.0348584 19.0603272,20.0273643 19.1910571,19.8974671 L19.8971647,19.1913595 C20.0270619,19.0606296 20.034556,18.8574571 19.9138182,18.7367194" id="LUI-icon--search-light-30x30" fill="#FFFFFF"></path>
                            </g>
                        </g>
                        <g id="lui-Icon--clear-light-30x30" transform="translate(261.000000, 10.000000)">
                            <g>
                                <rect id="Margin" x="0" y="0" width="30" height="30"></rect>
                                <rect id="20x20" x="5" y="5" width="20" height="20"></rect>
                                <path d="M16.05075,14.99975 L17.89075,13.15975 C18.03575,13.01475 18.03575,12.77975 17.89075,12.63475 L17.36475,12.10875 C17.21975,11.96375 16.98475,11.96375 16.83975,12.10875 L14.99975,13.94875 L13.15975,12.10875 C13.01475,11.96375 12.77975,11.96375 12.63375,12.10875 L12.10875,12.63475 C11.96375,12.77975 11.96375,13.01475 12.10875,13.15975 L13.94775,14.99975 L12.10875,16.83975 C11.96375,16.98475 11.96375,17.21975 12.10875,17.36575 L12.63375,17.89075 C12.77975,18.03675 13.01475,18.03675 13.15975,17.89075 L14.99975,16.05075 L16.83975,17.89075 C16.98475,18.03675 17.21975,18.03675 17.36475,17.89075 L17.89075,17.36575 C18.03575,17.21975 18.03575,16.98475 17.89075,16.83975 L16.05075,14.99975 Z" id="X" fill="#FFFFFF"></path>
                            </g>
                        </g>
                        <text id="The-quick" font-family="FiraSans-Regular, Fira Sans" font-size="13" font-weight="normal" line-spacing="20" letter-spacing="0.0065" fill="#FFFFFF">
                            <tspan x="40" y="27">The quick</tspan>
                        </text>
                        <text id="brown-fox" font-family="FiraSans-LightItalic, Fira Sans" font-size="13" font-style="italic" font-weight="300" line-spacing="20" letter-spacing="0.0065" fill="#FFFFFF" fill-opacity="0.4">
                            <tspan x="100" y="27">brown fox</tspan>
                        </text>
                        <rect id="Cursor" fill="#48DAD0" x="98" y="17" width="1" height="16"></rect>
                    </g>
                </g>
                <text font-family="FiraSans-Medium, Fira Sans" font-size="12" font-weight="400" fill="#272D37">
                    <tspan x="28" y="31">A</tspan>
                </text>
            </g>
            <g id="A-Copy" transform="translate(30.000000, 648.000000)">
                <g id="Rectangle-Copy">
                    <use fill="#9B9DA2" fill-rule="evenodd" xlink:href="#path-27"></use>
                    <use fill="black" fill-opacity="1" filter="url(#filter-28)" xlink:href="#path-27"></use>
                </g>
                <text id="B" font-family="FiraSans-Medium, Fira Sans" font-size="12" font-weight="400" fill="#272D37">
                    <tspan x="28" y="15">B</tspan>
                </text>
            </g>
            <g id="+-Add-new-upgrade-(grey)" transform="translate(1272.000000, 97.000000)">
                <text id="Create-new-update" font-family="FiraSans-Book, Fira Sans" font-size="12" font-weight="300" fill="#E7E7E8">
                    <tspan x="17.1428571" y="16">Create new update</tspan>
                </text>
                <g id="lui-icon-plus--grey" transform="translate(5.142857, 7.000000)" fill-rule="evenodd" stroke-width="1">
                    <g id="lui-icon-plus--aqua">
                        <rect id="20x20" x="0" y="0" width="9" height="10"></rect>
                        <path d="M4.95,4.5 L4.95,1.2 C4.95,1.0895 4.86945,1 4.77,1 L4.23,1 C4.13055,1 4.05,1.0895 4.05,1.2 L4.05,4.5 L1.08,4.5 C0.98055,4.5 0.9,4.5895 0.9,4.7 L0.9,5.3 C0.9,5.4105 0.98055,5.5 1.08,5.5 L4.05,5.5 L4.05,8.8 C4.05,8.9105 4.13055,9 4.23,9 L4.77,9 C4.86945,9 4.95,8.9105 4.95,8.8 L4.95,5.5 L7.92,5.5 C8.01945,5.5 8.1,5.4105 8.1,5.3 L8.1,4.7 C8.1,4.5895 8.01945,4.5 7.92,4.5 L4.95,4.5 Z" id="Fill-1" fill="#E7E7E8"></path>
                    </g>
                </g>
            </g>
            <g id="Desktop-Navigation-Translation----Update">
                <mask id="mask-30" fill="white">
                    <use xlink:href="#path-29"></use>
                </mask>
                <use id="BG-Header" fill="#3F454D" fill-rule="evenodd" xlink:href="#path-29"></use>
                <g id="context-chrome-&gt;-lui-overflow-green:default" stroke-width="1" fill-rule="evenodd" mask="url(#mask-30)">
                    <g transform="translate(1409.000000, 10.000000)">
                        <rect id="Safety-Zone" x="0" y="0" width="20" height="40"></rect>
                        <g id="Dots" stroke-width="1" fill-rule="evenodd" transform="translate(8.000000, 11.000000)">
                            <circle id="Dot" fill="#48DAD0" cx="2" cy="2" r="2"></circle>
                            <circle id="Dot" fill="#48DAD0" cx="2" cy="9" r="2"></circle>
                            <circle id="Dot" fill="#48DAD0" cx="2" cy="16" r="2"></circle>
                        </g>
                    </g>
                </g>
                <g id="lui-desktopnavigation--tab:selected" mask="url(#mask-30)" fill="#48DAD0" fill-rule="evenodd">
                    <g transform="translate(539.000000, 16.000000)" id="Highlight-">
                        <rect x="10" y="40" width="70" height="4"></rect>
                    </g>
                </g>
                <text id="Impact-analysis" font-family="FiraSans-Book, Fira Sans" font-size="16" font-weight="300" fill="#9FA2A6">
                    <tspan x="824" y="36">Impact analysis</tspan>
                </text>
                <text id="Translation" font-family="FiraSans-Book, Fira Sans" font-size="16" font-weight="300" fill="#9FA2A6">
                    <tspan x="1012" y="36">Translation</tspan>
                </text>
                <text id="Update" font-family="FiraSans-Book, Fira Sans" font-size="18" font-weight="300" fill="#FFFFFF">
                    <tspan x="554" y="36">Update</tspan>
                </text>
                <text id="Campaigns" font-family="FiraSans-Book, Fira Sans" font-size="16" font-weight="300" fill="#9FA2A6">
                    <tspan x="675" y="36">Campaigns</tspan>
                </text>
                <text id="Dashboard" font-family="FiraSans-Book, Fira Sans" font-size="16" font-weight="300" fill="#9FA2A6">
                    <tspan x="145" y="36">Dashboard</tspan>
                </text>
                <text id="Packages" font-family="FiraSans-Book, Fira Sans" font-size="16" font-weight="300" fill="#9FA2A6">
                    <tspan x="417" y="36">Packages</tspan>
                </text>
                <text id="Devices" font-family="FiraSans-Book, Fira Sans" font-size="16" font-weight="300" fill="#9FA2A6">
                    <tspan x="295" y="36">Devices</tspan>
                </text>
                <g id="DOCS-|-SUPPORT" transform="translate(1157.000000, 21.000000)" fill="#9FA2A6" font-family="FiraSans-Medium, Fira Sans" font-size="12" font-weight="400">
                    <text id="WHATS-NEW-|-DOCS-|-S">
                        <tspan x="194" y="-4">	 </tspan>
                        <tspan x="2.672" y="13">WHATS NEW   |   DOCS   |   SUPPORT</tspan>
                    </text>
                </g>
                <g id="Group-15" stroke-width="1" fill-rule="evenodd" transform="translate(1370.000000, 15.000000)" stroke="#B9B9B9">
                    <path d="M14.6946119,28.8892238 C22.5340796,28.8892238 28.8892238,22.5340796 28.8892238,14.6946119 C28.8892238,6.85514423 22.5340796,0.5 14.6946119,0.5 C6.85514423,0.5 0.5,6.85514423 0.5,14.6946119 C0.5,22.5340796 6.85514423,28.8892238 14.6946119,28.8892238 Z" id="Oval-3"></path>
                    <g id="Page-1" transform="translate(4.838710, 4.838710)" stroke-linecap="round" stroke-linejoin="round" stroke-width="0.8">
                        <path d="M8.62035326,13.0373641 C8.62035326,14.2634511 7.62660326,15.2572011 6.4005163,15.2572011 C5.17442935,15.2572011 4.17986413,14.2634511 4.17986413,13.0373641 C4.17986413,11.8112772 5.17442935,10.8175272 6.4005163,10.8175272 C7.62660326,10.8175272 8.62035326,11.8112772 8.62035326,13.0373641 Z" id="Stroke-1"></path>
                        <path d="M10.7127717,14.0779891 L12.3366848,13.8652174 C12.4125,13.3149457 12.4157609,12.7817935 12.3366848,12.2095109 L10.7127717,11.9967391 C10.6035326,11.5410326 10.4241848,11.1146739 10.1861413,10.7258152 L11.1847826,9.4263587 C10.8505435,8.98369565 10.4559783,8.58994565 10.0141304,8.2548913 L8.71467391,9.25353261 C8.32581522,9.01467391 7.8986413,8.83532609 7.44293478,8.72527174 L7.23016304,7.1013587 C6.66603261,7.02309783 6.13451087,7.02391304 5.57445652,7.1013587 L5.3625,8.72445652 C4.90597826,8.83369565 4.47798913,9.01304348 4.08831522,9.25190217 L2.7888587,8.25326087 C2.36494565,8.57445652 1.95978261,8.97228261 1.61820652,9.42391304 L2.61684783,10.7225543 C2.37717391,11.1122283 2.19782609,11.5402174 2.08777174,11.9975543 L0.463858696,12.2095109 C0.391304348,12.7361413 0.386413043,13.2986413 0.463858696,13.8652174 L2.08777174,14.0771739 C2.19782609,14.5345109 2.37717391,14.9625 2.61684783,15.3521739 L1.61820652,16.6508152 C1.94266304,17.0796196 2.34130435,17.4831522 2.7888587,17.8214674 L4.08831522,16.8228261 C4.47798913,17.0608696 4.90597826,17.2410326 5.3625,17.3502717 L5.57445652,18.9733696 C6.13451087,19.0508152 6.66603261,19.0508152 7.23016304,18.9733696 L7.44293478,17.3494565 C7.8986413,17.2394022 8.32581522,17.0600543 8.71467391,16.8211957 L10.0141304,17.819837 C10.4559783,17.4847826 10.8505435,17.0902174 11.1847826,16.6483696 L10.1861413,15.348913 C10.4241848,14.9600543 10.6035326,14.5336957 10.7127717,14.0779891 Z" id="Stroke-3"></path>
                        <path d="M16.1071467,5.14508152 C15.8055163,5.88203804 14.9633967,6.23502717 14.2264402,5.93339674 C13.4886685,5.6317663 13.1356793,4.78964674 13.438125,4.05269022 C13.7397554,3.31491848 14.581875,2.96192935 15.3188315,3.264375 C16.055788,3.56600543 16.4087772,4.408125 16.1071467,5.14508152 Z" id="Stroke-5"></path>
                        <path d="M17.3685326,6.47307065 L18.5114674,6.77470109 C18.7128261,6.4282337 18.8603804,6.07279891 18.963913,5.66845109 L17.9375543,5.083125 C17.988913,4.74888587 17.9856522,4.41464674 17.9334783,4.089375 L18.9557609,3.49508152 C18.8530435,3.10785326 18.697337,2.73692935 18.4935326,2.39209239 L17.3530435,2.70432065 C17.1590217,2.43855978 16.9226087,2.20133152 16.6478804,2.0032337 L16.9503261,0.86111413 C16.5948913,0.654048913 16.2394565,0.508940217 15.8440761,0.407853261 L15.25875,1.43339674 C14.9236957,1.38203804 14.5886413,1.38529891 14.2633696,1.43747283 L13.6682609,0.415190217 C13.2997826,0.513016304 12.9207065,0.667907609 12.566087,0.877418478 L12.8783152,2.01790761 C12.6117391,2.21274457 12.3745109,2.44915761 12.176413,2.72470109 L11.0334783,2.42225543 C10.841087,2.75486413 10.68375,3.12904891 10.5810326,3.52850543 L11.6073913,4.11383152 C11.5560326,4.44970109 11.5592935,4.78475543 11.6122826,5.11002717 L10.59,5.70513587 C10.6886413,6.07605978 10.8435326,6.45513587 11.0522283,6.80649457 L12.1927174,6.49508152 C12.3875543,6.76084239 12.6247826,6.99807065 12.8995109,7.19616848 L12.5978804,8.33828804 C12.9500543,8.54290761 13.3054891,8.68883152 13.7041304,8.7907337 L14.2894565,7.764375 C14.6245109,7.81491848 14.95875,7.81247283 15.2840217,7.7594837 L15.8783152,8.78095109 C16.2655435,8.67904891 16.6364674,8.52334239 16.9804891,8.31872283 L16.6690761,7.1782337 C16.9340217,6.98339674 17.1704348,6.7469837 17.3685326,6.47307065 Z" id="Stroke-7"></path>
                    </g>
                </g>
                <g id="lui-avatar--initials-medium" transform="translate(1352.000000, 0.000000)" fill-rule="evenodd" stroke-width="1">
                    <g>
                        <rect id="Safety-zone" x="0" y="0" width="60" height="60"></rect>
                        <circle id="Circle" fill="#272D37" cx="30" cy="30" r="20"></circle>
                        <text id="BG" font-family="FiraSans-Light, Fira Sans" font-size="18" font-weight="300" line-spacing="22" letter-spacing="0.01" fill="#9FA2A6">
                            <tspan x="19.046" y="36">BG</tspan>
                        </text>
                    </g>
                </g>
                <g id="here-logo" transform="translate(30.000000, 14.000000)" fill-rule="evenodd">
                    <path d="M26.6306923,5.93977778 C25.9791538,5.18155556 25.959859,4.30511111 26.6306923,3.60511111 C27.2817821,2.94288889 28.1258205,2.92422222 28.9321667,3.60511111 L26.6306923,5.93977778 Z M16.0252436,16.7033333 C15.3728077,15.9442222 15.3539615,15.05 16.0252436,14.3673333 C16.6772308,13.706 17.5217179,13.6864444 18.3455641,14.3673333 L16.0252436,16.7033333 Z M24.5019744,16.5091111 L26.8810769,14.0957778 L24.3121667,11.4873333 C22.2215897,9.36555556 22.8354359,8.23755556 23.3160128,7.75044444 C23.6220385,7.43933333 23.9294103,7.206 24.1407564,7.08911111 C24.4288333,7.65355556 24.8120385,8.19888889 25.2908205,8.66555556 C27.7816538,11.2148889 30.5067179,10.8637778 32.5977436,8.72511111 C33.8442821,7.45844444 34.4397308,6.29177778 34.5918462,5.70688889 L32.5380641,4.55888889 C32.2899231,5.10333333 31.7137692,6.03844444 31.0631282,6.69977778 C29.9310128,7.86688889 28.8554359,7.86688889 28.1289615,7.26422222 L32.4074872,2.94288889 L31.8708205,2.39844444 C29.3553077,-0.170888889 27.0188333,-0.307333333 24.9076154,1.834 C23.5085128,3.254 23.3160128,5.006 23.9294103,6.602 L22.3562051,4.71488889 C22.2031923,4.77311111 21.9155641,5.00644444 21.6274872,5.29888889 C20.8027436,6.15533333 20.611141,7.478 20.8229359,8.354 L19.7662051,7.43977778 L17.6769744,9.56111111 L20.5519103,12.4806667 C18.2706282,10.5731111 16.2181923,10.6708889 14.3210128,12.5971111 C12.4027436,14.5428889 12.5171667,16.9184444 14.1092179,18.902 L13.8408846,18.6304444 C12.1339615,16.898 10.4849231,16.5264444 8.85383333,18.2011111 C7.89537179,19.1557778 7.74191026,20.0891111 7.8379359,20.9268889 L3.81024359,16.8584444 L1.46838462,19.2322222 L9.25364103,27.1553333 L14.0109487,27.1553333 L10.7317179,23.8264444 C9.58075641,22.6775556 9.23569231,21.8802222 9.94511538,21.1602222 C10.4629359,20.6157778 11.0574872,20.634 11.7862051,21.3735556 L15.7376154,25.4033333 L18.1153718,22.99 L15.1619103,19.9935556 C17.5010769,21.9593333 20.0524872,21.4735556 21.9896026,19.4886667 C23.0068462,18.4762222 23.5614615,17.5411111 23.8315897,16.8993333 L21.7410128,15.714 C21.4345385,16.258 20.9737051,16.9393333 20.4756282,17.4646667 C19.3242179,18.6317778 18.2508846,18.6313333 17.5235128,18.0277778 L21.7621026,13.7268889 L24.5019744,16.5091111 Z" id="Fill-5" fill="#FFFFFF"></path>
                    <polygon id="Fill-7" fill="#48DAD0" points="0 27.1111111 0 27.1111111 4.77391026 31.956 9.54782051 27.1111111 9.54737179 27.1111111"></polygon>
                </g>
            </g>
        </g>
        <rect id="Combined-Shape" fill-opacity="0.6" fill="#0F1621" fill-rule="nonzero" x="0" y="0" width="1440" height="901"></rect>
        <g id="Group-3" transform="translate(328.000000, 264.000000)">
            <g id="Group">
                <g id="PopUp">
                    <rect id="Rectangle-2-Copy" fill="#FFFFFF" x="0" y="0" width="785" height="374"></rect>
                    <path d="M28.966066,59.6666667 L755.932398,59.6666667" id="Line" stroke-opacity="0.5" stroke="#D7D8DA" stroke-linecap="square"></path>
                    <path d="M28.966066,290.666667 L755.932398,290.666667" id="Line" stroke-opacity="0.5" stroke="#D7D8DA" stroke-linecap="square"></path>
                    <rect id="Rectangle-4" fill="#48DAD0" x="630" y="313" width="126" height="36"></rect>
                    <rect id="Rectangle-4-Copy" stroke="#48DAD0" x="498.5" y="313.5" width="125" height="35"></rect>
                    <text id="Next" font-family="FiraSans-Medium, Fira Sans" font-size="14" font-weight="400" fill="#FFFFFF">
                        <tspan x="678" y="337">Next</tspan>
                    </text>
                    <text id="Save" font-family="FiraSans-Medium, Fira Sans" font-size="14" font-weight="400" fill="#48DAD0">
                        <tspan x="546" y="337">Save</tspan>
                    </text>
                </g>
                <g id="Titlebar-full" transform="translate(681.000000, 14.000000)" fill="#B7B9BC">
                    <g id="Group" transform="translate(15.000000, 8.000000)">
                        <g id="Minimize" transform="translate(0.000000, 10.000000)">
                            <path d="M0.5,0 L10.4528571,0 C10.7289995,-5.07265313e-17 10.9528571,0.223857625 10.9528571,0.5 L10.9528571,1.5 C10.9528571,1.77614237 10.7289995,2 10.4528571,2 L0.5,2 C0.223857625,2 3.38176876e-17,1.77614237 0,1.5 L-5.55111512e-17,0.5 C-8.93288388e-17,0.223857625 0.223857625,5.07265313e-17 0.5,0 Z" id="minimise"></path>
                        </g>
                        <g id="Maximize" transform="translate(24.545455, 0.909091)">
                            <path d="M1.57131633,1.83241667 L9.42789801,1.83241667 L9.42789801,9.16666667 L1.57131633,9.16666667 L1.57131633,1.83241667 Z M0.5,11 L10.5,11 C10.7761424,11 11,10.7761424 11,10.5 L11,0.5 C11,0.223857625 10.7761424,-5.07265313e-17 10.5,0 L0.5,0 C0.223857625,5.07265313e-17 -3.38176876e-17,0.223857625 0,0.5 L0,10.5 C3.38176876e-17,10.7761424 0.223857625,11 0.5,11 Z" id="maximise-copy"></path>
                        </g>
                        <g id="Close" transform="translate(47.272727, 0.000000)">
                            <g id="Group">
                                <rect id="Rectangle-7" transform="translate(5.946949, 5.946949) rotate(45.000000) translate(-5.946949, -5.946949) " x="-1.43766605" y="4.92130831" width="14.7692308" height="2.05128205" rx="0.5"></rect>
                                <rect id="Rectangle-7" transform="translate(5.946949, 5.946949) scale(-1, 1) rotate(45.000000) translate(-5.946949, -5.946949) " x="-1.43766605" y="4.92130831" width="14.7692308" height="2.05128205" rx="0.5"></rect>
                            </g>
                        </g>
                    </g>
                </g>
                <text id="Create-new-group" font-family="FiraSans-Light, Fira Sans" font-size="16" font-weight="300" fill="#0F1621">
                    <tspan x="28" y="35">Create new group</tspan>
                </text>
            </g>
            <g id="Group-2" transform="translate(27.000000, 83.000000)">
                <g id="Filter" transform="translate(0.000000, 75.000000)">
                    <rect id="BTN" fill="#F3F3F4" x="528" y="24" width="30" height="30" rx="1"></rect>
                    <rect id="BTN-Copy" fill="#F3F3F4" x="565" y="24" width="30" height="30" rx="1"></rect>
                    <text id="+" font-family="FiraSans-Book, Fira Sans" font-size="32" font-weight="300" line-spacing="30" letter-spacing="0.02" fill="#9B9DA2">
                        <tspan x="572" y="54">+</tspan>
                    </text>
                    <text id="-" font-family="FiraSans-Book, Fira Sans" font-size="32" font-weight="300" line-spacing="30" letter-spacing="0.02" fill="#9B9DA2">
                        <tspan x="537" y="54">-</tspan>
                    </text>
                    <g id="Name" transform="translate(0.000000, 24.000000)">
                        <rect id="Rectangle-2" fill="#F3F3F4" x="0" y="0" width="87" height="30"></rect>
                        <g id="Icon/Dropdown-Mint" transform="translate(66.000000, 9.000000)" fill="#48DAD0" fill-rule="nonzero">
                            <polygon id="ICon/Dropdown" points="12.1153846 3.94230769 11.1730769 3 6.05769231 8.11538462 0.942307692 3 2.98571493e-13 3.94230769 5.11538462 9.05769231 6.05769231 10 7 9.05769231"></polygon>
                        </g>
                        <text id="Device-ID" font-family="FiraSans-Book, Fira Sans" font-size="12" font-weight="300" fill="#000000">
                            <tspan x="10" y="19">Device ID</tspan>
                        </text>
                    </g>
                    <g id="Name-Copy" transform="translate(94.000000, 24.000000)">
                        <rect id="Rectangle-2" fill="#F3F3F4" x="0" y="0" width="136" height="30"></rect>
                        <g id="Icon/Dropdown-Mint" transform="translate(115.000000, 9.000000)" fill="#48DAD0" fill-rule="nonzero">
                            <polygon id="ICon/Dropdown" points="12.1153846 3.94230769 11.1730769 3 6.05769231 8.11538462 0.942307692 3 2.98571493e-13 3.94230769 5.11538462 9.05769231 6.05769231 10 7 9.05769231"></polygon>
                        </g>
                        <text id="contains" font-family="FiraSans-Book, Fira Sans" font-size="12" font-weight="300" fill="#000000">
                            <tspan x="12" y="19">contains</tspan>
                        </text>
                    </g>
                    <g id="Type" transform="translate(237.000000, 24.000000)">
                        <rect id="Rectangle-2-Copy-2" fill="#F3F3F4" x="0" y="0" width="284" height="30"></rect>
                        <text id="Type-here" font-family="FiraSans-Book, Fira Sans" font-size="12" font-weight="300" fill="#9FA2A6">
                            <tspan x="13" y="19">Type here</tspan>
                        </text>
                    </g>
                    <text font-family="FiraSans-Medium, Fira Sans" font-size="12" font-weight="400" fill="#000000">
                        <tspan x="0" y="14">Filter</tspan>
                    </text>
                </g>
                <g id="Group-name">
                    <rect id="Rectangle-2" fill="#F3F3F4" x="0" y="24" width="594" height="30"></rect>
                    <text id="Market-DE" font-family="FiraSans-Book, Fira Sans" font-size="12" font-weight="300" fill="#0F1621">
                        <tspan x="10" y="44">Market DE</tspan>
                    </text>
                    <polygon id="Tick" stroke="#00AFAA" fill="#00AFAA" points="573.648438 41.8671875 582.476562 33 583.648438 34.171875 573.648438 44.171875 569 39.5234375 570.132812 38.3515625"></polygon>
                    <text id="Name" font-family="FiraSans-Medium, Fira Sans" font-size="12" font-weight="400" fill="#0F1621">
                        <tspan x="0" y="14">Name</tspan>
                    </text>
                </g>
            </g>
        </g>
    </g>
</svg>